<?xml version="1.0" encoding="utf-8" standalone="no"?>
<!DOCTYPE svg PUBLIC "-//W3C//DTD SVG 1.1//EN"
  "http://www.w3.org/Graphics/SVG/1.1/DTD/svg11.dtd">
<svg xmlns:xlink="http://www.w3.org/1999/xlink" width="511.303125pt" height="527.99625pt" viewBox="0 0 511.303125 527.99625" xmlns="http://www.w3.org/2000/svg" version="1.1">
 <metadata>
  <rdf:RDF xmlns:dc="http://purl.org/dc/elements/1.1/" xmlns:cc="http://creativecommons.org/ns#" xmlns:rdf="http://www.w3.org/1999/02/22-rdf-syntax-ns#">
   <cc:Work>
    <dc:type rdf:resource="http://purl.org/dc/dcmitype/StillImage"/>
    <dc:date>2023-12-06T11:39:27.015779</dc:date>
    <dc:format>image/svg+xml</dc:format>
    <dc:creator>
     <cc:Agent>
      <dc:title>Matplotlib v3.7.1, https://matplotlib.org/</dc:title>
     </cc:Agent>
    </dc:creator>
   </cc:Work>
  </rdf:RDF>
 </metadata>
 <defs>
  <style type="text/css">*{stroke-linejoin: round; stroke-linecap: butt}</style>
 </defs>
 <g id="figure_1">
  <g id="patch_1">
   <path d="M 0 527.99625 
L 511.303125 527.99625 
L 511.303125 0 
L 0 0 
z
" style="fill: #ffffff"/>
  </g>
  <g id="axes_1">
   <g id="patch_2">
    <path d="M 486.94375 271.557187 
C 486.94375 241.301337 480.984007 211.339686 469.405594 183.386925 
C 457.827181 155.434163 440.85527 130.033902 419.461152 108.639785 
C 398.067035 87.245668 372.666774 70.273756 344.714013 58.695343 
C 316.761252 47.11693 286.799601 41.157187 256.54375 41.157187 
C 226.287899 41.157187 196.326248 47.11693 168.373487 58.695343 
C 140.420726 70.273756 115.020465 87.245668 93.626348 108.639785 
C 72.23223 130.033902 55.260319 155.434163 43.681906 183.386925 
C 32.103493 211.339686 26.14375 241.301337 26.14375 271.557187 
C 26.14375 301.813038 32.103493 331.774689 43.681906 359.72745 
C 55.260319 387.680212 72.23223 413.080473 93.626348 434.47459 
C 115.020465 455.868707 140.420726 472.840619 168.373487 484.419032 
C 196.326248 495.997445 226.287899 501.957187 256.54375 501.957187 
C 286.799601 501.957187 316.761252 495.997445 344.714013 484.419032 
C 372.666774 472.840619 398.067035 455.868707 419.461152 434.47459 
C 440.85527 413.080473 457.827181 387.680212 469.405594 359.72745 
C 480.984007 331.774689 486.94375 301.813038 486.94375 271.557187 
M 256.54375 271.557187 
C 256.54375 271.557187 256.54375 271.557187 256.54375 271.557187 
C 256.54375 271.557187 256.54375 271.557187 256.54375 271.557187 
C 256.54375 271.557187 256.54375 271.557187 256.54375 271.557187 
C 256.54375 271.557187 256.54375 271.557187 256.54375 271.557187 
C 256.54375 271.557187 256.54375 271.557187 256.54375 271.557187 
C 256.54375 271.557187 256.54375 271.557187 256.54375 271.557187 
C 256.54375 271.557187 256.54375 271.557187 256.54375 271.557187 
C 256.54375 271.557187 256.54375 271.557187 256.54375 271.557187 
C 256.54375 271.557187 256.54375 271.557187 256.54375 271.557187 
C 256.54375 271.557187 256.54375 271.557187 256.54375 271.557187 
C 256.54375 271.557187 256.54375 271.557187 256.54375 271.557187 
C 256.54375 271.557187 256.54375 271.557187 256.54375 271.557187 
C 256.54375 271.557187 256.54375 271.557187 256.54375 271.557187 
C 256.54375 271.557187 256.54375 271.557187 256.54375 271.557187 
C 256.54375 271.557187 256.54375 271.557187 256.54375 271.557187 
C 256.54375 271.557187 256.54375 271.557187 256.54375 271.557187 
z
" style="fill: #ffffff"/>
   </g>
   <g id="patch_3">
    <path d="M 264.755552 230.273672 
L 248.331948 230.273672 
L 246.459081 220.858133 
L 266.628419 220.858133 
z
" clip-path="url(#p3586e3a957)" style="fill: #fde725; stroke: #ffffff; stroke-linejoin: miter"/>
   </g>
   <g id="patch_4">
    <path d="M 307.006622 196.034163 
L 274.263954 182.471706 
L 275.848688 174.504712 
L 311.519561 189.280071 
z
" clip-path="url(#p3586e3a957)" style="fill: #fde725; stroke: #ffffff; stroke-linejoin: miter"/>
   </g>
   <g id="patch_5">
    <path d="M 319.786608 229.299661 
L 298.801277 208.31433 
L 311.109294 189.89408 
L 338.206858 216.991643 
z
" clip-path="url(#p3586e3a957)" style="fill: #fde725; stroke: #ffffff; stroke-linejoin: miter"/>
   </g>
   <g id="patch_6">
    <path d="M 303.621443 262.192852 
L 296.454291 244.889816 
L 300.75235 242.017946 
L 308.691349 261.184385 
z
" clip-path="url(#p3586e3a957)" style="fill: #fde725; stroke: #ffffff; stroke-linejoin: miter"/>
   </g>
   <g id="patch_7">
    <path d="M 301.448627 280.489323 
L 301.448627 262.625052 
L 310.864166 260.752185 
L 310.864166 282.36219 
z
" clip-path="url(#p3586e3a957)" style="fill: #fde725; stroke: #ffffff; stroke-linejoin: miter"/>
   </g>
   <g id="patch_8">
    <path d="M 297.682308 299.045093 
L 305.069988 281.209656 
L 312.31271 282.650323 
L 303.822391 303.147766 
z
" clip-path="url(#p3586e3a957)" style="fill: #fde725; stroke: #ffffff; stroke-linejoin: miter"/>
   </g>
   <g id="patch_9">
    <path d="M 321.776243 369.184512 
L 354.171074 336.78968 
L 357.241116 338.841016 
L 323.827579 372.254553 
z
" clip-path="url(#p3586e3a957)" style="fill: #fde725; stroke: #ffffff; stroke-linejoin: miter"/>
   </g>
   <g id="patch_10">
    <path d="M 280.891022 393.95919 
L 325.878915 375.324595 
L 331.622657 383.920712 
L 282.907956 404.099001 
z
" clip-path="url(#p3586e3a957)" style="fill: #fde725; stroke: #ffffff; stroke-linejoin: miter"/>
   </g>
   <g id="patch_11">
    <path d="M 217.933875 465.662139 
L 295.153625 465.662139 
L 301.49256 497.530116 
L 211.59494 497.530116 
z
" clip-path="url(#p3586e3a957)" style="fill: #fde725; stroke: #ffffff; stroke-linejoin: miter"/>
   </g>
   <g id="patch_12">
    <path d="M 166.695222 406.025012 
L 224.993143 430.172801 
L 219.086408 459.867961 
L 149.874265 431.199353 
z
" clip-path="url(#p3586e3a957)" style="fill: #fde725; stroke: #ffffff; stroke-linejoin: miter"/>
   </g>
   <g id="patch_13">
    <path d="M 174.880642 326.122732 
L 201.978206 353.220295 
L 198.285801 358.74637 
L 169.354567 329.815137 
z
" clip-path="url(#p3586e3a957)" style="fill: #fde725; stroke: #ffffff; stroke-linejoin: miter"/>
   </g>
   <g id="patch_14">
    <path d="M 177.598079 287.260458 
L 189.616842 316.276318 
L 169.968576 329.40487 
L 154.421369 291.870592 
z
" clip-path="url(#p3586e3a957)" style="fill: #fde725; stroke: #ffffff; stroke-linejoin: miter"/>
   </g>
   <g id="patch_15">
    <path d="M 177.598079 255.853917 
L 177.598079 287.260458 
L 165.285452 289.709592 
L 165.285452 253.404783 
z
" clip-path="url(#p3586e3a957)" style="fill: #fde725; stroke: #ffffff; stroke-linejoin: miter"/>
   </g>
   <g id="patch_16">
    <path d="M 130.058034 187.042134 
L 107.343675 241.879447 
L 76.924243 235.828646 
L 104.269684 169.81091 
z
" clip-path="url(#p3586e3a957)" style="fill: #fde725; stroke: #ffffff; stroke-linejoin: miter"/>
   </g>
   <g id="patch_17">
    <path d="M 200.747404 188.052055 
L 173.038617 215.760842 
L 161.372459 207.965764 
L 192.952326 176.385896 
z
" clip-path="url(#p3586e3a957)" style="fill: #fde725; stroke: #ffffff; stroke-linejoin: miter"/>
   </g>
   <g id="patch_18">
    <path d="M 240.696413 191.887245 
L 211.414353 204.016271 
L 203.209008 191.736105 
L 237.815079 177.401801 
z
" clip-path="url(#p3586e3a957)" style="fill: #fde725; stroke: #ffffff; stroke-linejoin: miter"/>
   </g>
   <g id="patch_19">
    <path d="M 262.738618 240.413483 
L 250.348882 240.413483 
L 248.331948 230.273672 
L 264.755552 230.273672 
z
" clip-path="url(#p3586e3a957)" style="fill: #5ec962; stroke: #ffffff; stroke-linejoin: miter"/>
   </g>
   <g id="patch_20">
    <path d="M 295.519139 213.226396 
L 270.230086 202.751328 
L 274.263954 182.471706 
L 307.006622 196.034163 
z
" clip-path="url(#p3586e3a957)" style="fill: #5ec962; stroke: #ffffff; stroke-linejoin: miter"/>
   </g>
   <g id="patch_21">
    <path d="M 298.910325 243.248747 
L 284.85219 229.190613 
L 298.801277 208.31433 
L 319.786608 229.299661 
z
" clip-path="url(#p3586e3a957)" style="fill: #5ec962; stroke: #ffffff; stroke-linejoin: miter"/>
   </g>
   <g id="patch_22">
    <path d="M 294.205905 264.065719 
L 288.472183 250.223291 
L 296.454291 244.889816 
L 303.621443 262.192852 
z
" clip-path="url(#p3586e3a957)" style="fill: #5ec962; stroke: #ffffff; stroke-linejoin: miter"/>
   </g>
   <g id="patch_23">
    <path d="M 294.205905 279.048656 
L 294.205905 264.065719 
L 301.448627 262.625052 
L 301.448627 280.489323 
z
" clip-path="url(#p3586e3a957)" style="fill: #5ec962; stroke: #ffffff; stroke-linejoin: miter"/>
   </g>
   <g id="patch_24">
    <path d="M 290.314208 294.121886 
L 296.378721 279.480856 
L 305.069988 281.209656 
L 297.682308 299.045093 
z
" clip-path="url(#p3586e3a957)" style="fill: #5ec962; stroke: #ffffff; stroke-linejoin: miter"/>
   </g>
   <g id="patch_25">
    <path d="M 310.699027 352.606287 
L 337.592849 325.712464 
L 354.171074 336.78968 
L 321.776243 369.184512 
z
" clip-path="url(#p3586e3a957)" style="fill: #5ec962; stroke: #ffffff; stroke-linejoin: miter"/>
   </g>
   <g id="patch_26">
    <path d="M 275.848688 368.609663 
L 311.519561 353.834304 
L 325.878915 375.324595 
L 280.891022 393.95919 
z
" clip-path="url(#p3586e3a957)" style="fill: #5ec962; stroke: #ffffff; stroke-linejoin: miter"/>
   </g>
   <g id="patch_27">
    <path d="M 226.86601 420.757262 
L 286.22149 420.757262 
L 295.153625 465.662139 
L 217.933875 465.662139 
z
" clip-path="url(#p3586e3a957)" style="fill: #5ec962; stroke: #ffffff; stroke-linejoin: miter"/>
   </g>
   <g id="patch_28">
    <path d="M 187.208585 375.324595 
L 232.196478 393.95919 
L 224.993143 430.172801 
L 166.695222 406.025012 
z
" clip-path="url(#p3586e3a957)" style="fill: #5ec962; stroke: #ffffff; stroke-linejoin: miter"/>
   </g>
   <g id="patch_29">
    <path d="M 193.9149 313.404447 
L 214.696491 334.186037 
L 201.978206 353.220295 
L 174.880642 326.122732 
z
" clip-path="url(#p3586e3a957)" style="fill: #5ec962; stroke: #ffffff; stroke-linejoin: miter"/>
   </g>
   <g id="patch_30">
    <path d="M 205.844696 281.641856 
L 213.563167 300.275895 
L 189.616842 316.276318 
L 177.598079 287.260458 
z
" clip-path="url(#p3586e3a957)" style="fill: #5ec962; stroke: #ffffff; stroke-linejoin: miter"/>
   </g>
   <g id="patch_31">
    <path d="M 197.877701 259.887785 
L 197.877701 283.22659 
L 177.598079 287.260458 
L 177.598079 255.853917 
z
" clip-path="url(#p3586e3a957)" style="fill: #5ec962; stroke: #ffffff; stroke-linejoin: miter"/>
   </g>
   <g id="patch_32">
    <path d="M 152.776342 202.222022 
L 134.141747 247.209915 
L 107.343675 241.879447 
L 130.058034 187.042134 
z
" clip-path="url(#p3586e3a957)" style="fill: #5ec962; stroke: #ffffff; stroke-linejoin: miter"/>
   </g>
   <g id="patch_33">
    <path d="M 207.31168 197.876188 
L 182.862751 222.325118 
L 173.038617 215.760842 
L 200.747404 188.052055 
z
" clip-path="url(#p3586e3a957)" style="fill: #5ec962; stroke: #ffffff; stroke-linejoin: miter"/>
   </g>
   <g id="patch_34">
    <path d="M 245.162481 214.339683 
L 224.132637 223.05053 
L 211.414353 204.016271 
L 240.696413 191.887245 
z
" clip-path="url(#p3586e3a957)" style="fill: #5ec962; stroke: #ffffff; stroke-linejoin: miter"/>
   </g>
   <g id="patch_35">
    <path d="M 259.569151 256.347471 
L 253.518349 256.347471 
L 250.348882 240.413483 
L 262.738618 240.413483 
z
" clip-path="url(#p3586e3a957)" style="fill: #21918c; stroke: #ffffff; stroke-linejoin: miter"/>
   </g>
   <g id="patch_36">
    <path d="M 281.159785 234.716688 
L 265.187752 228.100855 
L 270.230086 202.751328 
L 295.519139 213.226396 
z
" clip-path="url(#p3586e3a957)" style="fill: #21918c; stroke: #ffffff; stroke-linejoin: miter"/>
   </g>
   <g id="patch_37">
    <path d="M 271.893958 261.300506 
L 266.800431 256.206979 
L 284.85219 229.190613 
L 298.910325 243.248747 
z
" clip-path="url(#p3586e3a957)" style="fill: #21918c; stroke: #ffffff; stroke-linejoin: miter"/>
   </g>
   <g id="patch_38">
    <path d="M 278.996188 267.09112 
L 275.578008 258.838903 
L 288.472183 250.223291 
L 294.205905 264.065719 
z
" clip-path="url(#p3586e3a957)" style="fill: #21918c; stroke: #ffffff; stroke-linejoin: miter"/>
   </g>
   <g id="patch_39">
    <path d="M 282.617549 276.743589 
L 282.617549 266.370786 
L 294.205905 264.065719 
L 294.205905 279.048656 
z
" clip-path="url(#p3586e3a957)" style="fill: #21918c; stroke: #ffffff; stroke-linejoin: miter"/>
   </g>
   <g id="patch_40">
    <path d="M 273.735983 283.04467 
L 276.823372 275.591055 
L 296.378721 279.480856 
L 290.314208 294.121886 
z
" clip-path="url(#p3586e3a957)" style="fill: #21918c; stroke: #ffffff; stroke-linejoin: miter"/>
   </g>
   <g id="patch_41">
    <path d="M 284.031656 312.695746 
L 297.682308 299.045093 
L 337.592849 325.712464 
L 310.699027 352.606287 
z
" clip-path="url(#p3586e3a957)" style="fill: #21918c; stroke: #ffffff; stroke-linejoin: miter"/>
   </g>
   <g id="patch_42">
    <path d="M 267.780953 328.05042 
L 288.544595 319.449837 
L 311.519561 353.834304 
L 275.848688 368.609663 
z
" clip-path="url(#p3586e3a957)" style="fill: #21918c; stroke: #ffffff; stroke-linejoin: miter"/>
   </g>
   <g id="patch_43">
    <path d="M 243.00148 339.638775 
L 270.08602 339.638775 
L 286.22149 420.757262 
L 226.86601 420.757262 
z
" clip-path="url(#p3586e3a957)" style="fill: #21918c; stroke: #ffffff; stroke-linejoin: miter"/>
   </g>
   <g id="patch_44">
    <path d="M 230.286646 310.853721 
L 247.323481 317.910609 
L 232.196478 393.95919 
L 187.208585 375.324595 
z
" clip-path="url(#p3586e3a957)" style="fill: #21918c; stroke: #ffffff; stroke-linejoin: miter"/>
   </g>
   <g id="patch_45">
    <path d="M 228.299367 290.429481 
L 237.671457 299.801571 
L 214.696491 334.186037 
L 193.9149 313.404447 
z
" clip-path="url(#p3586e3a957)" style="fill: #21918c; stroke: #ffffff; stroke-linejoin: miter"/>
   </g>
   <g id="patch_46">
    <path d="M 234.815584 275.879188 
L 238.1235 283.865205 
L 213.563167 300.275895 
L 205.844696 281.641856 
z
" clip-path="url(#p3586e3a957)" style="fill: #21918c; stroke: #ffffff; stroke-linejoin: miter"/>
   </g>
   <g id="patch_47">
    <path d="M 236.9884 267.667387 
L 236.9884 275.446988 
L 197.877701 283.22659 
L 197.877701 259.887785 
z
" clip-path="url(#p3586e3a957)" style="fill: #21918c; stroke: #ffffff; stroke-linejoin: miter"/>
   </g>
   <g id="patch_48">
    <path d="M 209.265109 239.966609 
L 200.77479 260.464052 
L 134.141747 247.209915 
L 152.776342 202.222022 
z
" clip-path="url(#p3586e3a957)" style="fill: #21918c; stroke: #ffffff; stroke-linejoin: miter"/>
   </g>
   <g id="patch_49">
    <path d="M 227.414775 227.962596 
L 212.949159 242.428213 
L 182.862751 222.325118 
L 207.31168 197.876188 
z
" clip-path="url(#p3586e3a957)" style="fill: #21918c; stroke: #ffffff; stroke-linejoin: miter"/>
   </g>
   <g id="patch_50">
    <path d="M 250.925149 243.310571 
L 240.543327 247.610863 
L 224.132637 223.05053 
L 245.162481 214.339683 
z
" clip-path="url(#p3586e3a957)" style="fill: #21918c; stroke: #ffffff; stroke-linejoin: miter"/>
   </g>
   <g id="patch_51">
    <path d="M 257.696284 265.76301 
L 255.391216 265.76301 
L 253.518349 256.347471 
L 259.569151 256.347471 
z
" clip-path="url(#p3586e3a957)" style="fill: #3b528b; stroke: #ffffff; stroke-linejoin: miter"/>
   </g>
   <g id="patch_52">
    <path d="M 268.031233 254.364954 
L 260.577618 251.277566 
L 265.187752 228.100855 
L 281.159785 234.716688 
z
" clip-path="url(#p3586e3a957)" style="fill: #3b528b; stroke: #ffffff; stroke-linejoin: miter"/>
   </g>
   <g id="patch_53">
    <path d="M 262.683833 267.454515 
L 260.646422 265.417104 
L 266.800431 256.206979 
L 271.893958 261.300506 
z
" clip-path="url(#p3586e3a957)" style="fill: #3b528b; stroke: #ffffff; stroke-linejoin: miter"/>
   </g>
   <g id="patch_54">
    <path d="M 265.959289 269.68432 
L 264.525858 266.223713 
L 275.578008 258.838903 
L 278.996188 267.09112 
z
" clip-path="url(#p3586e3a957)" style="fill: #3b528b; stroke: #ffffff; stroke-linejoin: miter"/>
   </g>
   <g id="patch_55">
    <path d="M 263.0622 272.853788 
L 263.0622 270.260587 
L 282.617549 266.370786 
L 282.617549 276.743589 
z
" clip-path="url(#p3586e3a957)" style="fill: #3b528b; stroke: #ffffff; stroke-linejoin: miter"/>
   </g>
   <g id="patch_56">
    <path d="M 262.683833 275.65986 
L 263.786472 272.997854 
L 276.823372 275.591055 
L 273.735983 283.04467 
z
" clip-path="url(#p3586e3a957)" style="fill: #3b528b; stroke: #ffffff; stroke-linejoin: miter"/>
   </g>
   <g id="patch_57">
    <path d="M 265.569629 285.065371 
L 270.051933 280.583067 
L 297.682308 299.045093 
L 284.031656 312.695746 
z
" clip-path="url(#p3586e3a957)" style="fill: #3b528b; stroke: #ffffff; stroke-linejoin: miter"/>
   </g>
   <g id="patch_58">
    <path d="M 260.577618 291.836809 
L 268.031233 288.749421 
L 288.544595 319.449837 
L 267.780953 328.05042 
z
" clip-path="url(#p3586e3a957)" style="fill: #3b528b; stroke: #ffffff; stroke-linejoin: miter"/>
   </g>
   <g id="patch_59">
    <path d="M 250.348882 302.700892 
L 262.738618 302.700892 
L 270.08602 339.638775 
L 243.00148 339.638775 
z
" clip-path="url(#p3586e3a957)" style="fill: #3b528b; stroke: #ffffff; stroke-linejoin: miter"/>
   </g>
   <g id="patch_60">
    <path d="M 247.928138 284.451362 
L 253.518349 286.766904 
L 247.323481 317.910609 
L 230.286646 310.853721 
z
" clip-path="url(#p3586e3a957)" style="fill: #3b528b; stroke: #ffffff; stroke-linejoin: miter"/>
   </g>
   <g id="patch_61">
    <path d="M 245.4916 278.941998 
L 249.15894 282.609337 
L 237.671457 299.801571 
L 228.299367 290.429481 
z
" clip-path="url(#p3586e3a957)" style="fill: #3b528b; stroke: #ffffff; stroke-linejoin: miter"/>
   </g>
   <g id="patch_62">
    <path d="M 247.128211 273.430055 
L 248.561642 276.890662 
L 238.1235 283.865205 
L 234.815584 275.879188 
z
" clip-path="url(#p3586e3a957)" style="fill: #3b528b; stroke: #ffffff; stroke-linejoin: miter"/>
   </g>
   <g id="patch_63">
    <path d="M 251.473845 270.548721 
L 251.473845 272.565654 
L 236.9884 275.446988 
L 236.9884 267.667387 
z
" clip-path="url(#p3586e3a957)" style="fill: #3b528b; stroke: #ffffff; stroke-linejoin: miter"/>
   </g>
   <g id="patch_64">
    <path d="M 243.035567 262.531308 
L 240.609761 268.38772 
L 200.77479 260.464052 
L 209.265109 239.966609 
z
" clip-path="url(#p3586e3a957)" style="fill: #3b528b; stroke: #ffffff; stroke-linejoin: miter"/>
   </g>
   <g id="patch_65">
    <path d="M 245.876802 255.592971 
L 240.579533 260.890239 
L 212.949159 242.428213 
L 227.414775 227.962596 
z
" clip-path="url(#p3586e3a957)" style="fill: #3b528b; stroke: #ffffff; stroke-linejoin: miter"/>
   </g>
   <g id="patch_66">
    <path d="M 254.238683 259.968832 
L 249.979474 261.733054 
L 240.543327 247.610863 
L 250.925149 243.310571 
z
" clip-path="url(#p3586e3a957)" style="fill: #3b528b; stroke: #ffffff; stroke-linejoin: miter"/>
   </g>
   <g id="patch_67">
    <path d="M 256.54375 271.557187 
L 256.54375 271.557187 
L 255.391216 265.76301 
L 257.696284 265.76301 
z
" clip-path="url(#p3586e3a957)" style="fill: #440154; stroke: #ffffff; stroke-linejoin: miter"/>
   </g>
   <g id="patch_68">
    <path d="M 256.54375 271.557187 
L 256.54375 271.557187 
L 260.577618 251.277566 
L 268.031233 254.364954 
z
" clip-path="url(#p3586e3a957)" style="fill: #440154; stroke: #ffffff; stroke-linejoin: miter"/>
   </g>
   <g id="patch_69">
    <path d="M 256.54375 271.557187 
L 256.54375 271.557187 
L 260.646422 265.417104 
L 262.683833 267.454515 
z
" clip-path="url(#p3586e3a957)" style="fill: #440154; stroke: #ffffff; stroke-linejoin: miter"/>
   </g>
   <g id="patch_70">
    <path d="M 256.54375 271.557187 
L 256.54375 271.557187 
L 264.525858 266.223713 
L 265.959289 269.68432 
z
" clip-path="url(#p3586e3a957)" style="fill: #440154; stroke: #ffffff; stroke-linejoin: miter"/>
   </g>
   <g id="patch_71">
    <path d="M 256.54375 271.557187 
L 256.54375 271.557187 
L 263.0622 270.260587 
L 263.0622 272.853788 
z
" clip-path="url(#p3586e3a957)" style="fill: #440154; stroke: #ffffff; stroke-linejoin: miter"/>
   </g>
   <g id="patch_72">
    <path d="M 256.54375 271.557187 
L 256.54375 271.557187 
L 263.786472 272.997854 
L 262.683833 275.65986 
z
" clip-path="url(#p3586e3a957)" style="fill: #440154; stroke: #ffffff; stroke-linejoin: miter"/>
   </g>
   <g id="patch_73">
    <path d="M 256.54375 271.557187 
L 256.54375 271.557187 
L 270.051933 280.583067 
L 265.569629 285.065371 
z
" clip-path="url(#p3586e3a957)" style="fill: #440154; stroke: #ffffff; stroke-linejoin: miter"/>
   </g>
   <g id="patch_74">
    <path d="M 256.54375 271.557187 
L 256.54375 271.557187 
L 268.031233 288.749421 
L 260.577618 291.836809 
z
" clip-path="url(#p3586e3a957)" style="fill: #440154; stroke: #ffffff; stroke-linejoin: miter"/>
   </g>
   <g id="patch_75">
    <path d="M 256.54375 271.557187 
L 256.54375 271.557187 
L 262.738618 302.700892 
L 250.348882 302.700892 
z
" clip-path="url(#p3586e3a957)" style="fill: #440154; stroke: #ffffff; stroke-linejoin: miter"/>
   </g>
   <g id="patch_76">
    <path d="M 256.54375 271.557187 
L 256.54375 271.557187 
L 253.518349 286.766904 
L 247.928138 284.451362 
z
" clip-path="url(#p3586e3a957)" style="fill: #440154; stroke: #ffffff; stroke-linejoin: miter"/>
   </g>
   <g id="patch_77">
    <path d="M 256.54375 271.557187 
L 256.54375 271.557187 
L 249.15894 282.609337 
L 245.4916 278.941998 
z
" clip-path="url(#p3586e3a957)" style="fill: #440154; stroke: #ffffff; stroke-linejoin: miter"/>
   </g>
   <g id="patch_78">
    <path d="M 256.54375 271.557187 
L 256.54375 271.557187 
L 248.561642 276.890662 
L 247.128211 273.430055 
z
" clip-path="url(#p3586e3a957)" style="fill: #440154; stroke: #ffffff; stroke-linejoin: miter"/>
   </g>
   <g id="patch_79">
    <path d="M 256.54375 271.557187 
L 256.54375 271.557187 
L 251.473845 272.565654 
L 251.473845 270.548721 
z
" clip-path="url(#p3586e3a957)" style="fill: #440154; stroke: #ffffff; stroke-linejoin: miter"/>
   </g>
   <g id="patch_80">
    <path d="M 256.54375 271.557187 
L 256.54375 271.557187 
L 240.609761 268.38772 
L 243.035567 262.531308 
z
" clip-path="url(#p3586e3a957)" style="fill: #440154; stroke: #ffffff; stroke-linejoin: miter"/>
   </g>
   <g id="patch_81">
    <path d="M 256.54375 271.557187 
L 256.54375 271.557187 
L 240.579533 260.890239 
L 245.876802 255.592971 
z
" clip-path="url(#p3586e3a957)" style="fill: #440154; stroke: #ffffff; stroke-linejoin: miter"/>
   </g>
   <g id="patch_82">
    <path d="M 256.54375 271.557187 
L 256.54375 271.557187 
L 249.979474 261.733054 
L 254.238683 259.968832 
z
" clip-path="url(#p3586e3a957)" style="fill: #440154; stroke: #ffffff; stroke-linejoin: miter"/>
   </g>
   <g id="matplotlib.axis_1">
    <g id="xtick_1">
     <g id="line2d_1">
      <path d="M 256.54375 271.557187 
L 486.94375 271.557187 
" clip-path="url(#p3586e3a957)" style="fill: none; stroke: #b0b0b0; stroke-width: 0.8; stroke-linecap: square"/>
     </g>
     <g id="text_1">
      <!-- E -->
      <g transform="translate(497.784375 274.316562) scale(0.1 -0.1)">
       <defs>
        <path id="DejaVuSans-45" d="M 628 4666 
L 3578 4666 
L 3578 4134 
L 1259 4134 
L 1259 2753 
L 3481 2753 
L 3481 2222 
L 1259 2222 
L 1259 531 
L 3634 531 
L 3634 0 
L 628 0 
L 628 4666 
z
" transform="scale(0.015625)"/>
       </defs>
       <use xlink:href="#DejaVuSans-45"/>
      </g>
     </g>
    </g>
    <g id="xtick_2">
     <g id="line2d_2">
      <path d="M 256.54375 271.557187 
L 419.461152 108.639785 
" clip-path="url(#p3586e3a957)" style="fill: none; stroke: #b0b0b0; stroke-width: 0.8; stroke-linecap: square"/>
     </g>
     <g id="text_2">
      <!-- N-E -->
      <g transform="translate(420.656741 101.499665) scale(0.1 -0.1)">
       <defs>
        <path id="DejaVuSans-4e" d="M 628 4666 
L 1478 4666 
L 3547 763 
L 3547 4666 
L 4159 4666 
L 4159 0 
L 3309 0 
L 1241 3903 
L 1241 0 
L 628 0 
L 628 4666 
z
" transform="scale(0.015625)"/>
        <path id="DejaVuSans-2d" d="M 313 2009 
L 1997 2009 
L 1997 1497 
L 313 1497 
L 313 2009 
z
" transform="scale(0.015625)"/>
       </defs>
       <use xlink:href="#DejaVuSans-4e"/>
       <use xlink:href="#DejaVuSans-2d" x="74.804688"/>
       <use xlink:href="#DejaVuSans-45" x="110.888672"/>
      </g>
     </g>
    </g>
    <g id="xtick_3">
     <g id="line2d_3">
      <path d="M 256.54375 271.557187 
L 256.54375 41.157187 
" clip-path="url(#p3586e3a957)" style="fill: none; stroke: #b0b0b0; stroke-width: 0.8; stroke-linecap: square"/>
     </g>
     <g id="text_3">
      <!-- N -->
      <g transform="translate(252.803125 29.916562) scale(0.1 -0.1)">
       <use xlink:href="#DejaVuSans-4e"/>
      </g>
     </g>
    </g>
    <g id="xtick_4">
     <g id="line2d_4">
      <path d="M 256.54375 271.557187 
L 93.626348 108.639785 
" clip-path="url(#p3586e3a957)" style="fill: none; stroke: #b0b0b0; stroke-width: 0.8; stroke-linecap: square"/>
     </g>
     <g id="text_4">
      <!-- N-W -->
      <g transform="translate(73.438571 101.499665) scale(0.1 -0.1)">
       <defs>
        <path id="DejaVuSans-57" d="M 213 4666 
L 850 4666 
L 1831 722 
L 2809 4666 
L 3519 4666 
L 4500 722 
L 5478 4666 
L 6119 4666 
L 4947 0 
L 4153 0 
L 3169 4050 
L 2175 0 
L 1381 0 
L 213 4666 
z
" transform="scale(0.015625)"/>
       </defs>
       <use xlink:href="#DejaVuSans-4e"/>
       <use xlink:href="#DejaVuSans-2d" x="74.804688"/>
       <use xlink:href="#DejaVuSans-57" x="106.888672"/>
      </g>
     </g>
    </g>
    <g id="xtick_5">
     <g id="line2d_5">
      <path d="M 256.54375 271.557187 
L 26.14375 271.557187 
" clip-path="url(#p3586e3a957)" style="fill: none; stroke: #b0b0b0; stroke-width: 0.8; stroke-linecap: square"/>
     </g>
     <g id="text_5">
      <!-- W -->
      <g transform="translate(7.2 274.316562) scale(0.1 -0.1)">
       <use xlink:href="#DejaVuSans-57"/>
      </g>
     </g>
    </g>
    <g id="xtick_6">
     <g id="line2d_6">
      <path d="M 256.54375 271.557187 
L 93.626348 434.47459 
" clip-path="url(#p3586e3a957)" style="fill: none; stroke: #b0b0b0; stroke-width: 0.8; stroke-linecap: square"/>
     </g>
     <g id="text_6">
      <!-- S-W -->
      <g transform="translate(74.004978 447.13346) scale(0.1 -0.1)">
       <defs>
        <path id="DejaVuSans-53" d="M 3425 4513 
L 3425 3897 
Q 3066 4069 2747 4153 
Q 2428 4238 2131 4238 
Q 1616 4238 1336 4038 
Q 1056 3838 1056 3469 
Q 1056 3159 1242 3001 
Q 1428 2844 1947 2747 
L 2328 2669 
Q 3034 2534 3370 2195 
Q 3706 1856 3706 1288 
Q 3706 609 3251 259 
Q 2797 -91 1919 -91 
Q 1588 -91 1214 -16 
Q 841 59 441 206 
L 441 856 
Q 825 641 1194 531 
Q 1563 422 1919 422 
Q 2459 422 2753 634 
Q 3047 847 3047 1241 
Q 3047 1584 2836 1778 
Q 2625 1972 2144 2069 
L 1759 2144 
Q 1053 2284 737 2584 
Q 422 2884 422 3419 
Q 422 4038 858 4394 
Q 1294 4750 2059 4750 
Q 2388 4750 2728 4690 
Q 3069 4631 3425 4513 
z
" transform="scale(0.015625)"/>
       </defs>
       <use xlink:href="#DejaVuSans-53"/>
       <use xlink:href="#DejaVuSans-2d" x="63.476562"/>
       <use xlink:href="#DejaVuSans-57" x="95.560547"/>
      </g>
     </g>
    </g>
    <g id="xtick_7">
     <g id="line2d_7">
      <path d="M 256.54375 271.557187 
L 256.54375 501.957187 
" clip-path="url(#p3586e3a957)" style="fill: none; stroke: #b0b0b0; stroke-width: 0.8; stroke-linecap: square"/>
     </g>
     <g id="text_7">
      <!-- S -->
      <g transform="translate(253.369531 518.716562) scale(0.1 -0.1)">
       <use xlink:href="#DejaVuSans-53"/>
      </g>
     </g>
    </g>
    <g id="xtick_8">
     <g id="line2d_8">
      <path d="M 256.54375 271.557187 
L 419.461152 434.47459 
" clip-path="url(#p3586e3a957)" style="fill: none; stroke: #b0b0b0; stroke-width: 0.8; stroke-linecap: square"/>
     </g>
     <g id="text_8">
      <!-- S-E -->
      <g transform="translate(421.223147 447.13346) scale(0.1 -0.1)">
       <use xlink:href="#DejaVuSans-53"/>
       <use xlink:href="#DejaVuSans-2d" x="63.476562"/>
       <use xlink:href="#DejaVuSans-45" x="99.560547"/>
      </g>
     </g>
    </g>
   </g>
   <g id="matplotlib.axis_2">
    <g id="ytick_1">
     <g id="line2d_9">
      <path d="M 302.62375 271.557187 
C 302.62375 265.506017 301.431801 259.513687 299.116119 253.923135 
C 296.800436 248.332583 293.406054 243.25253 289.12723 238.973707 
C 284.848407 234.694884 279.768355 231.300501 274.177803 228.984819 
C 268.58725 226.669136 262.59492 225.477187 256.54375 225.477187 
C 250.49258 225.477187 244.50025 226.669136 238.909697 228.984819 
C 233.319145 231.300501 228.239093 234.694884 223.96027 238.973707 
C 219.681446 243.25253 216.287064 248.332583 213.971381 253.923135 
C 211.655699 259.513687 210.46375 265.506017 210.46375 271.557187 
C 210.46375 277.608358 211.655699 283.600688 213.971381 289.19124 
C 216.287064 294.781792 219.681446 299.861845 223.96027 304.140668 
C 228.239093 308.419491 233.319145 311.813874 238.909697 314.129556 
C 244.50025 316.445239 250.49258 317.637187 256.54375 317.637187 
C 262.59492 317.637187 268.58725 316.445239 274.177803 314.129556 
C 279.768355 311.813874 284.848407 308.419491 289.12723 304.140668 
C 293.406054 299.861845 296.800436 294.781792 299.116119 289.19124 
C 301.431801 283.600688 302.62375 277.608358 302.62375 271.557187 
" clip-path="url(#p3586e3a957)" style="fill: none; stroke: #b0b0b0; stroke-width: 0.8; stroke-linecap: square"/>
     </g>
     <g id="text_9">
      <!-- 62.4 -->
      <g transform="translate(274.177803 226.905131) scale(0.1 -0.1)">
       <defs>
        <path id="DejaVuSans-36" d="M 2113 2584 
Q 1688 2584 1439 2293 
Q 1191 2003 1191 1497 
Q 1191 994 1439 701 
Q 1688 409 2113 409 
Q 2538 409 2786 701 
Q 3034 994 3034 1497 
Q 3034 2003 2786 2293 
Q 2538 2584 2113 2584 
z
M 3366 4563 
L 3366 3988 
Q 3128 4100 2886 4159 
Q 2644 4219 2406 4219 
Q 1781 4219 1451 3797 
Q 1122 3375 1075 2522 
Q 1259 2794 1537 2939 
Q 1816 3084 2150 3084 
Q 2853 3084 3261 2657 
Q 3669 2231 3669 1497 
Q 3669 778 3244 343 
Q 2819 -91 2113 -91 
Q 1303 -91 875 529 
Q 447 1150 447 2328 
Q 447 3434 972 4092 
Q 1497 4750 2381 4750 
Q 2619 4750 2861 4703 
Q 3103 4656 3366 4563 
z
" transform="scale(0.015625)"/>
        <path id="DejaVuSans-32" d="M 1228 531 
L 3431 531 
L 3431 0 
L 469 0 
L 469 531 
Q 828 903 1448 1529 
Q 2069 2156 2228 2338 
Q 2531 2678 2651 2914 
Q 2772 3150 2772 3378 
Q 2772 3750 2511 3984 
Q 2250 4219 1831 4219 
Q 1534 4219 1204 4116 
Q 875 4013 500 3803 
L 500 4441 
Q 881 4594 1212 4672 
Q 1544 4750 1819 4750 
Q 2544 4750 2975 4387 
Q 3406 4025 3406 3419 
Q 3406 3131 3298 2873 
Q 3191 2616 2906 2266 
Q 2828 2175 2409 1742 
Q 1991 1309 1228 531 
z
" transform="scale(0.015625)"/>
        <path id="DejaVuSans-2e" d="M 684 794 
L 1344 794 
L 1344 0 
L 684 0 
L 684 794 
z
" transform="scale(0.015625)"/>
        <path id="DejaVuSans-34" d="M 2419 4116 
L 825 1625 
L 2419 1625 
L 2419 4116 
z
M 2253 4666 
L 3047 4666 
L 3047 1625 
L 3713 1625 
L 3713 1100 
L 3047 1100 
L 3047 0 
L 2419 0 
L 2419 1100 
L 313 1100 
L 313 1709 
L 2253 4666 
z
" transform="scale(0.015625)"/>
       </defs>
       <use xlink:href="#DejaVuSans-36"/>
       <use xlink:href="#DejaVuSans-32" x="63.623047"/>
       <use xlink:href="#DejaVuSans-2e" x="127.246094"/>
       <use xlink:href="#DejaVuSans-34" x="159.033203"/>
      </g>
     </g>
    </g>
    <g id="ytick_2">
     <g id="line2d_10">
      <path d="M 348.70375 271.557187 
C 348.70375 259.454847 346.319853 247.470187 341.688488 236.289082 
C 337.057123 225.107978 330.268358 214.947873 321.710711 206.390227 
C 313.153064 197.83258 302.99296 191.043815 291.811855 186.41245 
C 280.630751 181.781085 268.64609 179.397187 256.54375 179.397187 
C 244.44141 179.397187 232.456749 181.781085 221.275645 186.41245 
C 210.09454 191.043815 199.934436 197.83258 191.376789 206.390227 
C 182.819142 214.947873 176.030377 225.107978 171.399012 236.289082 
C 166.767647 247.470187 164.38375 259.454847 164.38375 271.557187 
C 164.38375 283.659528 166.767647 295.644188 171.399012 306.825293 
C 176.030377 318.006397 182.819142 328.166502 191.376789 336.724148 
C 199.934436 345.281795 210.09454 352.07056 221.275645 356.701925 
C 232.456749 361.33329 244.44141 363.717187 256.54375 363.717187 
C 268.64609 363.717187 280.630751 361.33329 291.811855 356.701925 
C 302.99296 352.07056 313.153064 345.281795 321.710711 336.724148 
C 330.268358 328.166502 337.057123 318.006397 341.688488 306.825293 
C 346.319853 295.644188 348.70375 283.659528 348.70375 271.557187 
" clip-path="url(#p3586e3a957)" style="fill: none; stroke: #b0b0b0; stroke-width: 0.8; stroke-linecap: square"/>
     </g>
     <g id="text_10">
      <!-- 124.8 -->
      <g transform="translate(291.811855 184.332762) scale(0.1 -0.1)">
       <defs>
        <path id="DejaVuSans-31" d="M 794 531 
L 1825 531 
L 1825 4091 
L 703 3866 
L 703 4441 
L 1819 4666 
L 2450 4666 
L 2450 531 
L 3481 531 
L 3481 0 
L 794 0 
L 794 531 
z
" transform="scale(0.015625)"/>
        <path id="DejaVuSans-38" d="M 2034 2216 
Q 1584 2216 1326 1975 
Q 1069 1734 1069 1313 
Q 1069 891 1326 650 
Q 1584 409 2034 409 
Q 2484 409 2743 651 
Q 3003 894 3003 1313 
Q 3003 1734 2745 1975 
Q 2488 2216 2034 2216 
z
M 1403 2484 
Q 997 2584 770 2862 
Q 544 3141 544 3541 
Q 544 4100 942 4425 
Q 1341 4750 2034 4750 
Q 2731 4750 3128 4425 
Q 3525 4100 3525 3541 
Q 3525 3141 3298 2862 
Q 3072 2584 2669 2484 
Q 3125 2378 3379 2068 
Q 3634 1759 3634 1313 
Q 3634 634 3220 271 
Q 2806 -91 2034 -91 
Q 1263 -91 848 271 
Q 434 634 434 1313 
Q 434 1759 690 2068 
Q 947 2378 1403 2484 
z
M 1172 3481 
Q 1172 3119 1398 2916 
Q 1625 2713 2034 2713 
Q 2441 2713 2670 2916 
Q 2900 3119 2900 3481 
Q 2900 3844 2670 4047 
Q 2441 4250 2034 4250 
Q 1625 4250 1398 4047 
Q 1172 3844 1172 3481 
z
" transform="scale(0.015625)"/>
       </defs>
       <use xlink:href="#DejaVuSans-31"/>
       <use xlink:href="#DejaVuSans-32" x="63.623047"/>
       <use xlink:href="#DejaVuSans-34" x="127.246094"/>
       <use xlink:href="#DejaVuSans-2e" x="190.869141"/>
       <use xlink:href="#DejaVuSans-38" x="222.65625"/>
      </g>
     </g>
    </g>
    <g id="ytick_3">
     <g id="line2d_11">
      <path d="M 394.78375 271.557187 
C 394.78375 253.403677 391.207904 235.426687 384.260857 218.65503 
C 377.313809 201.883373 367.130662 186.643216 354.294191 173.806746 
C 341.457721 160.970276 326.217564 150.787129 309.445908 143.840081 
C 292.674251 136.893033 274.69726 133.317187 256.54375 133.317187 
C 238.39024 133.317187 220.413249 136.893033 203.641592 143.840081 
C 186.869936 150.787129 171.629779 160.970276 158.793309 173.806746 
C 145.956838 186.643216 135.773691 201.883373 128.826643 218.65503 
C 121.879596 235.426687 118.30375 253.403677 118.30375 271.557187 
C 118.30375 289.710698 121.879596 307.687688 128.826643 324.459345 
C 135.773691 341.231002 145.956838 356.471159 158.793309 369.307629 
C 171.629779 382.144099 186.869936 392.327246 203.641592 399.274294 
C 220.413249 406.221342 238.39024 409.797187 256.54375 409.797187 
C 274.69726 409.797187 292.674251 406.221342 309.445908 399.274294 
C 326.217564 392.327246 341.457721 382.144099 354.294191 369.307629 
C 367.130662 356.471159 377.313809 341.231002 384.260857 324.459345 
C 391.207904 307.687688 394.78375 289.710698 394.78375 271.557187 
" clip-path="url(#p3586e3a957)" style="fill: none; stroke: #b0b0b0; stroke-width: 0.8; stroke-linecap: square"/>
     </g>
     <g id="text_11">
      <!-- 187.2 -->
      <g transform="translate(309.445908 141.760393) scale(0.1 -0.1)">
       <defs>
        <path id="DejaVuSans-37" d="M 525 4666 
L 3525 4666 
L 3525 4397 
L 1831 0 
L 1172 0 
L 2766 4134 
L 525 4134 
L 525 4666 
z
" transform="scale(0.015625)"/>
       </defs>
       <use xlink:href="#DejaVuSans-31"/>
       <use xlink:href="#DejaVuSans-38" x="63.623047"/>
       <use xlink:href="#DejaVuSans-37" x="127.246094"/>
       <use xlink:href="#DejaVuSans-2e" x="190.869141"/>
       <use xlink:href="#DejaVuSans-32" x="222.65625"/>
      </g>
     </g>
    </g>
    <g id="ytick_4">
     <g id="line2d_12">
      <path d="M 440.86375 271.557187 
C 440.86375 247.352507 436.095956 223.383186 426.833225 201.020977 
C 417.570495 178.658768 403.992966 158.338559 386.877672 141.223266 
C 369.762378 124.107972 349.442169 110.530442 327.07996 101.267712 
C 304.717751 92.004982 280.748431 87.237187 256.54375 87.237187 
C 232.339069 87.237187 208.369749 92.004982 186.00754 101.267712 
C 163.645331 110.530442 143.325122 124.107972 126.209828 141.223266 
C 109.094534 158.338559 95.517005 178.658768 86.254275 201.020977 
C 76.991544 223.383186 72.22375 247.352507 72.22375 271.557187 
C 72.22375 295.761868 76.991544 319.731189 86.254275 342.093398 
C 95.517005 364.455607 109.094534 384.775816 126.209828 401.891109 
C 143.325122 419.006403 163.645331 432.583933 186.00754 441.846663 
C 208.369749 451.109393 232.339069 455.877187 256.54375 455.877187 
C 280.748431 455.877187 304.717751 451.109393 327.07996 441.846663 
C 349.442169 432.583933 369.762378 419.006403 386.877672 401.891109 
C 403.992966 384.775816 417.570495 364.455607 426.833225 342.093398 
C 436.095956 319.731189 440.86375 295.761868 440.86375 271.557187 
" clip-path="url(#p3586e3a957)" style="fill: none; stroke: #b0b0b0; stroke-width: 0.8; stroke-linecap: square"/>
     </g>
     <g id="text_12">
      <!-- 249.6 -->
      <g transform="translate(327.07996 99.188025) scale(0.1 -0.1)">
       <defs>
        <path id="DejaVuSans-39" d="M 703 97 
L 703 672 
Q 941 559 1184 500 
Q 1428 441 1663 441 
Q 2288 441 2617 861 
Q 2947 1281 2994 2138 
Q 2813 1869 2534 1725 
Q 2256 1581 1919 1581 
Q 1219 1581 811 2004 
Q 403 2428 403 3163 
Q 403 3881 828 4315 
Q 1253 4750 1959 4750 
Q 2769 4750 3195 4129 
Q 3622 3509 3622 2328 
Q 3622 1225 3098 567 
Q 2575 -91 1691 -91 
Q 1453 -91 1209 -44 
Q 966 3 703 97 
z
M 1959 2075 
Q 2384 2075 2632 2365 
Q 2881 2656 2881 3163 
Q 2881 3666 2632 3958 
Q 2384 4250 1959 4250 
Q 1534 4250 1286 3958 
Q 1038 3666 1038 3163 
Q 1038 2656 1286 2365 
Q 1534 2075 1959 2075 
z
" transform="scale(0.015625)"/>
       </defs>
       <use xlink:href="#DejaVuSans-32"/>
       <use xlink:href="#DejaVuSans-34" x="63.623047"/>
       <use xlink:href="#DejaVuSans-39" x="127.246094"/>
       <use xlink:href="#DejaVuSans-2e" x="190.869141"/>
       <use xlink:href="#DejaVuSans-36" x="222.65625"/>
      </g>
     </g>
    </g>
    <g id="ytick_5">
     <g id="line2d_13">
      <path d="M 486.94375 271.557187 
C 486.94375 241.301337 480.984007 211.339686 469.405594 183.386925 
C 457.827181 155.434163 440.85527 130.033902 419.461152 108.639785 
C 398.067035 87.245668 372.666774 70.273756 344.714013 58.695343 
C 316.761252 47.11693 286.799601 41.157187 256.54375 41.157187 
C 226.287899 41.157187 196.326248 47.11693 168.373487 58.695343 
C 140.420726 70.273756 115.020465 87.245668 93.626348 108.639785 
C 72.23223 130.033902 55.260319 155.434163 43.681906 183.386925 
C 32.103493 211.339686 26.14375 241.301337 26.14375 271.557187 
C 26.14375 301.813038 32.103493 331.774689 43.681906 359.72745 
C 55.260319 387.680212 72.23223 413.080473 93.626348 434.47459 
C 115.020465 455.868707 140.420726 472.840619 168.373487 484.419032 
C 196.326248 495.997445 226.287899 501.957187 256.54375 501.957187 
C 286.799601 501.957187 316.761252 495.997445 344.714013 484.419032 
C 372.666774 472.840619 398.067035 455.868707 419.461152 434.47459 
C 440.85527 413.080473 457.827181 387.680212 469.405594 359.72745 
C 480.984007 331.774689 486.94375 301.813038 486.94375 271.557187 
" clip-path="url(#p3586e3a957)" style="fill: none; stroke: #b0b0b0; stroke-width: 0.8; stroke-linecap: square"/>
     </g>
     <g id="text_13">
      <!-- 312.0 -->
      <g transform="translate(344.714013 56.615656) scale(0.1 -0.1)">
       <defs>
        <path id="DejaVuSans-33" d="M 2597 2516 
Q 3050 2419 3304 2112 
Q 3559 1806 3559 1356 
Q 3559 666 3084 287 
Q 2609 -91 1734 -91 
Q 1441 -91 1130 -33 
Q 819 25 488 141 
L 488 750 
Q 750 597 1062 519 
Q 1375 441 1716 441 
Q 2309 441 2620 675 
Q 2931 909 2931 1356 
Q 2931 1769 2642 2001 
Q 2353 2234 1838 2234 
L 1294 2234 
L 1294 2753 
L 1863 2753 
Q 2328 2753 2575 2939 
Q 2822 3125 2822 3475 
Q 2822 3834 2567 4026 
Q 2313 4219 1838 4219 
Q 1578 4219 1281 4162 
Q 984 4106 628 3988 
L 628 4550 
Q 988 4650 1302 4700 
Q 1616 4750 1894 4750 
Q 2613 4750 3031 4423 
Q 3450 4097 3450 3541 
Q 3450 3153 3228 2886 
Q 3006 2619 2597 2516 
z
" transform="scale(0.015625)"/>
        <path id="DejaVuSans-30" d="M 2034 4250 
Q 1547 4250 1301 3770 
Q 1056 3291 1056 2328 
Q 1056 1369 1301 889 
Q 1547 409 2034 409 
Q 2525 409 2770 889 
Q 3016 1369 3016 2328 
Q 3016 3291 2770 3770 
Q 2525 4250 2034 4250 
z
M 2034 4750 
Q 2819 4750 3233 4129 
Q 3647 3509 3647 2328 
Q 3647 1150 3233 529 
Q 2819 -91 2034 -91 
Q 1250 -91 836 529 
Q 422 1150 422 2328 
Q 422 3509 836 4129 
Q 1250 4750 2034 4750 
z
" transform="scale(0.015625)"/>
       </defs>
       <use xlink:href="#DejaVuSans-33"/>
       <use xlink:href="#DejaVuSans-31" x="63.623047"/>
       <use xlink:href="#DejaVuSans-32" x="127.246094"/>
       <use xlink:href="#DejaVuSans-2e" x="190.869141"/>
       <use xlink:href="#DejaVuSans-30" x="222.65625"/>
      </g>
     </g>
    </g>
   </g>
   <g id="patch_83">
    <path d="M 486.94375 271.557187 
C 486.94375 241.301337 480.984007 211.339686 469.405594 183.386925 
C 457.827181 155.434163 440.85527 130.033902 419.461152 108.639785 
C 398.067035 87.245668 372.666774 70.273756 344.714013 58.695343 
C 316.761252 47.11693 286.799601 41.157187 256.54375 41.157187 
C 226.287899 41.157187 196.326248 47.11693 168.373487 58.695343 
C 140.420726 70.273756 115.020465 87.245668 93.626348 108.639785 
C 72.23223 130.033902 55.260319 155.434163 43.681906 183.386925 
C 32.103493 211.339686 26.14375 241.301337 26.14375 271.557187 
C 26.14375 301.813038 32.103493 331.774689 43.681906 359.72745 
C 55.260319 387.680212 72.23223 413.080473 93.626348 434.47459 
C 115.020465 455.868707 140.420726 472.840619 168.373487 484.419032 
C 196.326248 495.997445 226.287899 501.957187 256.54375 501.957187 
C 286.799601 501.957187 316.761252 495.997445 344.714013 484.419032 
C 372.666774 472.840619 398.067035 455.868707 419.461152 434.47459 
C 440.85527 413.080473 457.827181 387.680212 469.405594 359.72745 
C 480.984007 331.774689 486.94375 301.813038 486.94375 271.557187 
" style="fill: none; stroke: #000000; stroke-width: 0.8; stroke-linejoin: miter; stroke-linecap: square"/>
   </g>
   <g id="text_14">
    <!-- 10m height LE -->
    <g transform="translate(212.99125 16.318125) scale(0.12 -0.12)">
     <defs>
      <path id="DejaVuSans-6d" d="M 3328 2828 
Q 3544 3216 3844 3400 
Q 4144 3584 4550 3584 
Q 5097 3584 5394 3201 
Q 5691 2819 5691 2113 
L 5691 0 
L 5113 0 
L 5113 2094 
Q 5113 2597 4934 2840 
Q 4756 3084 4391 3084 
Q 3944 3084 3684 2787 
Q 3425 2491 3425 1978 
L 3425 0 
L 2847 0 
L 2847 2094 
Q 2847 2600 2669 2842 
Q 2491 3084 2119 3084 
Q 1678 3084 1418 2786 
Q 1159 2488 1159 1978 
L 1159 0 
L 581 0 
L 581 3500 
L 1159 3500 
L 1159 2956 
Q 1356 3278 1631 3431 
Q 1906 3584 2284 3584 
Q 2666 3584 2933 3390 
Q 3200 3197 3328 2828 
z
" transform="scale(0.015625)"/>
      <path id="DejaVuSans-20" transform="scale(0.015625)"/>
      <path id="DejaVuSans-68" d="M 3513 2113 
L 3513 0 
L 2938 0 
L 2938 2094 
Q 2938 2591 2744 2837 
Q 2550 3084 2163 3084 
Q 1697 3084 1428 2787 
Q 1159 2491 1159 1978 
L 1159 0 
L 581 0 
L 581 4863 
L 1159 4863 
L 1159 2956 
Q 1366 3272 1645 3428 
Q 1925 3584 2291 3584 
Q 2894 3584 3203 3211 
Q 3513 2838 3513 2113 
z
" transform="scale(0.015625)"/>
      <path id="DejaVuSans-65" d="M 3597 1894 
L 3597 1613 
L 953 1613 
Q 991 1019 1311 708 
Q 1631 397 2203 397 
Q 2534 397 2845 478 
Q 3156 559 3463 722 
L 3463 178 
Q 3153 47 2828 -22 
Q 2503 -91 2169 -91 
Q 1331 -91 842 396 
Q 353 884 353 1716 
Q 353 2575 817 3079 
Q 1281 3584 2069 3584 
Q 2775 3584 3186 3129 
Q 3597 2675 3597 1894 
z
M 3022 2063 
Q 3016 2534 2758 2815 
Q 2500 3097 2075 3097 
Q 1594 3097 1305 2825 
Q 1016 2553 972 2059 
L 3022 2063 
z
" transform="scale(0.015625)"/>
      <path id="DejaVuSans-69" d="M 603 3500 
L 1178 3500 
L 1178 0 
L 603 0 
L 603 3500 
z
M 603 4863 
L 1178 4863 
L 1178 4134 
L 603 4134 
L 603 4863 
z
" transform="scale(0.015625)"/>
      <path id="DejaVuSans-67" d="M 2906 1791 
Q 2906 2416 2648 2759 
Q 2391 3103 1925 3103 
Q 1463 3103 1205 2759 
Q 947 2416 947 1791 
Q 947 1169 1205 825 
Q 1463 481 1925 481 
Q 2391 481 2648 825 
Q 2906 1169 2906 1791 
z
M 3481 434 
Q 3481 -459 3084 -895 
Q 2688 -1331 1869 -1331 
Q 1566 -1331 1297 -1286 
Q 1028 -1241 775 -1147 
L 775 -588 
Q 1028 -725 1275 -790 
Q 1522 -856 1778 -856 
Q 2344 -856 2625 -561 
Q 2906 -266 2906 331 
L 2906 616 
Q 2728 306 2450 153 
Q 2172 0 1784 0 
Q 1141 0 747 490 
Q 353 981 353 1791 
Q 353 2603 747 3093 
Q 1141 3584 1784 3584 
Q 2172 3584 2450 3431 
Q 2728 3278 2906 2969 
L 2906 3500 
L 3481 3500 
L 3481 434 
z
" transform="scale(0.015625)"/>
      <path id="DejaVuSans-74" d="M 1172 4494 
L 1172 3500 
L 2356 3500 
L 2356 3053 
L 1172 3053 
L 1172 1153 
Q 1172 725 1289 603 
Q 1406 481 1766 481 
L 2356 481 
L 2356 0 
L 1766 0 
Q 1100 0 847 248 
Q 594 497 594 1153 
L 594 3053 
L 172 3053 
L 172 3500 
L 594 3500 
L 594 4494 
L 1172 4494 
z
" transform="scale(0.015625)"/>
      <path id="DejaVuSans-4c" d="M 628 4666 
L 1259 4666 
L 1259 531 
L 3531 531 
L 3531 0 
L 628 0 
L 628 4666 
z
" transform="scale(0.015625)"/>
     </defs>
     <use xlink:href="#DejaVuSans-31"/>
     <use xlink:href="#DejaVuSans-30" x="63.623047"/>
     <use xlink:href="#DejaVuSans-6d" x="127.246094"/>
     <use xlink:href="#DejaVuSans-20" x="224.658203"/>
     <use xlink:href="#DejaVuSans-68" x="256.445312"/>
     <use xlink:href="#DejaVuSans-65" x="319.824219"/>
     <use xlink:href="#DejaVuSans-69" x="381.347656"/>
     <use xlink:href="#DejaVuSans-67" x="409.130859"/>
     <use xlink:href="#DejaVuSans-68" x="472.607422"/>
     <use xlink:href="#DejaVuSans-74" x="535.986328"/>
     <use xlink:href="#DejaVuSans-20" x="575.195312"/>
     <use xlink:href="#DejaVuSans-4c" x="606.982422"/>
     <use xlink:href="#DejaVuSans-45" x="662.695312"/>
    </g>
   </g>
   <g id="legend_1">
    <g id="patch_84">
     <path d="M 361.11625 173.475937 
L 484.94375 173.475937 
Q 488.94375 173.475937 488.94375 169.475937 
L 488.94375 43.157187 
Q 488.94375 39.157187 484.94375 39.157187 
L 361.11625 39.157187 
Q 357.11625 39.157187 357.11625 43.157187 
L 357.11625 169.475937 
Q 357.11625 173.475937 361.11625 173.475937 
z
" style="fill: #ffffff; opacity: 0.8; stroke: #cccccc; stroke-linejoin: miter"/>
    </g>
    <g id="patch_85">
     <path d="M 365.11625 61.157187 
L 405.11625 61.157187 
L 405.11625 47.157187 
L 365.11625 47.157187 
z
" style="fill: #440154; stroke: #000000; stroke-linejoin: miter"/>
    </g>
    <g id="text_15">
     <!-- [0.0 : 50.0) -->
     <g transform="translate(421.11625 61.157187) scale(0.08 -0.08)">
      <defs>
       <path id="DejaVuSans-5b" d="M 550 4863 
L 1875 4863 
L 1875 4416 
L 1125 4416 
L 1125 -397 
L 1875 -397 
L 1875 -844 
L 550 -844 
L 550 4863 
z
" transform="scale(0.015625)"/>
       <path id="DejaVuSans-3a" d="M 750 794 
L 1409 794 
L 1409 0 
L 750 0 
L 750 794 
z
M 750 3309 
L 1409 3309 
L 1409 2516 
L 750 2516 
L 750 3309 
z
" transform="scale(0.015625)"/>
       <path id="DejaVuSans-35" d="M 691 4666 
L 3169 4666 
L 3169 4134 
L 1269 4134 
L 1269 2991 
Q 1406 3038 1543 3061 
Q 1681 3084 1819 3084 
Q 2600 3084 3056 2656 
Q 3513 2228 3513 1497 
Q 3513 744 3044 326 
Q 2575 -91 1722 -91 
Q 1428 -91 1123 -41 
Q 819 9 494 109 
L 494 744 
Q 775 591 1075 516 
Q 1375 441 1709 441 
Q 2250 441 2565 725 
Q 2881 1009 2881 1497 
Q 2881 1984 2565 2268 
Q 2250 2553 1709 2553 
Q 1456 2553 1204 2497 
Q 953 2441 691 2322 
L 691 4666 
z
" transform="scale(0.015625)"/>
       <path id="DejaVuSans-29" d="M 513 4856 
L 1013 4856 
Q 1481 4119 1714 3412 
Q 1947 2706 1947 2009 
Q 1947 1309 1714 600 
Q 1481 -109 1013 -844 
L 513 -844 
Q 928 -128 1133 580 
Q 1338 1288 1338 2009 
Q 1338 2731 1133 3434 
Q 928 4138 513 4856 
z
" transform="scale(0.015625)"/>
      </defs>
      <use xlink:href="#DejaVuSans-5b"/>
      <use xlink:href="#DejaVuSans-30" x="39.013672"/>
      <use xlink:href="#DejaVuSans-2e" x="102.636719"/>
      <use xlink:href="#DejaVuSans-30" x="134.423828"/>
      <use xlink:href="#DejaVuSans-20" x="198.046875"/>
      <use xlink:href="#DejaVuSans-3a" x="229.833984"/>
      <use xlink:href="#DejaVuSans-20" x="263.525391"/>
      <use xlink:href="#DejaVuSans-35" x="295.3125"/>
      <use xlink:href="#DejaVuSans-30" x="358.935547"/>
      <use xlink:href="#DejaVuSans-2e" x="422.558594"/>
      <use xlink:href="#DejaVuSans-30" x="454.345703"/>
      <use xlink:href="#DejaVuSans-29" x="517.96875"/>
     </g>
    </g>
    <g id="patch_86">
     <path d="M 365.11625 86.820937 
L 405.11625 86.820937 
L 405.11625 72.820937 
L 365.11625 72.820937 
z
" style="fill: #3b528b; stroke: #000000; stroke-linejoin: miter"/>
    </g>
    <g id="text_16">
     <!-- [50.0 : 100.0) -->
     <g transform="translate(421.11625 86.820937) scale(0.08 -0.08)">
      <use xlink:href="#DejaVuSans-5b"/>
      <use xlink:href="#DejaVuSans-35" x="39.013672"/>
      <use xlink:href="#DejaVuSans-30" x="102.636719"/>
      <use xlink:href="#DejaVuSans-2e" x="166.259766"/>
      <use xlink:href="#DejaVuSans-30" x="198.046875"/>
      <use xlink:href="#DejaVuSans-20" x="261.669922"/>
      <use xlink:href="#DejaVuSans-3a" x="293.457031"/>
      <use xlink:href="#DejaVuSans-20" x="327.148438"/>
      <use xlink:href="#DejaVuSans-31" x="358.935547"/>
      <use xlink:href="#DejaVuSans-30" x="422.558594"/>
      <use xlink:href="#DejaVuSans-30" x="486.181641"/>
      <use xlink:href="#DejaVuSans-2e" x="549.804688"/>
      <use xlink:href="#DejaVuSans-30" x="581.591797"/>
      <use xlink:href="#DejaVuSans-29" x="645.214844"/>
     </g>
    </g>
    <g id="patch_87">
     <path d="M 365.11625 112.484687 
L 405.11625 112.484687 
L 405.11625 98.484687 
L 365.11625 98.484687 
z
" style="fill: #21918c; stroke: #000000; stroke-linejoin: miter"/>
    </g>
    <g id="text_17">
     <!-- [100.0 : 200.0) -->
     <g transform="translate(421.11625 112.484687) scale(0.08 -0.08)">
      <use xlink:href="#DejaVuSans-5b"/>
      <use xlink:href="#DejaVuSans-31" x="39.013672"/>
      <use xlink:href="#DejaVuSans-30" x="102.636719"/>
      <use xlink:href="#DejaVuSans-30" x="166.259766"/>
      <use xlink:href="#DejaVuSans-2e" x="229.882812"/>
      <use xlink:href="#DejaVuSans-30" x="261.669922"/>
      <use xlink:href="#DejaVuSans-20" x="325.292969"/>
      <use xlink:href="#DejaVuSans-3a" x="357.080078"/>
      <use xlink:href="#DejaVuSans-20" x="390.771484"/>
      <use xlink:href="#DejaVuSans-32" x="422.558594"/>
      <use xlink:href="#DejaVuSans-30" x="486.181641"/>
      <use xlink:href="#DejaVuSans-30" x="549.804688"/>
      <use xlink:href="#DejaVuSans-2e" x="613.427734"/>
      <use xlink:href="#DejaVuSans-30" x="645.214844"/>
      <use xlink:href="#DejaVuSans-29" x="708.837891"/>
     </g>
    </g>
    <g id="patch_88">
     <path d="M 365.11625 138.148437 
L 405.11625 138.148437 
L 405.11625 124.148437 
L 365.11625 124.148437 
z
" style="fill: #5ec962; stroke: #000000; stroke-linejoin: miter"/>
    </g>
    <g id="text_18">
     <!-- [200.0 : 300.0) -->
     <g transform="translate(421.11625 138.148437) scale(0.08 -0.08)">
      <use xlink:href="#DejaVuSans-5b"/>
      <use xlink:href="#DejaVuSans-32" x="39.013672"/>
      <use xlink:href="#DejaVuSans-30" x="102.636719"/>
      <use xlink:href="#DejaVuSans-30" x="166.259766"/>
      <use xlink:href="#DejaVuSans-2e" x="229.882812"/>
      <use xlink:href="#DejaVuSans-30" x="261.669922"/>
      <use xlink:href="#DejaVuSans-20" x="325.292969"/>
      <use xlink:href="#DejaVuSans-3a" x="357.080078"/>
      <use xlink:href="#DejaVuSans-20" x="390.771484"/>
      <use xlink:href="#DejaVuSans-33" x="422.558594"/>
      <use xlink:href="#DejaVuSans-30" x="486.181641"/>
      <use xlink:href="#DejaVuSans-30" x="549.804688"/>
      <use xlink:href="#DejaVuSans-2e" x="613.427734"/>
      <use xlink:href="#DejaVuSans-30" x="645.214844"/>
      <use xlink:href="#DejaVuSans-29" x="708.837891"/>
     </g>
    </g>
    <g id="patch_89">
     <path d="M 365.11625 163.812187 
L 405.11625 163.812187 
L 405.11625 149.812187 
L 365.11625 149.812187 
z
" style="fill: #fde725; stroke: #000000; stroke-linejoin: miter"/>
    </g>
    <g id="text_19">
     <!-- &gt;300.0 -->
     <g transform="translate(421.11625 163.812187) scale(0.08 -0.08)">
      <defs>
       <path id="DejaVuSans-3e" d="M 678 3150 
L 678 3719 
L 4684 2266 
L 4684 1747 
L 678 294 
L 678 863 
L 3897 2003 
L 678 3150 
z
" transform="scale(0.015625)"/>
      </defs>
      <use xlink:href="#DejaVuSans-3e"/>
      <use xlink:href="#DejaVuSans-33" x="83.789062"/>
      <use xlink:href="#DejaVuSans-30" x="147.412109"/>
      <use xlink:href="#DejaVuSans-30" x="211.035156"/>
      <use xlink:href="#DejaVuSans-2e" x="274.658203"/>
      <use xlink:href="#DejaVuSans-30" x="306.445312"/>
     </g>
    </g>
   </g>
  </g>
 </g>
 <defs>
  <clipPath id="p3586e3a957">
   <path d="M 486.94375 271.557187 
C 486.94375 241.301337 480.984007 211.339686 469.405594 183.386925 
C 457.827181 155.434163 440.85527 130.033902 419.461152 108.639785 
C 398.067035 87.245668 372.666774 70.273756 344.714013 58.695343 
C 316.761252 47.11693 286.799601 41.157187 256.54375 41.157187 
C 226.287899 41.157187 196.326248 47.11693 168.373487 58.695343 
C 140.420726 70.273756 115.020465 87.245668 93.626348 108.639785 
C 72.23223 130.033902 55.260319 155.434163 43.681906 183.386925 
C 32.103493 211.339686 26.14375 241.301337 26.14375 271.557187 
C 26.14375 301.813038 32.103493 331.774689 43.681906 359.72745 
C 55.260319 387.680212 72.23223 413.080473 93.626348 434.47459 
C 115.020465 455.868707 140.420726 472.840619 168.373487 484.419032 
C 196.326248 495.997445 226.287899 501.957187 256.54375 501.957187 
C 286.799601 501.957187 316.761252 495.997445 344.714013 484.419032 
C 372.666774 472.840619 398.067035 455.868707 419.461152 434.47459 
C 440.85527 413.080473 457.827181 387.680212 469.405594 359.72745 
C 480.984007 331.774689 486.94375 301.813038 486.94375 271.557187 
M 256.54375 271.557187 
C 256.54375 271.557187 256.54375 271.557187 256.54375 271.557187 
C 256.54375 271.557187 256.54375 271.557187 256.54375 271.557187 
C 256.54375 271.557187 256.54375 271.557187 256.54375 271.557187 
C 256.54375 271.557187 256.54375 271.557187 256.54375 271.557187 
C 256.54375 271.557187 256.54375 271.557187 256.54375 271.557187 
C 256.54375 271.557187 256.54375 271.557187 256.54375 271.557187 
C 256.54375 271.557187 256.54375 271.557187 256.54375 271.557187 
C 256.54375 271.557187 256.54375 271.557187 256.54375 271.557187 
C 256.54375 271.557187 256.54375 271.557187 256.54375 271.557187 
C 256.54375 271.557187 256.54375 271.557187 256.54375 271.557187 
C 256.54375 271.557187 256.54375 271.557187 256.54375 271.557187 
C 256.54375 271.557187 256.54375 271.557187 256.54375 271.557187 
C 256.54375 271.557187 256.54375 271.557187 256.54375 271.557187 
C 256.54375 271.557187 256.54375 271.557187 256.54375 271.557187 
C 256.54375 271.557187 256.54375 271.557187 256.54375 271.557187 
C 256.54375 271.557187 256.54375 271.557187 256.54375 271.557187 
z
"/>
  </clipPath>
 </defs>
</svg>
