<?xml version="1.0" encoding="utf-8" standalone="no"?>
<!DOCTYPE svg PUBLIC "-//W3C//DTD SVG 1.1//EN"
  "http://www.w3.org/Graphics/SVG/1.1/DTD/svg11.dtd">
<svg xmlns:xlink="http://www.w3.org/1999/xlink" width="511.303125pt" height="527.99625pt" viewBox="0 0 511.303125 527.99625" xmlns="http://www.w3.org/2000/svg" version="1.1">
 <metadata>
  <rdf:RDF xmlns:dc="http://purl.org/dc/elements/1.1/" xmlns:cc="http://creativecommons.org/ns#" xmlns:rdf="http://www.w3.org/1999/02/22-rdf-syntax-ns#">
   <cc:Work>
    <dc:type rdf:resource="http://purl.org/dc/dcmitype/StillImage"/>
    <dc:date>2023-09-28T13:33:54.048175</dc:date>
    <dc:format>image/svg+xml</dc:format>
    <dc:creator>
     <cc:Agent>
      <dc:title>Matplotlib v3.5.2, https://matplotlib.org/</dc:title>
     </cc:Agent>
    </dc:creator>
   </cc:Work>
  </rdf:RDF>
 </metadata>
 <defs>
  <style type="text/css">*{stroke-linejoin: round; stroke-linecap: butt}</style>
 </defs>
 <g id="figure_1">
  <g id="patch_1">
   <path d="M 0 527.99625 
L 511.303125 527.99625 
L 511.303125 0 
L 0 0 
z
" style="fill: #ffffff"/>
  </g>
  <g id="axes_1">
   <g id="patch_2">
    <path d="M 486.94375 271.557187 
C 486.94375 241.301337 480.984007 211.339686 469.405594 183.386925 
C 457.827181 155.434163 440.85527 130.033902 419.461152 108.639785 
C 398.067035 87.245668 372.666774 70.273756 344.714013 58.695343 
C 316.761252 47.11693 286.799601 41.157187 256.54375 41.157187 
C 226.287899 41.157187 196.326248 47.11693 168.373487 58.695343 
C 140.420726 70.273756 115.020465 87.245668 93.626348 108.639785 
C 72.23223 130.033902 55.260319 155.434163 43.681906 183.386925 
C 32.103493 211.339686 26.14375 241.301337 26.14375 271.557187 
C 26.14375 301.813038 32.103493 331.774689 43.681906 359.72745 
C 55.260319 387.680212 72.23223 413.080473 93.626348 434.47459 
C 115.020465 455.868707 140.420726 472.840619 168.373487 484.419032 
C 196.326248 495.997445 226.287899 501.957187 256.54375 501.957187 
C 286.799601 501.957187 316.761252 495.997445 344.714013 484.419032 
C 372.666774 472.840619 398.067035 455.868707 419.461152 434.47459 
C 440.85527 413.080473 457.827181 387.680212 469.405594 359.72745 
C 480.984007 331.774689 486.94375 301.813038 486.94375 271.557187 
M 256.54375 271.557187 
C 256.54375 271.557187 256.54375 271.557187 256.54375 271.557187 
C 256.54375 271.557187 256.54375 271.557187 256.54375 271.557187 
C 256.54375 271.557187 256.54375 271.557187 256.54375 271.557187 
C 256.54375 271.557187 256.54375 271.557187 256.54375 271.557187 
C 256.54375 271.557187 256.54375 271.557187 256.54375 271.557187 
C 256.54375 271.557187 256.54375 271.557187 256.54375 271.557187 
C 256.54375 271.557187 256.54375 271.557187 256.54375 271.557187 
C 256.54375 271.557187 256.54375 271.557187 256.54375 271.557187 
C 256.54375 271.557187 256.54375 271.557187 256.54375 271.557187 
C 256.54375 271.557187 256.54375 271.557187 256.54375 271.557187 
C 256.54375 271.557187 256.54375 271.557187 256.54375 271.557187 
C 256.54375 271.557187 256.54375 271.557187 256.54375 271.557187 
C 256.54375 271.557187 256.54375 271.557187 256.54375 271.557187 
C 256.54375 271.557187 256.54375 271.557187 256.54375 271.557187 
C 256.54375 271.557187 256.54375 271.557187 256.54375 271.557187 
C 256.54375 271.557187 256.54375 271.557187 256.54375 271.557187 
M 486.94375 271.557187 
z
" style="fill: #ffffff"/>
   </g>
   <g id="patch_3">
    <path d="M 266.879573 219.595498 
C 263.475959 218.918477 260.014045 218.577508 256.54375 218.577508 
C 253.073455 218.577508 249.611541 218.918477 246.207927 219.595498 
L 246.207927 219.595498 
C 249.611541 218.918477 253.073455 218.577508 256.54375 218.577508 
C 260.014045 218.577508 263.475959 218.918477 266.879573 219.595498 
z
" clip-path="url(#p7d72a07890)" style="fill: #fde725; stroke: #ffffff; stroke-linejoin: miter"/>
   </g>
   <g id="patch_4">
    <path d="M 295.560824 213.16401 
C 291.735932 210.6083 287.669169 208.43457 283.419178 206.674165 
C 279.169186 204.913761 274.756491 203.575185 270.244724 202.677739 
L 270.244724 202.677739 
C 274.756491 203.575185 279.169186 204.913761 283.419178 206.674165 
C 287.669169 208.43457 291.735932 210.6083 295.560824 213.16401 
z
" clip-path="url(#p7d72a07890)" style="fill: #fde725; stroke: #ffffff; stroke-linejoin: miter"/>
   </g>
   <g id="patch_5">
    <path d="M 337.474645 217.480893 
C 333.932519 212.179727 329.878089 207.23939 325.369818 202.731119 
C 320.861548 198.222848 315.92121 194.168418 310.620045 190.626293 
L 310.620045 190.626293 
C 315.92121 194.168418 320.861548 198.222848 325.369818 202.731119 
C 329.878089 207.23939 333.932519 212.179727 337.474645 217.480893 
z
" clip-path="url(#p7d72a07890)" style="fill: #fde725; stroke: #ffffff; stroke-linejoin: miter"/>
   </g>
   <g id="patch_6">
    <path d="M 319.381142 259.058053 
C 318.562419 254.942055 317.341262 250.916439 315.735279 247.039253 
C 314.129296 243.162068 312.146244 239.452039 309.814719 235.962664 
L 309.814719 235.962664 
C 312.146244 239.452039 314.129296 243.162068 315.735279 247.039253 
C 317.341262 250.916439 318.562419 254.942055 319.381142 259.058053 
z
" clip-path="url(#p7d72a07890)" style="fill: #fde725; stroke: #ffffff; stroke-linejoin: miter"/>
   </g>
   <g id="patch_7">
    <path d="M 281.920389 276.604915 
C 282.251027 274.942685 282.417547 273.251983 282.417547 271.557187 
C 282.417547 269.862392 282.251027 268.17169 281.920389 266.50946 
L 281.920389 266.50946 
C 282.251027 268.17169 282.417547 269.862392 282.417547 271.557187 
C 282.417547 273.251983 282.251027 274.942685 281.920389 276.604915 
z
" clip-path="url(#p7d72a07890)" style="fill: #fde725; stroke: #ffffff; stroke-linejoin: miter"/>
   </g>
   <g id="patch_8">
    <path d="M 297.521418 298.93759 
C 299.314899 296.253456 300.840324 293.399587 302.075695 290.417137 
C 303.311067 287.434686 304.250418 284.338059 304.880205 281.171906 
L 304.880205 281.171906 
C 304.250418 284.338059 303.311067 287.434686 302.075695 290.417137 
C 300.840324 293.399587 299.314899 296.253456 297.521418 298.93759 
z
" clip-path="url(#p7d72a07890)" style="fill: #fde725; stroke: #ffffff; stroke-linejoin: miter"/>
   </g>
   <g id="patch_9">
    <path d="M 310.620045 352.488082 
C 315.92121 348.945957 320.861548 344.891527 325.369818 340.383256 
C 329.878089 335.874985 333.932519 330.934648 337.474645 325.633482 
L 337.474645 325.633482 
C 333.932519 330.934648 329.878089 335.874985 325.369818 340.383256 
C 320.861548 344.891527 315.92121 348.945957 310.620045 352.488082 
z
" clip-path="url(#p7d72a07890)" style="fill: #fde725; stroke: #ffffff; stroke-linejoin: miter"/>
   </g>
   <g id="patch_10">
    <path d="M 273.850244 358.562807 
C 279.549318 357.429191 285.123248 355.738358 290.491659 353.514689 
C 295.860069 351.291021 300.997033 348.545257 305.828475 345.31699 
L 305.828475 345.31699 
C 300.997033 348.545257 295.860069 351.291021 290.491659 353.514689 
C 285.123248 355.738358 279.549318 357.429191 273.850244 358.562807 
z
" clip-path="url(#p7d72a07890)" style="fill: #fde725; stroke: #ffffff; stroke-linejoin: miter"/>
   </g>
   <g id="patch_11">
    <path d="M 226.97849 420.191788 
C 236.714409 422.128382 246.617093 423.103712 256.54375 423.103712 
C 266.470407 423.103712 276.373091 422.128382 286.10901 420.191788 
L 286.10901 420.191788 
C 276.373091 422.128382 266.470407 423.103712 256.54375 423.103712 
C 246.617093 423.103712 236.714409 422.128382 226.97849 420.191788 
z
" clip-path="url(#p7d72a07890)" style="fill: #fde725; stroke: #ffffff; stroke-linejoin: miter"/>
   </g>
   <g id="patch_12">
    <path d="M 128.540368 463.127786 
C 141.088697 471.512311 154.430532 478.643671 168.373487 484.419032 
C 182.316443 490.194393 196.793177 494.585862 211.59494 497.530116 
L 211.59494 497.530116 
C 196.793177 494.585862 182.316443 490.194393 168.373487 484.419032 
C 154.430532 478.643671 141.088697 471.512311 128.540368 463.127786 
z
" clip-path="url(#p7d72a07890)" style="fill: #fde725; stroke: #ffffff; stroke-linejoin: miter"/>
   </g>
   <g id="patch_13">
    <path d="M 156.148463 338.639174 
C 160.542492 345.215303 165.572038 351.343823 171.164577 356.936361 
C 176.757115 362.528899 182.885635 367.558445 189.461764 371.952475 
L 189.461764 371.952475 
C 182.885635 367.558445 176.757115 362.528899 171.164577 356.936361 
C 165.572038 351.343823 160.542492 345.215303 156.148463 338.639174 
z
" clip-path="url(#p7d72a07890)" style="fill: #fde725; stroke: #ffffff; stroke-linejoin: miter"/>
   </g>
   <g id="patch_14">
    <path d="M 179.205421 286.940738 
C 180.21308 292.006581 181.716043 296.961186 183.692638 301.733106 
C 185.669232 306.505027 188.109911 311.071216 190.979481 315.365832 
L 190.979481 315.365832 
C 188.109911 311.071216 185.669232 306.505027 183.692638 301.733106 
C 181.716043 296.961186 180.21308 292.006581 179.205421 286.940738 
z
" clip-path="url(#p7d72a07890)" style="fill: #fde725; stroke: #ffffff; stroke-linejoin: miter"/>
   </g>
   <g id="patch_15">
    <path d="M 193.706358 259.058053 
C 192.887635 263.174051 192.475301 267.360552 192.475301 271.557187 
C 192.475301 275.753823 192.887635 279.940324 193.706358 284.056322 
L 193.706358 284.056322 
C 192.887635 279.940324 192.475301 275.753823 192.475301 271.557187 
C 192.475301 267.360552 192.887635 263.174051 193.706358 259.058053 
z
" clip-path="url(#p7d72a07890)" style="fill: #fde725; stroke: #ffffff; stroke-linejoin: miter"/>
   </g>
   <g id="patch_16">
    <path d="M 169.466205 213.373832 
C 165.655057 219.077618 162.41353 225.142088 159.788366 231.479795 
C 157.163202 237.817502 155.16708 244.397836 153.828782 251.12591 
L 153.828782 251.12591 
C 155.16708 244.397836 157.163202 237.817502 159.788366 231.479795 
C 162.41353 225.142088 165.655057 219.077618 169.466205 213.373832 
z
" clip-path="url(#p7d72a07890)" style="fill: #fde725; stroke: #ffffff; stroke-linejoin: miter"/>
   </g>
   <g id="patch_17">
    <path d="M 218.895697 215.212894 
C 215.205012 217.678931 211.765536 220.501635 208.626867 223.640304 
C 205.488197 226.778974 202.665493 230.218449 200.199456 233.909134 
L 200.199456 233.909134 
C 202.665493 230.218449 205.488197 226.778974 208.626867 223.640304 
C 211.765536 220.501635 215.205012 217.678931 218.895697 215.212894 
z
" clip-path="url(#p7d72a07890)" style="fill: #fde725; stroke: #ffffff; stroke-linejoin: miter"/>
   </g>
   <g id="patch_18">
    <path d="M 241.881304 197.844093 
C 237.052921 198.804518 232.330564 200.23703 227.782327 202.120971 
C 223.234091 204.004912 218.881941 206.331185 214.788636 209.066244 
L 214.788636 209.066244 
C 218.881941 206.331185 223.234091 204.004912 227.782327 202.120971 
C 232.330564 200.23703 237.052921 198.804518 241.881304 197.844093 
z
" clip-path="url(#p7d72a07890)" style="fill: #fde725; stroke: #ffffff; stroke-linejoin: miter"/>
   </g>
   <g id="patch_19">
    <path d="M 266.879573 219.595498 
C 263.475959 218.918477 260.014045 218.577508 256.54375 218.577508 
C 253.073455 218.577508 249.611541 218.918477 246.207927 219.595498 
L 246.207927 219.595498 
C 249.611541 218.918477 253.073455 218.577508 256.54375 218.577508 
C 260.014045 218.577508 263.475959 218.918477 266.879573 219.595498 
z
" clip-path="url(#p7d72a07890)" style="fill: #90d743; stroke: #ffffff; stroke-linejoin: miter"/>
   </g>
   <g id="patch_20">
    <path d="M 295.560824 213.16401 
C 291.735932 210.6083 287.669169 208.43457 283.419178 206.674165 
C 279.169186 204.913761 274.756491 203.575185 270.244724 202.677739 
L 270.244724 202.677739 
C 274.756491 203.575185 279.169186 204.913761 283.419178 206.674165 
C 287.669169 208.43457 291.735932 210.6083 295.560824 213.16401 
z
" clip-path="url(#p7d72a07890)" style="fill: #90d743; stroke: #ffffff; stroke-linejoin: miter"/>
   </g>
   <g id="patch_21">
    <path d="M 337.474645 217.480893 
C 333.932519 212.179727 329.878089 207.23939 325.369818 202.731119 
C 320.861548 198.222848 315.92121 194.168418 310.620045 190.626293 
L 310.620045 190.626293 
C 315.92121 194.168418 320.861548 198.222848 325.369818 202.731119 
C 329.878089 207.23939 333.932519 212.179727 337.474645 217.480893 
z
" clip-path="url(#p7d72a07890)" style="fill: #90d743; stroke: #ffffff; stroke-linejoin: miter"/>
   </g>
   <g id="patch_22">
    <path d="M 319.381142 259.058053 
C 318.562419 254.942055 317.341262 250.916439 315.735279 247.039253 
C 314.129296 243.162068 312.146244 239.452039 309.814719 235.962664 
L 309.814719 235.962664 
C 312.146244 239.452039 314.129296 243.162068 315.735279 247.039253 
C 317.341262 250.916439 318.562419 254.942055 319.381142 259.058053 
z
" clip-path="url(#p7d72a07890)" style="fill: #90d743; stroke: #ffffff; stroke-linejoin: miter"/>
   </g>
   <g id="patch_23">
    <path d="M 281.920389 276.604915 
C 282.251027 274.942685 282.417547 273.251983 282.417547 271.557187 
C 282.417547 269.862392 282.251027 268.17169 281.920389 266.50946 
L 281.920389 266.50946 
C 282.251027 268.17169 282.417547 269.862392 282.417547 271.557187 
C 282.417547 273.251983 282.251027 274.942685 281.920389 276.604915 
z
" clip-path="url(#p7d72a07890)" style="fill: #90d743; stroke: #ffffff; stroke-linejoin: miter"/>
   </g>
   <g id="patch_24">
    <path d="M 297.521418 298.93759 
C 299.314899 296.253456 300.840324 293.399587 302.075695 290.417137 
C 303.311067 287.434686 304.250418 284.338059 304.880205 281.171906 
L 304.880205 281.171906 
C 304.250418 284.338059 303.311067 287.434686 302.075695 290.417137 
C 300.840324 293.399587 299.314899 296.253456 297.521418 298.93759 
z
" clip-path="url(#p7d72a07890)" style="fill: #90d743; stroke: #ffffff; stroke-linejoin: miter"/>
   </g>
   <g id="patch_25">
    <path d="M 310.620045 352.488082 
C 315.92121 348.945957 320.861548 344.891527 325.369818 340.383256 
C 329.878089 335.874985 333.932519 330.934648 337.474645 325.633482 
L 337.474645 325.633482 
C 333.932519 330.934648 329.878089 335.874985 325.369818 340.383256 
C 320.861548 344.891527 315.92121 348.945957 310.620045 352.488082 
z
" clip-path="url(#p7d72a07890)" style="fill: #90d743; stroke: #ffffff; stroke-linejoin: miter"/>
   </g>
   <g id="patch_26">
    <path d="M 273.850244 358.562807 
C 279.549318 357.429191 285.123248 355.738358 290.491659 353.514689 
C 295.860069 351.291021 300.997033 348.545257 305.828475 345.31699 
L 305.828475 345.31699 
C 300.997033 348.545257 295.860069 351.291021 290.491659 353.514689 
C 285.123248 355.738358 279.549318 357.429191 273.850244 358.562807 
z
" clip-path="url(#p7d72a07890)" style="fill: #90d743; stroke: #ffffff; stroke-linejoin: miter"/>
   </g>
   <g id="patch_27">
    <path d="M 226.97849 420.191788 
C 236.714409 422.128382 246.617093 423.103712 256.54375 423.103712 
C 266.470407 423.103712 276.373091 422.128382 286.10901 420.191788 
L 286.10901 420.191788 
C 276.373091 422.128382 266.470407 423.103712 256.54375 423.103712 
C 246.617093 423.103712 236.714409 422.128382 226.97849 420.191788 
z
" clip-path="url(#p7d72a07890)" style="fill: #90d743; stroke: #ffffff; stroke-linejoin: miter"/>
   </g>
   <g id="patch_28">
    <path d="M 128.540368 463.127786 
C 141.088697 471.512311 154.430532 478.643671 168.373487 484.419032 
C 182.316443 490.194393 196.793177 494.585862 211.59494 497.530116 
L 211.59494 497.530116 
C 196.793177 494.585862 182.316443 490.194393 168.373487 484.419032 
C 154.430532 478.643671 141.088697 471.512311 128.540368 463.127786 
z
" clip-path="url(#p7d72a07890)" style="fill: #90d743; stroke: #ffffff; stroke-linejoin: miter"/>
   </g>
   <g id="patch_29">
    <path d="M 156.148463 338.639174 
C 160.542492 345.215303 165.572038 351.343823 171.164577 356.936361 
C 176.757115 362.528899 182.885635 367.558445 189.461764 371.952475 
L 189.461764 371.952475 
C 182.885635 367.558445 176.757115 362.528899 171.164577 356.936361 
C 165.572038 351.343823 160.542492 345.215303 156.148463 338.639174 
z
" clip-path="url(#p7d72a07890)" style="fill: #90d743; stroke: #ffffff; stroke-linejoin: miter"/>
   </g>
   <g id="patch_30">
    <path d="M 179.205421 286.940738 
C 180.21308 292.006581 181.716043 296.961186 183.692638 301.733106 
C 185.669232 306.505027 188.109911 311.071216 190.979481 315.365832 
L 190.979481 315.365832 
C 188.109911 311.071216 185.669232 306.505027 183.692638 301.733106 
C 181.716043 296.961186 180.21308 292.006581 179.205421 286.940738 
z
" clip-path="url(#p7d72a07890)" style="fill: #90d743; stroke: #ffffff; stroke-linejoin: miter"/>
   </g>
   <g id="patch_31">
    <path d="M 193.706358 259.058053 
C 192.887635 263.174051 192.475301 267.360552 192.475301 271.557187 
C 192.475301 275.753823 192.887635 279.940324 193.706358 284.056322 
L 193.706358 284.056322 
C 192.887635 279.940324 192.475301 275.753823 192.475301 271.557187 
C 192.475301 267.360552 192.887635 263.174051 193.706358 259.058053 
z
" clip-path="url(#p7d72a07890)" style="fill: #90d743; stroke: #ffffff; stroke-linejoin: miter"/>
   </g>
   <g id="patch_32">
    <path d="M 169.466205 213.373832 
C 165.655057 219.077618 162.41353 225.142088 159.788366 231.479795 
C 157.163202 237.817502 155.16708 244.397836 153.828782 251.12591 
L 153.828782 251.12591 
C 155.16708 244.397836 157.163202 237.817502 159.788366 231.479795 
C 162.41353 225.142088 165.655057 219.077618 169.466205 213.373832 
z
" clip-path="url(#p7d72a07890)" style="fill: #90d743; stroke: #ffffff; stroke-linejoin: miter"/>
   </g>
   <g id="patch_33">
    <path d="M 218.895697 215.212894 
C 215.205012 217.678931 211.765536 220.501635 208.626867 223.640304 
C 205.488197 226.778974 202.665493 230.218449 200.199456 233.909134 
L 200.199456 233.909134 
C 202.665493 230.218449 205.488197 226.778974 208.626867 223.640304 
C 211.765536 220.501635 215.205012 217.678931 218.895697 215.212894 
z
" clip-path="url(#p7d72a07890)" style="fill: #90d743; stroke: #ffffff; stroke-linejoin: miter"/>
   </g>
   <g id="patch_34">
    <path d="M 241.881304 197.844093 
C 237.052921 198.804518 232.330564 200.23703 227.782327 202.120971 
C 223.234091 204.004912 218.881941 206.331185 214.788636 209.066244 
L 214.788636 209.066244 
C 218.881941 206.331185 223.234091 204.004912 227.782327 202.120971 
C 232.330564 200.23703 237.052921 198.804518 241.881304 197.844093 
z
" clip-path="url(#p7d72a07890)" style="fill: #90d743; stroke: #ffffff; stroke-linejoin: miter"/>
   </g>
   <g id="patch_35">
    <path d="M 266.879573 219.595498 
C 263.475959 218.918477 260.014045 218.577508 256.54375 218.577508 
C 253.073455 218.577508 249.611541 218.918477 246.207927 219.595498 
L 246.207927 219.595498 
C 249.611541 218.918477 253.073455 218.577508 256.54375 218.577508 
C 260.014045 218.577508 263.475959 218.918477 266.879573 219.595498 
z
" clip-path="url(#p7d72a07890)" style="fill: #35b779; stroke: #ffffff; stroke-linejoin: miter"/>
   </g>
   <g id="patch_36">
    <path d="M 294.876314 214.188452 
C 291.118525 211.677578 287.12311 209.541984 282.947679 207.812464 
C 278.772248 206.082944 274.43697 204.767852 270.004356 203.88615 
L 270.244724 202.677739 
C 274.756491 203.575185 279.169186 204.913761 283.419178 206.674165 
C 287.669169 208.43457 291.735932 210.6083 295.560824 213.16401 
z
" clip-path="url(#p7d72a07890)" style="fill: #35b779; stroke: #ffffff; stroke-linejoin: miter"/>
   </g>
   <g id="patch_37">
    <path d="M 337.474645 217.480893 
C 333.932519 212.179727 329.878089 207.23939 325.369818 202.731119 
C 320.861548 198.222848 315.92121 194.168418 310.620045 190.626293 
L 310.620045 190.626293 
C 315.92121 194.168418 320.861548 198.222848 325.369818 202.731119 
C 329.878089 207.23939 333.932519 212.179727 337.474645 217.480893 
z
" clip-path="url(#p7d72a07890)" style="fill: #35b779; stroke: #ffffff; stroke-linejoin: miter"/>
   </g>
   <g id="patch_38">
    <path d="M 319.381142 259.058053 
C 318.562419 254.942055 317.341262 250.916439 315.735279 247.039253 
C 314.129296 243.162068 312.146244 239.452039 309.814719 235.962664 
L 309.814719 235.962664 
C 312.146244 239.452039 314.129296 243.162068 315.735279 247.039253 
C 317.341262 250.916439 318.562419 254.942055 319.381142 259.058053 
z
" clip-path="url(#p7d72a07890)" style="fill: #35b779; stroke: #ffffff; stroke-linejoin: miter"/>
   </g>
   <g id="patch_39">
    <path d="M 281.920389 276.604915 
C 282.251027 274.942685 282.417547 273.251983 282.417547 271.557187 
C 282.417547 269.862392 282.251027 268.17169 281.920389 266.50946 
L 281.920389 266.50946 
C 282.251027 268.17169 282.417547 269.862392 282.417547 271.557187 
C 282.417547 273.251983 282.251027 274.942685 281.920389 276.604915 
z
" clip-path="url(#p7d72a07890)" style="fill: #35b779; stroke: #ffffff; stroke-linejoin: miter"/>
   </g>
   <g id="patch_40">
    <path d="M 296.496976 298.25308 
C 298.245621 295.636049 299.73291 292.853527 300.937397 289.945638 
C 302.141884 287.037749 303.057752 284.018537 303.671794 280.931538 
L 304.880205 281.171906 
C 304.250418 284.338059 303.311067 287.434686 302.075695 290.417137 
C 300.840324 293.399587 299.314899 296.253456 297.521418 298.93759 
z
" clip-path="url(#p7d72a07890)" style="fill: #35b779; stroke: #ffffff; stroke-linejoin: miter"/>
   </g>
   <g id="patch_41">
    <path d="M 309.935535 351.46364 
C 315.169597 347.966352 320.047398 343.963244 324.498602 339.51204 
C 328.949806 335.060836 332.952914 330.183035 336.450203 324.948972 
L 337.474645 325.633482 
C 333.932519 330.934648 329.878089 335.874985 325.369818 340.383256 
C 320.861548 344.891527 315.92121 348.945957 310.620045 352.488082 
z
" clip-path="url(#p7d72a07890)" style="fill: #35b779; stroke: #ffffff; stroke-linejoin: miter"/>
   </g>
   <g id="patch_42">
    <path d="M 273.609876 357.354396 
C 279.229796 356.236524 284.726311 354.569175 290.02016 352.37639 
C 295.314009 350.183606 300.379626 347.475978 305.143964 344.292548 
L 305.828475 345.31699 
C 300.997033 348.545257 295.860069 351.291021 290.491659 353.514689 
C 285.123248 355.738358 279.549318 357.429191 273.850244 358.562807 
z
" clip-path="url(#p7d72a07890)" style="fill: #35b779; stroke: #ffffff; stroke-linejoin: miter"/>
   </g>
   <g id="patch_43">
    <path d="M 226.97849 420.191788 
C 236.714409 422.128382 246.617093 423.103712 256.54375 423.103712 
C 266.470407 423.103712 276.373091 422.128382 286.10901 420.191788 
L 286.10901 420.191788 
C 276.373091 422.128382 266.470407 423.103712 256.54375 423.103712 
C 246.617093 423.103712 236.714409 422.128382 226.97849 420.191788 
z
" clip-path="url(#p7d72a07890)" style="fill: #35b779; stroke: #ffffff; stroke-linejoin: miter"/>
   </g>
   <g id="patch_44">
    <path d="M 128.540368 463.127786 
C 141.088697 471.512311 154.430532 478.643671 168.373487 484.419032 
C 182.316443 490.194393 196.793177 494.585862 211.59494 497.530116 
L 211.59494 497.530116 
C 196.793177 494.585862 182.316443 490.194393 168.373487 484.419032 
C 154.430532 478.643671 141.088697 471.512311 128.540368 463.127786 
z
" clip-path="url(#p7d72a07890)" style="fill: #35b779; stroke: #ffffff; stroke-linejoin: miter"/>
   </g>
   <g id="patch_45">
    <path d="M 156.148463 338.639174 
C 160.542492 345.215303 165.572038 351.343823 171.164577 356.936361 
C 176.757115 362.528899 182.885635 367.558445 189.461764 371.952475 
L 189.461764 371.952475 
C 182.885635 367.558445 176.757115 362.528899 171.164577 356.936361 
C 165.572038 351.343823 160.542492 345.215303 156.148463 338.639174 
z
" clip-path="url(#p7d72a07890)" style="fill: #35b779; stroke: #ffffff; stroke-linejoin: miter"/>
   </g>
   <g id="patch_46">
    <path d="M 179.205421 286.940738 
C 180.21308 292.006581 181.716043 296.961186 183.692638 301.733106 
C 185.669232 306.505027 188.109911 311.071216 190.979481 315.365832 
L 190.979481 315.365832 
C 188.109911 311.071216 185.669232 306.505027 183.692638 301.733106 
C 181.716043 296.961186 180.21308 292.006581 179.205421 286.940738 
z
" clip-path="url(#p7d72a07890)" style="fill: #35b779; stroke: #ffffff; stroke-linejoin: miter"/>
   </g>
   <g id="patch_47">
    <path d="M 193.706358 259.058053 
C 192.887635 263.174051 192.475301 267.360552 192.475301 271.557187 
C 192.475301 275.753823 192.887635 279.940324 193.706358 284.056322 
L 193.706358 284.056322 
C 192.887635 279.940324 192.475301 275.753823 192.475301 271.557187 
C 192.475301 267.360552 192.887635 263.174051 193.706358 259.058053 
z
" clip-path="url(#p7d72a07890)" style="fill: #35b779; stroke: #ffffff; stroke-linejoin: miter"/>
   </g>
   <g id="patch_48">
    <path d="M 169.466205 213.373832 
C 165.655057 219.077618 162.41353 225.142088 159.788366 231.479795 
C 157.163202 237.817502 155.16708 244.397836 153.828782 251.12591 
L 153.828782 251.12591 
C 155.16708 244.397836 157.163202 237.817502 159.788366 231.479795 
C 162.41353 225.142088 165.655057 219.077618 169.466205 213.373832 
z
" clip-path="url(#p7d72a07890)" style="fill: #35b779; stroke: #ffffff; stroke-linejoin: miter"/>
   </g>
   <g id="patch_49">
    <path d="M 220.264717 217.261777 
C 216.708239 219.63814 213.393835 222.358201 210.369299 225.382737 
C 207.344763 228.407273 204.624702 231.721676 202.24834 235.278154 
L 200.199456 233.909134 
C 202.665493 230.218449 205.488197 226.778974 208.626867 223.640304 
C 211.765536 220.501635 215.205012 217.678931 218.895697 215.212894 
z
" clip-path="url(#p7d72a07890)" style="fill: #35b779; stroke: #ffffff; stroke-linejoin: miter"/>
   </g>
   <g id="patch_50">
    <path d="M 242.121672 199.052505 
C 237.372443 199.997185 232.727502 201.406212 228.253826 203.25927 
C 223.780151 205.112327 219.499348 207.400463 215.473146 210.090685 
L 214.788636 209.066244 
C 218.881941 206.331185 223.234091 204.004912 227.782327 202.120971 
C 232.330564 200.23703 237.052921 198.804518 241.881304 197.844093 
z
" clip-path="url(#p7d72a07890)" style="fill: #35b779; stroke: #ffffff; stroke-linejoin: miter"/>
   </g>
   <g id="patch_51">
    <path d="M 266.639205 220.803909 
C 263.314745 220.142633 259.93334 219.809594 256.54375 219.809594 
C 253.15416 219.809594 249.772755 220.142633 246.448295 220.803909 
L 246.207927 219.595498 
C 249.611541 218.918477 253.073455 218.577508 256.54375 218.577508 
C 260.014045 218.577508 263.475959 218.918477 266.879573 219.595498 
z
" clip-path="url(#p7d72a07890)" style="fill: #21918c; stroke: #ffffff; stroke-linejoin: miter"/>
   </g>
   <g id="patch_52">
    <path d="M 294.191803 215.212894 
C 290.501119 212.746857 286.57705 210.649398 282.47618 208.950763 
C 278.375311 207.252127 274.117448 205.960518 269.763988 205.094561 
L 270.004356 203.88615 
C 274.43697 204.767852 278.772248 206.082944 282.947679 207.812464 
C 287.12311 209.541984 291.118525 211.677578 294.876314 214.188452 
z
" clip-path="url(#p7d72a07890)" style="fill: #21918c; stroke: #ffffff; stroke-linejoin: miter"/>
   </g>
   <g id="patch_53">
    <path d="M 337.474645 217.480893 
C 333.932519 212.179727 329.878089 207.23939 325.369818 202.731119 
C 320.861548 198.222848 315.92121 194.168418 310.620045 190.626293 
L 310.620045 190.626293 
C 315.92121 194.168418 320.861548 198.222848 325.369818 202.731119 
C 329.878089 207.23939 333.932519 212.179727 337.474645 217.480893 
z
" clip-path="url(#p7d72a07890)" style="fill: #21918c; stroke: #ffffff; stroke-linejoin: miter"/>
   </g>
   <g id="patch_54">
    <path d="M 319.381142 259.058053 
C 318.562419 254.942055 317.341262 250.916439 315.735279 247.039253 
C 314.129296 243.162068 312.146244 239.452039 309.814719 235.962664 
L 309.814719 235.962664 
C 312.146244 239.452039 314.129296 243.162068 315.735279 247.039253 
C 317.341262 250.916439 318.562419 254.942055 319.381142 259.058053 
z
" clip-path="url(#p7d72a07890)" style="fill: #21918c; stroke: #ffffff; stroke-linejoin: miter"/>
   </g>
   <g id="patch_55">
    <path d="M 281.920389 276.604915 
C 282.251027 274.942685 282.417547 273.251983 282.417547 271.557187 
C 282.417547 269.862392 282.251027 268.17169 281.920389 266.50946 
L 281.920389 266.50946 
C 282.251027 268.17169 282.417547 269.862392 282.417547 271.557187 
C 282.417547 273.251983 282.251027 274.942685 281.920389 276.604915 
z
" clip-path="url(#p7d72a07890)" style="fill: #21918c; stroke: #ffffff; stroke-linejoin: miter"/>
   </g>
   <g id="patch_56">
    <path d="M 295.472535 297.56857 
C 297.176342 295.018642 298.625495 292.307467 299.799098 289.474139 
C 300.972701 286.640811 301.865085 283.699015 302.463383 280.69117 
L 303.671794 280.931538 
C 303.057752 284.018537 302.141884 287.037749 300.937397 289.945638 
C 299.73291 292.853527 298.245621 295.636049 296.496976 298.25308 
z
" clip-path="url(#p7d72a07890)" style="fill: #21918c; stroke: #ffffff; stroke-linejoin: miter"/>
   </g>
   <g id="patch_57">
    <path d="M 309.935535 351.46364 
C 315.169597 347.966352 320.047398 343.963244 324.498602 339.51204 
C 328.949806 335.060836 332.952914 330.183035 336.450203 324.948972 
L 336.450203 324.948972 
C 332.952914 330.183035 328.949806 335.060836 324.498602 339.51204 
C 320.047398 343.963244 315.169597 347.966352 309.935535 351.46364 
z
" clip-path="url(#p7d72a07890)" style="fill: #21918c; stroke: #ffffff; stroke-linejoin: miter"/>
   </g>
   <g id="patch_58">
    <path d="M 273.609876 357.354396 
C 279.229796 356.236524 284.726311 354.569175 290.02016 352.37639 
C 295.314009 350.183606 300.379626 347.475978 305.143964 344.292548 
L 305.143964 344.292548 
C 300.379626 347.475978 295.314009 350.183606 290.02016 352.37639 
C 284.726311 354.569175 279.229796 356.236524 273.609876 357.354396 
z
" clip-path="url(#p7d72a07890)" style="fill: #21918c; stroke: #ffffff; stroke-linejoin: miter"/>
   </g>
   <g id="patch_59">
    <path d="M 226.97849 420.191788 
C 236.714409 422.128382 246.617093 423.103712 256.54375 423.103712 
C 266.470407 423.103712 276.373091 422.128382 286.10901 420.191788 
L 286.10901 420.191788 
C 276.373091 422.128382 266.470407 423.103712 256.54375 423.103712 
C 246.617093 423.103712 236.714409 422.128382 226.97849 420.191788 
z
" clip-path="url(#p7d72a07890)" style="fill: #21918c; stroke: #ffffff; stroke-linejoin: miter"/>
   </g>
   <g id="patch_60">
    <path d="M 129.224878 462.103344 
C 141.706103 470.443032 154.976592 477.536256 168.844986 483.280733 
C 182.71338 489.02521 197.112699 493.393196 211.835308 496.321705 
L 211.59494 497.530116 
C 196.793177 494.585862 182.316443 490.194393 168.373487 484.419032 
C 154.430532 478.643671 141.088697 471.512311 128.540368 463.127786 
z
" clip-path="url(#p7d72a07890)" style="fill: #21918c; stroke: #ffffff; stroke-linejoin: miter"/>
   </g>
   <g id="patch_61">
    <path d="M 156.148463 338.639174 
C 160.542492 345.215303 165.572038 351.343823 171.164577 356.936361 
C 176.757115 362.528899 182.885635 367.558445 189.461764 371.952475 
L 189.461764 371.952475 
C 182.885635 367.558445 176.757115 362.528899 171.164577 356.936361 
C 165.572038 351.343823 160.542492 345.215303 156.148463 338.639174 
z
" clip-path="url(#p7d72a07890)" style="fill: #21918c; stroke: #ffffff; stroke-linejoin: miter"/>
   </g>
   <g id="patch_62">
    <path d="M 179.205421 286.940738 
C 180.21308 292.006581 181.716043 296.961186 183.692638 301.733106 
C 185.669232 306.505027 188.109911 311.071216 190.979481 315.365832 
L 190.979481 315.365832 
C 188.109911 311.071216 185.669232 306.505027 183.692638 301.733106 
C 181.716043 296.961186 180.21308 292.006581 179.205421 286.940738 
z
" clip-path="url(#p7d72a07890)" style="fill: #21918c; stroke: #ffffff; stroke-linejoin: miter"/>
   </g>
   <g id="patch_63">
    <path d="M 193.706358 259.058053 
C 192.887635 263.174051 192.475301 267.360552 192.475301 271.557187 
C 192.475301 275.753823 192.887635 279.940324 193.706358 284.056322 
L 193.706358 284.056322 
C 192.887635 279.940324 192.475301 275.753823 192.475301 271.557187 
C 192.475301 267.360552 192.887635 263.174051 193.706358 259.058053 
z
" clip-path="url(#p7d72a07890)" style="fill: #21918c; stroke: #ffffff; stroke-linejoin: miter"/>
   </g>
   <g id="patch_64">
    <path d="M 171.515089 214.742852 
C 167.793615 220.312431 164.628359 226.234208 162.064963 232.422793 
C 159.501568 238.611377 157.552413 245.03688 156.245605 251.606646 
L 153.828782 251.12591 
C 155.16708 244.397836 157.163202 237.817502 159.788366 231.479795 
C 162.41353 225.142088 165.655057 219.077618 169.466205 213.373832 
z
" clip-path="url(#p7d72a07890)" style="fill: #21918c; stroke: #ffffff; stroke-linejoin: miter"/>
   </g>
   <g id="patch_65">
    <path d="M 225.740797 225.457311 
C 222.721146 227.474977 219.90703 229.784463 217.339028 232.352465 
C 214.771025 234.920467 212.46154 237.734583 210.443873 240.754235 
L 202.24834 235.278154 
C 204.624702 231.721676 207.344763 228.407273 210.369299 225.382737 
C 213.393835 222.358201 216.708239 219.63814 220.264717 217.261777 
z
" clip-path="url(#p7d72a07890)" style="fill: #21918c; stroke: #ffffff; stroke-linejoin: miter"/>
   </g>
   <g id="patch_66">
    <path d="M 242.36204 200.260916 
C 237.691965 201.189852 233.124439 202.575395 228.725325 204.397568 
C 224.326211 206.219741 220.116755 208.469742 216.157656 211.115127 
L 215.473146 210.090685 
C 219.499348 207.400463 223.780151 205.112327 228.253826 203.25927 
C 232.727502 201.406212 237.372443 199.997185 242.121672 199.052505 
z
" clip-path="url(#p7d72a07890)" style="fill: #21918c; stroke: #ffffff; stroke-linejoin: miter"/>
   </g>
   <g id="patch_67">
    <path d="M 266.398837 222.012321 
C 263.15353 221.366789 259.852636 221.041679 256.54375 221.041679 
C 253.234864 221.041679 249.93397 221.366789 246.688663 222.012321 
L 246.448295 220.803909 
C 249.772755 220.142633 253.15416 219.809594 256.54375 219.809594 
C 259.93334 219.809594 263.314745 220.142633 266.639205 220.803909 
z
" clip-path="url(#p7d72a07890)" style="fill: #31688e; stroke: #ffffff; stroke-linejoin: miter"/>
   </g>
   <g id="patch_68">
    <path d="M 288.715723 223.408427 
C 285.561865 221.301087 282.20857 219.508713 278.70419 218.057152 
C 275.199811 216.60559 271.561274 215.501852 267.841045 214.761853 
L 269.763988 205.094561 
C 274.117448 205.960518 278.375311 207.252127 282.47618 208.950763 
C 286.57705 210.649398 290.501119 212.746857 294.191803 215.212894 
z
" clip-path="url(#p7d72a07890)" style="fill: #31688e; stroke: #ffffff; stroke-linejoin: miter"/>
   </g>
   <g id="patch_69">
    <path d="M 322.108019 227.748543 
C 319.238449 223.453928 315.953847 219.45163 312.301578 215.79936 
C 308.649308 212.14709 304.647009 208.862488 300.352394 205.992918 
L 310.620045 190.626293 
C 315.92121 194.168418 320.861548 198.222848 325.369818 202.731119 
C 329.878089 207.23939 333.932519 212.179727 337.474645 217.480893 
z
" clip-path="url(#p7d72a07890)" style="fill: #31688e; stroke: #ffffff; stroke-linejoin: miter"/>
   </g>
   <g id="patch_70">
    <path d="M 312.130674 260.500261 
C 311.406419 256.859186 310.326164 253.298064 308.905487 249.868246 
C 307.48481 246.438428 305.730572 243.156479 303.668068 240.069725 
L 309.814719 235.962664 
C 312.146244 239.452039 314.129296 243.162068 315.735279 247.039253 
C 317.341262 250.916439 318.562419 254.942055 319.381142 259.058053 
z
" clip-path="url(#p7d72a07890)" style="fill: #31688e; stroke: #ffffff; stroke-linejoin: miter"/>
   </g>
   <g id="patch_71">
    <path d="M 275.878332 275.403075 
C 276.130247 274.136614 276.257119 272.84846 276.257119 271.557187 
C 276.257119 270.265915 276.130247 268.977761 275.878332 267.7113 
L 281.920389 266.50946 
C 282.251027 268.17169 282.417547 269.862392 282.417547 271.557187 
C 282.417547 273.251983 282.251027 274.942685 281.920389 276.604915 
z
" clip-path="url(#p7d72a07890)" style="fill: #31688e; stroke: #ffffff; stroke-linejoin: miter"/>
   </g>
   <g id="patch_72">
    <path d="M 289.325885 293.46151 
C 290.76067 291.314202 291.981009 289.031107 292.969306 286.645147 
C 293.957603 284.259187 294.709085 281.781884 295.212914 279.248963 
L 302.463383 280.69117 
C 301.865085 283.699015 300.972701 286.640811 299.799098 289.474139 
C 298.625495 292.307467 297.176342 295.018642 295.472535 297.56857 
z
" clip-path="url(#p7d72a07890)" style="fill: #31688e; stroke: #ffffff; stroke-linejoin: miter"/>
   </g>
   <g id="patch_73">
    <path d="M 302.405924 340.194782 
C 306.901849 337.190701 311.091756 333.752133 314.915226 329.928663 
C 318.738696 326.105193 322.177263 321.915287 325.181344 317.419362 
L 336.450203 324.948972 
C 332.952914 330.183035 328.949806 335.060836 324.498602 339.51204 
C 320.047398 343.963244 315.169597 347.966352 309.935535 351.46364 
z
" clip-path="url(#p7d72a07890)" style="fill: #31688e; stroke: #ffffff; stroke-linejoin: miter"/>
   </g>
   <g id="patch_74">
    <path d="M 271.206196 345.270282 
C 276.034579 344.309857 280.756936 342.877345 285.305173 340.993404 
C 289.853409 339.109463 294.205559 336.78319 298.298864 334.048131 
L 305.143964 344.292548 
C 300.379626 347.475978 295.314009 350.183606 290.02016 352.37639 
C 284.726311 354.569175 279.229796 356.236524 273.609876 357.354396 
z
" clip-path="url(#p7d72a07890)" style="fill: #31688e; stroke: #ffffff; stroke-linejoin: miter"/>
   </g>
   <g id="patch_75">
    <path d="M 229.862905 405.690851 
C 238.648978 407.43851 247.585548 408.318685 256.54375 408.318685 
C 265.501952 408.318685 274.438522 407.43851 283.224595 405.690851 
L 286.10901 420.191788 
C 276.373091 422.128382 266.470407 423.103712 256.54375 423.103712 
C 246.617093 423.103712 236.714409 422.128382 226.97849 420.191788 
z
" clip-path="url(#p7d72a07890)" style="fill: #31688e; stroke: #ffffff; stroke-linejoin: miter"/>
   </g>
   <g id="patch_76">
    <path d="M 142.23057 442.638952 
C 153.436831 450.126736 165.351731 456.495384 177.803462 461.653059 
C 190.255192 466.810735 203.183613 470.732528 216.402299 473.361888 
L 211.835308 496.321705 
C 197.112699 493.393196 182.71338 489.02521 168.844986 483.280733 
C 154.976592 477.536256 141.706103 470.443032 129.224878 462.103344 
z
" clip-path="url(#p7d72a07890)" style="fill: #31688e; stroke: #ffffff; stroke-linejoin: miter"/>
   </g>
   <g id="patch_77">
    <path d="M 173.563972 327.002503 
C 177.195772 332.437875 181.352845 337.503284 185.97525 342.125688 
C 190.597654 346.748092 195.663063 350.905166 201.098435 354.536966 
L 189.461764 371.952475 
C 182.885635 367.558445 176.757115 362.528899 171.164577 356.936361 
C 165.572038 351.343823 160.542492 345.215303 156.148463 338.639174 
z
" clip-path="url(#p7d72a07890)" style="fill: #31688e; stroke: #ffffff; stroke-linejoin: miter"/>
   </g>
   <g id="patch_78">
    <path d="M 191.289535 284.537058 
C 192.139748 288.811364 193.407872 292.991811 195.075624 297.018119 
C 196.743375 301.044427 198.802698 304.897149 201.223898 308.520731 
L 190.979481 315.365832 
C 188.109911 311.071216 185.669232 306.505027 183.692638 301.733106 
C 181.716043 296.961186 180.21308 292.006581 179.205421 286.940738 
z
" clip-path="url(#p7d72a07890)" style="fill: #31688e; stroke: #ffffff; stroke-linejoin: miter"/>
   </g>
   <g id="patch_79">
    <path d="M 200.956826 260.500261 
C 200.232571 264.141336 199.867814 267.844779 199.867814 271.557187 
C 199.867814 275.269596 200.232571 278.973039 200.956826 282.614114 
L 193.706358 284.056322 
C 192.887635 279.940324 192.475301 275.753823 192.475301 271.557187 
C 192.475301 267.360552 192.887635 263.174051 193.706358 259.058053 
z
" clip-path="url(#p7d72a07890)" style="fill: #31688e; stroke: #ffffff; stroke-linejoin: miter"/>
   </g>
   <g id="patch_80">
    <path d="M 180.735064 220.903443 
C 177.417124 225.869092 174.595088 231.148748 172.309651 236.666281 
C 170.024214 242.183815 168.286413 247.912576 167.121308 253.769958 
L 156.245605 251.606646 
C 157.552413 245.03688 159.501568 238.611377 162.064963 232.422793 
C 164.628359 226.234208 167.793615 220.312431 171.515089 214.742852 
z
" clip-path="url(#p7d72a07890)" style="fill: #31688e; stroke: #ffffff; stroke-linejoin: miter"/>
   </g>
   <g id="patch_81">
    <path d="M 233.954918 237.750611 
C 231.740507 239.230233 229.676822 240.923856 227.79362 242.807058 
C 225.910418 244.690259 224.216796 246.753945 222.737174 248.968355 
L 210.443873 240.754235 
C 212.46154 237.734583 214.771025 234.920467 217.339028 232.352465 
C 219.90703 229.784463 222.721146 227.474977 225.740797 225.457311 
z
" clip-path="url(#p7d72a07890)" style="fill: #31688e; stroke: #ffffff; stroke-linejoin: miter"/>
   </g>
   <g id="patch_82">
    <path d="M 244.044616 208.719796 
C 239.928617 209.538519 235.903001 210.759676 232.025816 212.365659 
C 228.14863 213.971641 224.438602 215.954693 220.949227 218.286219 
L 216.157656 211.115127 
C 220.116755 208.469742 224.326211 206.219741 228.725325 204.397568 
C 233.124439 202.575395 237.691965 201.189852 242.36204 200.260916 
z
" clip-path="url(#p7d72a07890)" style="fill: #31688e; stroke: #ffffff; stroke-linejoin: miter"/>
   </g>
   <g id="patch_83">
    <path d="M 262.552949 241.346903 
C 260.574104 240.953286 258.561363 240.755048 256.54375 240.755048 
C 254.526137 240.755048 252.513396 240.953286 250.534551 241.346903 
L 246.688663 222.012321 
C 249.93397 221.366789 253.234864 221.041679 256.54375 221.041679 
C 259.852636 221.041679 263.15353 221.366789 266.398837 222.012321 
z
" clip-path="url(#p7d72a07890)" style="fill: #443983; stroke: #ffffff; stroke-linejoin: miter"/>
   </g>
   <g id="patch_84">
    <path d="M 262.704341 262.337212 
C 262.10041 261.933679 261.45829 261.590458 260.787239 261.3125 
C 260.116187 261.034541 259.419446 260.823187 258.707062 260.681485 
L 267.841045 214.761853 
C 271.561274 215.501852 275.199811 216.60559 278.70419 218.057152 
C 282.20857 219.508713 285.561865 221.301087 288.715723 223.408427 
z
" clip-path="url(#p7d72a07890)" style="fill: #443983; stroke: #ffffff; stroke-linejoin: miter"/>
   </g>
   <g id="patch_85">
    <path d="M 264.739284 266.081107 
C 264.380587 265.54428 263.970012 265.043993 263.513478 264.587459 
C 263.056945 264.130925 262.556657 263.72035 262.019831 263.361654 
L 300.352394 205.992918 
C 304.647009 208.862488 308.649308 212.14709 312.301578 215.79936 
C 315.953847 219.45163 319.238449 223.453928 322.108019 227.748543 
z
" clip-path="url(#p7d72a07890)" style="fill: #443983; stroke: #ffffff; stroke-linejoin: miter"/>
   </g>
   <g id="patch_86">
    <path d="M 262.585807 270.355348 
C 262.507084 269.959579 262.389665 269.5725 262.235243 269.199694 
C 262.080822 268.826888 261.890144 268.470154 261.665959 268.134637 
L 303.668068 240.069725 
C 305.730572 243.156479 307.48481 246.438428 308.905487 249.868246 
C 310.326164 253.298064 311.406419 256.859186 312.130674 260.500261 
z
" clip-path="url(#p7d72a07890)" style="fill: #443983; stroke: #ffffff; stroke-linejoin: miter"/>
   </g>
   <g id="patch_87">
    <path d="M 263.794218 272.999395 
C 263.888686 272.524472 263.936263 272.041415 263.936263 271.557187 
C 263.936263 271.07296 263.888686 270.589903 263.794218 270.11498 
L 275.878332 267.7113 
C 276.130247 268.977761 276.257119 270.265915 276.257119 271.557187 
C 276.257119 272.84846 276.130247 274.136614 275.878332 275.403075 
z
" clip-path="url(#p7d72a07890)" style="fill: #443983; stroke: #ffffff; stroke-linejoin: miter"/>
   </g>
   <g id="patch_88">
    <path d="M 260.641517 274.295228 
C 260.820865 274.026814 260.973407 273.741427 261.096945 273.443182 
C 261.220482 273.144937 261.314417 272.835275 261.377396 272.518659 
L 295.212914 279.248963 
C 294.709085 281.781884 293.957603 284.259187 292.969306 286.645147 
C 291.981009 289.031107 290.76067 291.314202 289.325885 293.46151 
z
" clip-path="url(#p7d72a07890)" style="fill: #443983; stroke: #ffffff; stroke-linejoin: miter"/>
   </g>
   <g id="patch_89">
    <path d="M 259.9663 276.679396 
C 260.301817 276.455211 260.614497 276.198601 260.89983 275.913268 
C 261.185164 275.627934 261.441773 275.315255 261.665959 274.979738 
L 325.181344 317.419362 
C 322.177263 321.915287 318.738696 326.105193 314.915226 329.928663 
C 311.091756 333.752133 306.901849 337.190701 302.405924 340.194782 
z
" clip-path="url(#p7d72a07890)" style="fill: #443983; stroke: #ffffff; stroke-linejoin: miter"/>
   </g>
   <g id="patch_90">
    <path d="M 258.226326 280.016067 
C 258.780402 279.905854 259.322312 279.741468 259.844241 279.525278 
C 260.36617 279.309088 260.865597 279.042139 261.33532 278.728279 
L 298.298864 334.048131 
C 294.205559 336.78319 289.853409 339.109463 285.305173 340.993404 
C 280.756936 342.877345 276.034579 344.309857 271.206196 345.270282 
z
" clip-path="url(#p7d72a07890)" style="fill: #443983; stroke: #ffffff; stroke-linejoin: miter"/>
   </g>
   <g id="patch_91">
    <path d="M 242.842776 340.436636 
C 247.354543 341.334083 251.943592 341.786065 256.54375 341.786065 
C 261.143908 341.786065 265.732957 341.334083 270.244724 340.436636 
L 283.224595 405.690851 
C 274.438522 407.43851 265.501952 408.318685 256.54375 408.318685 
C 247.585548 408.318685 238.648978 407.43851 229.862905 405.690851 
z
" clip-path="url(#p7d72a07890)" style="fill: #443983; stroke: #ffffff; stroke-linejoin: miter"/>
   </g>
   <g id="patch_92">
    <path d="M 245.591589 287.948255 
C 246.665243 288.665647 247.80679 289.275817 248.99977 289.769966 
C 250.19275 290.264114 251.431402 290.639855 252.697862 290.89177 
L 216.402299 473.361888 
C 203.183613 470.732528 190.255192 466.810735 177.803462 461.653059 
C 165.351731 456.495384 153.436831 450.126736 142.23057 442.638952 
z
" clip-path="url(#p7d72a07890)" style="fill: #443983; stroke: #ffffff; stroke-linejoin: miter"/>
   </g>
   <g id="patch_93">
    <path d="M 254.494867 272.926208 
C 254.584541 273.060414 254.687184 273.185486 254.801318 273.29962 
C 254.915451 273.413753 255.040523 273.516397 255.17473 273.606071 
L 201.098435 354.536966 
C 195.663063 350.905166 190.597654 346.748092 185.97525 342.125688 
C 181.352845 337.503284 177.195772 332.437875 173.563972 327.002503 
z
" clip-path="url(#p7d72a07890)" style="fill: #443983; stroke: #ffffff; stroke-linejoin: miter"/>
   </g>
   <g id="patch_94">
    <path d="M 251.710104 272.518659 
C 251.773083 272.835275 251.867018 273.144937 251.990555 273.443182 
C 252.114093 273.741427 252.266635 274.026814 252.445983 274.295228 
L 201.223898 308.520731 
C 198.802698 304.897149 196.743375 301.044427 195.075624 297.018119 
C 193.407872 292.991811 192.139748 288.811364 191.289535 284.537058 
z
" clip-path="url(#p7d72a07890)" style="fill: #443983; stroke: #ffffff; stroke-linejoin: miter"/>
   </g>
   <g id="patch_95">
    <path d="M 216.666174 263.625045 
C 216.1466 266.23712 215.884926 268.893938 215.884926 271.557187 
C 215.884926 274.220437 216.1466 276.877255 216.666174 279.48933 
L 200.956826 282.614114 
C 200.232571 278.973039 199.867814 275.269596 199.867814 271.557187 
C 199.867814 267.844779 200.232571 264.141336 200.956826 260.500261 
z
" clip-path="url(#p7d72a07890)" style="fill: #443983; stroke: #ffffff; stroke-linejoin: miter"/>
   </g>
   <g id="patch_96">
    <path d="M 240.152683 260.605026 
C 239.43529 261.67868 238.82512 262.820228 238.330972 264.013208 
C 237.836823 265.206188 237.461083 266.444839 237.209168 267.7113 
L 167.121308 253.769958 
C 168.286413 247.912576 170.024214 242.183815 172.309651 236.666281 
C 174.595088 231.148748 177.417124 225.869092 180.735064 220.903443 
z
" clip-path="url(#p7d72a07890)" style="fill: #443983; stroke: #ffffff; stroke-linejoin: miter"/>
   </g>
   <g id="patch_97">
    <path d="M 253.80571 267.459421 
C 253.537296 267.638769 253.287153 267.844056 253.058886 268.072323 
C 252.830619 268.30059 252.625331 268.550734 252.445983 268.819147 
L 222.737174 248.968355 
C 224.216796 246.753945 225.910418 244.690259 227.79362 242.807058 
C 229.676822 240.923856 231.740507 239.230233 233.954918 237.750611 
z
" clip-path="url(#p7d72a07890)" style="fill: #443983; stroke: #ffffff; stroke-linejoin: miter"/>
   </g>
   <g id="patch_98">
    <path d="M 251.496023 246.180548 
C 249.833793 246.511187 248.208063 247.004346 246.642277 247.652916 
C 245.07649 248.301486 243.578209 249.102334 242.169039 250.043912 
L 220.949227 218.286219 
C 224.438602 215.954693 228.14863 213.971641 232.025816 212.365659 
C 235.903001 210.759676 239.928617 209.538519 244.044616 208.719796 
z
" clip-path="url(#p7d72a07890)" style="fill: #443983; stroke: #ffffff; stroke-linejoin: miter"/>
   </g>
   <g id="patch_99">
    <path d="M 256.54375 271.557187 
C 256.54375 271.557187 256.54375 271.557187 256.54375 271.557187 
C 256.54375 271.557187 256.54375 271.557187 256.54375 271.557187 
L 250.534551 241.346903 
C 252.513396 240.953286 254.526137 240.755048 256.54375 240.755048 
C 258.561363 240.755048 260.574104 240.953286 262.552949 241.346903 
z
" clip-path="url(#p7d72a07890)" style="fill: #440154; stroke: #ffffff; stroke-linejoin: miter"/>
   </g>
   <g id="patch_100">
    <path d="M 256.54375 271.557187 
C 256.54375 271.557187 256.54375 271.557187 256.54375 271.557187 
C 256.54375 271.557187 256.54375 271.557187 256.54375 271.557187 
L 258.707062 260.681485 
C 259.419446 260.823187 260.116187 261.034541 260.787239 261.3125 
C 261.45829 261.590458 262.10041 261.933679 262.704341 262.337212 
z
" clip-path="url(#p7d72a07890)" style="fill: #440154; stroke: #ffffff; stroke-linejoin: miter"/>
   </g>
   <g id="patch_101">
    <path d="M 256.54375 271.557187 
C 256.54375 271.557187 256.54375 271.557187 256.54375 271.557187 
C 256.54375 271.557187 256.54375 271.557187 256.54375 271.557187 
L 262.019831 263.361654 
C 262.556657 263.72035 263.056945 264.130925 263.513478 264.587459 
C 263.970012 265.043993 264.380587 265.54428 264.739284 266.081107 
z
" clip-path="url(#p7d72a07890)" style="fill: #440154; stroke: #ffffff; stroke-linejoin: miter"/>
   </g>
   <g id="patch_102">
    <path d="M 256.54375 271.557187 
C 256.54375 271.557187 256.54375 271.557187 256.54375 271.557187 
C 256.54375 271.557187 256.54375 271.557187 256.54375 271.557187 
L 261.665959 268.134637 
C 261.890144 268.470154 262.080822 268.826888 262.235243 269.199694 
C 262.389665 269.5725 262.507084 269.959579 262.585807 270.355348 
z
" clip-path="url(#p7d72a07890)" style="fill: #440154; stroke: #ffffff; stroke-linejoin: miter"/>
   </g>
   <g id="patch_103">
    <path d="M 256.54375 271.557187 
C 256.54375 271.557187 256.54375 271.557187 256.54375 271.557187 
C 256.54375 271.557187 256.54375 271.557187 256.54375 271.557187 
L 263.794218 270.11498 
C 263.888686 270.589903 263.936263 271.07296 263.936263 271.557187 
C 263.936263 272.041415 263.888686 272.524472 263.794218 272.999395 
z
" clip-path="url(#p7d72a07890)" style="fill: #440154; stroke: #ffffff; stroke-linejoin: miter"/>
   </g>
   <g id="patch_104">
    <path d="M 256.54375 271.557187 
C 256.54375 271.557187 256.54375 271.557187 256.54375 271.557187 
C 256.54375 271.557187 256.54375 271.557187 256.54375 271.557187 
L 261.377396 272.518659 
C 261.314417 272.835275 261.220482 273.144937 261.096945 273.443182 
C 260.973407 273.741427 260.820865 274.026814 260.641517 274.295228 
z
" clip-path="url(#p7d72a07890)" style="fill: #440154; stroke: #ffffff; stroke-linejoin: miter"/>
   </g>
   <g id="patch_105">
    <path d="M 256.54375 271.557187 
C 256.54375 271.557187 256.54375 271.557187 256.54375 271.557187 
C 256.54375 271.557187 256.54375 271.557187 256.54375 271.557187 
L 261.665959 274.979738 
C 261.441773 275.315255 261.185164 275.627934 260.89983 275.913268 
C 260.614497 276.198601 260.301817 276.455211 259.9663 276.679396 
z
" clip-path="url(#p7d72a07890)" style="fill: #440154; stroke: #ffffff; stroke-linejoin: miter"/>
   </g>
   <g id="patch_106">
    <path d="M 256.54375 271.557187 
C 256.54375 271.557187 256.54375 271.557187 256.54375 271.557187 
C 256.54375 271.557187 256.54375 271.557187 256.54375 271.557187 
L 261.33532 278.728279 
C 260.865597 279.042139 260.36617 279.309088 259.844241 279.525278 
C 259.322312 279.741468 258.780402 279.905854 258.226326 280.016067 
z
" clip-path="url(#p7d72a07890)" style="fill: #440154; stroke: #ffffff; stroke-linejoin: miter"/>
   </g>
   <g id="patch_107">
    <path d="M 256.54375 271.557187 
C 256.54375 271.557187 256.54375 271.557187 256.54375 271.557187 
C 256.54375 271.557187 256.54375 271.557187 256.54375 271.557187 
L 270.244724 340.436636 
C 265.732957 341.334083 261.143908 341.786065 256.54375 341.786065 
C 251.943592 341.786065 247.354543 341.334083 242.842776 340.436636 
z
" clip-path="url(#p7d72a07890)" style="fill: #440154; stroke: #ffffff; stroke-linejoin: miter"/>
   </g>
   <g id="patch_108">
    <path d="M 256.54375 271.557187 
C 256.54375 271.557187 256.54375 271.557187 256.54375 271.557187 
C 256.54375 271.557187 256.54375 271.557187 256.54375 271.557187 
L 252.697862 290.89177 
C 251.431402 290.639855 250.19275 290.264114 248.99977 289.769966 
C 247.80679 289.275817 246.665243 288.665647 245.591589 287.948255 
z
" clip-path="url(#p7d72a07890)" style="fill: #440154; stroke: #ffffff; stroke-linejoin: miter"/>
   </g>
   <g id="patch_109">
    <path d="M 256.54375 271.557187 
C 256.54375 271.557187 256.54375 271.557187 256.54375 271.557187 
C 256.54375 271.557187 256.54375 271.557187 256.54375 271.557187 
L 255.17473 273.606071 
C 255.040523 273.516397 254.915451 273.413753 254.801318 273.29962 
C 254.687184 273.185486 254.584541 273.060414 254.494867 272.926208 
z
" clip-path="url(#p7d72a07890)" style="fill: #440154; stroke: #ffffff; stroke-linejoin: miter"/>
   </g>
   <g id="patch_110">
    <path d="M 256.54375 271.557187 
C 256.54375 271.557187 256.54375 271.557187 256.54375 271.557187 
C 256.54375 271.557187 256.54375 271.557187 256.54375 271.557187 
L 252.445983 274.295228 
C 252.266635 274.026814 252.114093 273.741427 251.990555 273.443182 
C 251.867018 273.144937 251.773083 272.835275 251.710104 272.518659 
z
" clip-path="url(#p7d72a07890)" style="fill: #440154; stroke: #ffffff; stroke-linejoin: miter"/>
   </g>
   <g id="patch_111">
    <path d="M 256.54375 271.557187 
C 256.54375 271.557187 256.54375 271.557187 256.54375 271.557187 
C 256.54375 271.557187 256.54375 271.557187 256.54375 271.557187 
L 216.666174 279.48933 
C 216.1466 276.877255 215.884926 274.220437 215.884926 271.557187 
C 215.884926 268.893938 216.1466 266.23712 216.666174 263.625045 
z
" clip-path="url(#p7d72a07890)" style="fill: #440154; stroke: #ffffff; stroke-linejoin: miter"/>
   </g>
   <g id="patch_112">
    <path d="M 256.54375 271.557187 
C 256.54375 271.557187 256.54375 271.557187 256.54375 271.557187 
C 256.54375 271.557187 256.54375 271.557187 256.54375 271.557187 
L 237.209168 267.7113 
C 237.461083 266.444839 237.836823 265.206188 238.330972 264.013208 
C 238.82512 262.820228 239.43529 261.67868 240.152683 260.605026 
z
" clip-path="url(#p7d72a07890)" style="fill: #440154; stroke: #ffffff; stroke-linejoin: miter"/>
   </g>
   <g id="patch_113">
    <path d="M 256.54375 271.557187 
C 256.54375 271.557187 256.54375 271.557187 256.54375 271.557187 
C 256.54375 271.557187 256.54375 271.557187 256.54375 271.557187 
L 252.445983 268.819147 
C 252.625331 268.550734 252.830619 268.30059 253.058886 268.072323 
C 253.287153 267.844056 253.537296 267.638769 253.80571 267.459421 
z
" clip-path="url(#p7d72a07890)" style="fill: #440154; stroke: #ffffff; stroke-linejoin: miter"/>
   </g>
   <g id="patch_114">
    <path d="M 256.54375 271.557187 
C 256.54375 271.557187 256.54375 271.557187 256.54375 271.557187 
C 256.54375 271.557187 256.54375 271.557187 256.54375 271.557187 
L 242.169039 250.043912 
C 243.578209 249.102334 245.07649 248.301486 246.642277 247.652916 
C 248.208063 247.004346 249.833793 246.511187 251.496023 246.180548 
z
" clip-path="url(#p7d72a07890)" style="fill: #440154; stroke: #ffffff; stroke-linejoin: miter"/>
   </g>
   <g id="matplotlib.axis_1">
    <g id="xtick_1">
     <g id="line2d_1">
      <path d="M 256.54375 271.557187 
L 486.94375 271.557187 
" clip-path="url(#p7d72a07890)" style="fill: none; stroke: #b0b0b0; stroke-width: 0.8; stroke-linecap: square"/>
     </g>
     <g id="text_1">
      <!-- E -->
      <g transform="translate(497.784375 274.316562)scale(0.1 -0.1)">
       <defs>
        <path id="DejaVuSans-45" d="M 628 4666 
L 3578 4666 
L 3578 4134 
L 1259 4134 
L 1259 2753 
L 3481 2753 
L 3481 2222 
L 1259 2222 
L 1259 531 
L 3634 531 
L 3634 0 
L 628 0 
L 628 4666 
z
" transform="scale(0.015625)"/>
       </defs>
       <use xlink:href="#DejaVuSans-45"/>
      </g>
     </g>
    </g>
    <g id="xtick_2">
     <g id="line2d_2">
      <path d="M 256.54375 271.557187 
L 419.461152 108.639785 
" clip-path="url(#p7d72a07890)" style="fill: none; stroke: #b0b0b0; stroke-width: 0.8; stroke-linecap: square"/>
     </g>
     <g id="text_2">
      <!-- N-E -->
      <g transform="translate(420.656741 101.499665)scale(0.1 -0.1)">
       <defs>
        <path id="DejaVuSans-4e" d="M 628 4666 
L 1478 4666 
L 3547 763 
L 3547 4666 
L 4159 4666 
L 4159 0 
L 3309 0 
L 1241 3903 
L 1241 0 
L 628 0 
L 628 4666 
z
" transform="scale(0.015625)"/>
        <path id="DejaVuSans-2d" d="M 313 2009 
L 1997 2009 
L 1997 1497 
L 313 1497 
L 313 2009 
z
" transform="scale(0.015625)"/>
       </defs>
       <use xlink:href="#DejaVuSans-4e"/>
       <use xlink:href="#DejaVuSans-2d" x="74.804688"/>
       <use xlink:href="#DejaVuSans-45" x="110.888672"/>
      </g>
     </g>
    </g>
    <g id="xtick_3">
     <g id="line2d_3">
      <path d="M 256.54375 271.557187 
L 256.54375 41.157187 
" clip-path="url(#p7d72a07890)" style="fill: none; stroke: #b0b0b0; stroke-width: 0.8; stroke-linecap: square"/>
     </g>
     <g id="text_3">
      <!-- N -->
      <g transform="translate(252.803125 29.916562)scale(0.1 -0.1)">
       <use xlink:href="#DejaVuSans-4e"/>
      </g>
     </g>
    </g>
    <g id="xtick_4">
     <g id="line2d_4">
      <path d="M 256.54375 271.557187 
L 93.626348 108.639785 
" clip-path="url(#p7d72a07890)" style="fill: none; stroke: #b0b0b0; stroke-width: 0.8; stroke-linecap: square"/>
     </g>
     <g id="text_4">
      <!-- N-W -->
      <g transform="translate(73.438571 101.499665)scale(0.1 -0.1)">
       <defs>
        <path id="DejaVuSans-57" d="M 213 4666 
L 850 4666 
L 1831 722 
L 2809 4666 
L 3519 4666 
L 4500 722 
L 5478 4666 
L 6119 4666 
L 4947 0 
L 4153 0 
L 3169 4050 
L 2175 0 
L 1381 0 
L 213 4666 
z
" transform="scale(0.015625)"/>
       </defs>
       <use xlink:href="#DejaVuSans-4e"/>
       <use xlink:href="#DejaVuSans-2d" x="74.804688"/>
       <use xlink:href="#DejaVuSans-57" x="106.888672"/>
      </g>
     </g>
    </g>
    <g id="xtick_5">
     <g id="line2d_5">
      <path d="M 256.54375 271.557187 
L 26.14375 271.557187 
" clip-path="url(#p7d72a07890)" style="fill: none; stroke: #b0b0b0; stroke-width: 0.8; stroke-linecap: square"/>
     </g>
     <g id="text_5">
      <!-- W -->
      <g transform="translate(7.2 274.316562)scale(0.1 -0.1)">
       <use xlink:href="#DejaVuSans-57"/>
      </g>
     </g>
    </g>
    <g id="xtick_6">
     <g id="line2d_6">
      <path d="M 256.54375 271.557187 
L 93.626348 434.47459 
" clip-path="url(#p7d72a07890)" style="fill: none; stroke: #b0b0b0; stroke-width: 0.8; stroke-linecap: square"/>
     </g>
     <g id="text_6">
      <!-- S-W -->
      <g transform="translate(74.004978 447.13346)scale(0.1 -0.1)">
       <defs>
        <path id="DejaVuSans-53" d="M 3425 4513 
L 3425 3897 
Q 3066 4069 2747 4153 
Q 2428 4238 2131 4238 
Q 1616 4238 1336 4038 
Q 1056 3838 1056 3469 
Q 1056 3159 1242 3001 
Q 1428 2844 1947 2747 
L 2328 2669 
Q 3034 2534 3370 2195 
Q 3706 1856 3706 1288 
Q 3706 609 3251 259 
Q 2797 -91 1919 -91 
Q 1588 -91 1214 -16 
Q 841 59 441 206 
L 441 856 
Q 825 641 1194 531 
Q 1563 422 1919 422 
Q 2459 422 2753 634 
Q 3047 847 3047 1241 
Q 3047 1584 2836 1778 
Q 2625 1972 2144 2069 
L 1759 2144 
Q 1053 2284 737 2584 
Q 422 2884 422 3419 
Q 422 4038 858 4394 
Q 1294 4750 2059 4750 
Q 2388 4750 2728 4690 
Q 3069 4631 3425 4513 
z
" transform="scale(0.015625)"/>
       </defs>
       <use xlink:href="#DejaVuSans-53"/>
       <use xlink:href="#DejaVuSans-2d" x="63.476562"/>
       <use xlink:href="#DejaVuSans-57" x="95.560547"/>
      </g>
     </g>
    </g>
    <g id="xtick_7">
     <g id="line2d_7">
      <path d="M 256.54375 271.557187 
L 256.54375 501.957187 
" clip-path="url(#p7d72a07890)" style="fill: none; stroke: #b0b0b0; stroke-width: 0.8; stroke-linecap: square"/>
     </g>
     <g id="text_7">
      <!-- S -->
      <g transform="translate(253.369531 518.716562)scale(0.1 -0.1)">
       <use xlink:href="#DejaVuSans-53"/>
      </g>
     </g>
    </g>
    <g id="xtick_8">
     <g id="line2d_8">
      <path d="M 256.54375 271.557187 
L 419.461152 434.47459 
" clip-path="url(#p7d72a07890)" style="fill: none; stroke: #b0b0b0; stroke-width: 0.8; stroke-linecap: square"/>
     </g>
     <g id="text_8">
      <!-- S-E -->
      <g transform="translate(421.223147 447.13346)scale(0.1 -0.1)">
       <use xlink:href="#DejaVuSans-53"/>
       <use xlink:href="#DejaVuSans-2d" x="63.476562"/>
       <use xlink:href="#DejaVuSans-45" x="99.560547"/>
      </g>
     </g>
    </g>
   </g>
   <g id="matplotlib.axis_2">
    <g id="ytick_1">
     <g id="line2d_9">
      <path d="M 302.62375 271.557187 
C 302.62375 265.506017 301.431801 259.513687 299.116119 253.923135 
C 296.800436 248.332583 293.406054 243.25253 289.12723 238.973707 
C 284.848407 234.694884 279.768355 231.300501 274.177803 228.984819 
C 268.58725 226.669136 262.59492 225.477187 256.54375 225.477187 
C 250.49258 225.477187 244.50025 226.669136 238.909697 228.984819 
C 233.319145 231.300501 228.239093 234.694884 223.96027 238.973707 
C 219.681446 243.25253 216.287064 248.332583 213.971381 253.923135 
C 211.655699 259.513687 210.46375 265.506017 210.46375 271.557187 
C 210.46375 277.608358 211.655699 283.600688 213.971381 289.19124 
C 216.287064 294.781792 219.681446 299.861845 223.96027 304.140668 
C 228.239093 308.419491 233.319145 311.813874 238.909697 314.129556 
C 244.50025 316.445239 250.49258 317.637187 256.54375 317.637187 
C 262.59492 317.637187 268.58725 316.445239 274.177803 314.129556 
C 279.768355 311.813874 284.848407 308.419491 289.12723 304.140668 
C 293.406054 299.861845 296.800436 294.781792 299.116119 289.19124 
C 301.431801 283.600688 302.62375 277.608358 302.62375 271.557187 
" clip-path="url(#p7d72a07890)" style="fill: none; stroke: #b0b0b0; stroke-width: 0.8; stroke-linecap: square"/>
     </g>
     <g id="text_9">
      <!-- 37.4 -->
      <g transform="translate(274.177803 226.905131)scale(0.1 -0.1)">
       <defs>
        <path id="DejaVuSans-33" d="M 2597 2516 
Q 3050 2419 3304 2112 
Q 3559 1806 3559 1356 
Q 3559 666 3084 287 
Q 2609 -91 1734 -91 
Q 1441 -91 1130 -33 
Q 819 25 488 141 
L 488 750 
Q 750 597 1062 519 
Q 1375 441 1716 441 
Q 2309 441 2620 675 
Q 2931 909 2931 1356 
Q 2931 1769 2642 2001 
Q 2353 2234 1838 2234 
L 1294 2234 
L 1294 2753 
L 1863 2753 
Q 2328 2753 2575 2939 
Q 2822 3125 2822 3475 
Q 2822 3834 2567 4026 
Q 2313 4219 1838 4219 
Q 1578 4219 1281 4162 
Q 984 4106 628 3988 
L 628 4550 
Q 988 4650 1302 4700 
Q 1616 4750 1894 4750 
Q 2613 4750 3031 4423 
Q 3450 4097 3450 3541 
Q 3450 3153 3228 2886 
Q 3006 2619 2597 2516 
z
" transform="scale(0.015625)"/>
        <path id="DejaVuSans-37" d="M 525 4666 
L 3525 4666 
L 3525 4397 
L 1831 0 
L 1172 0 
L 2766 4134 
L 525 4134 
L 525 4666 
z
" transform="scale(0.015625)"/>
        <path id="DejaVuSans-2e" d="M 684 794 
L 1344 794 
L 1344 0 
L 684 0 
L 684 794 
z
" transform="scale(0.015625)"/>
        <path id="DejaVuSans-34" d="M 2419 4116 
L 825 1625 
L 2419 1625 
L 2419 4116 
z
M 2253 4666 
L 3047 4666 
L 3047 1625 
L 3713 1625 
L 3713 1100 
L 3047 1100 
L 3047 0 
L 2419 0 
L 2419 1100 
L 313 1100 
L 313 1709 
L 2253 4666 
z
" transform="scale(0.015625)"/>
       </defs>
       <use xlink:href="#DejaVuSans-33"/>
       <use xlink:href="#DejaVuSans-37" x="63.623047"/>
       <use xlink:href="#DejaVuSans-2e" x="127.246094"/>
       <use xlink:href="#DejaVuSans-34" x="159.033203"/>
      </g>
     </g>
    </g>
    <g id="ytick_2">
     <g id="line2d_10">
      <path d="M 348.70375 271.557187 
C 348.70375 259.454847 346.319853 247.470187 341.688488 236.289082 
C 337.057123 225.107978 330.268358 214.947873 321.710711 206.390227 
C 313.153064 197.83258 302.99296 191.043815 291.811855 186.41245 
C 280.630751 181.781085 268.64609 179.397187 256.54375 179.397187 
C 244.44141 179.397187 232.456749 181.781085 221.275645 186.41245 
C 210.09454 191.043815 199.934436 197.83258 191.376789 206.390227 
C 182.819142 214.947873 176.030377 225.107978 171.399012 236.289082 
C 166.767647 247.470187 164.38375 259.454847 164.38375 271.557187 
C 164.38375 283.659528 166.767647 295.644188 171.399012 306.825293 
C 176.030377 318.006397 182.819142 328.166502 191.376789 336.724148 
C 199.934436 345.281795 210.09454 352.07056 221.275645 356.701925 
C 232.456749 361.33329 244.44141 363.717187 256.54375 363.717187 
C 268.64609 363.717187 280.630751 361.33329 291.811855 356.701925 
C 302.99296 352.07056 313.153064 345.281795 321.710711 336.724148 
C 330.268358 328.166502 337.057123 318.006397 341.688488 306.825293 
C 346.319853 295.644188 348.70375 283.659528 348.70375 271.557187 
" clip-path="url(#p7d72a07890)" style="fill: none; stroke: #b0b0b0; stroke-width: 0.8; stroke-linecap: square"/>
     </g>
     <g id="text_10">
      <!-- 74.8 -->
      <g transform="translate(291.811855 184.332762)scale(0.1 -0.1)">
       <defs>
        <path id="DejaVuSans-38" d="M 2034 2216 
Q 1584 2216 1326 1975 
Q 1069 1734 1069 1313 
Q 1069 891 1326 650 
Q 1584 409 2034 409 
Q 2484 409 2743 651 
Q 3003 894 3003 1313 
Q 3003 1734 2745 1975 
Q 2488 2216 2034 2216 
z
M 1403 2484 
Q 997 2584 770 2862 
Q 544 3141 544 3541 
Q 544 4100 942 4425 
Q 1341 4750 2034 4750 
Q 2731 4750 3128 4425 
Q 3525 4100 3525 3541 
Q 3525 3141 3298 2862 
Q 3072 2584 2669 2484 
Q 3125 2378 3379 2068 
Q 3634 1759 3634 1313 
Q 3634 634 3220 271 
Q 2806 -91 2034 -91 
Q 1263 -91 848 271 
Q 434 634 434 1313 
Q 434 1759 690 2068 
Q 947 2378 1403 2484 
z
M 1172 3481 
Q 1172 3119 1398 2916 
Q 1625 2713 2034 2713 
Q 2441 2713 2670 2916 
Q 2900 3119 2900 3481 
Q 2900 3844 2670 4047 
Q 2441 4250 2034 4250 
Q 1625 4250 1398 4047 
Q 1172 3844 1172 3481 
z
" transform="scale(0.015625)"/>
       </defs>
       <use xlink:href="#DejaVuSans-37"/>
       <use xlink:href="#DejaVuSans-34" x="63.623047"/>
       <use xlink:href="#DejaVuSans-2e" x="127.246094"/>
       <use xlink:href="#DejaVuSans-38" x="159.033203"/>
      </g>
     </g>
    </g>
    <g id="ytick_3">
     <g id="line2d_11">
      <path d="M 394.78375 271.557187 
C 394.78375 253.403677 391.207904 235.426687 384.260857 218.65503 
C 377.313809 201.883373 367.130662 186.643216 354.294191 173.806746 
C 341.457721 160.970276 326.217564 150.787129 309.445908 143.840081 
C 292.674251 136.893033 274.69726 133.317187 256.54375 133.317187 
C 238.39024 133.317187 220.413249 136.893033 203.641592 143.840081 
C 186.869936 150.787129 171.629779 160.970276 158.793309 173.806746 
C 145.956838 186.643216 135.773691 201.883373 128.826643 218.65503 
C 121.879596 235.426687 118.30375 253.403677 118.30375 271.557187 
C 118.30375 289.710698 121.879596 307.687688 128.826643 324.459345 
C 135.773691 341.231002 145.956838 356.471159 158.793309 369.307629 
C 171.629779 382.144099 186.869936 392.327246 203.641592 399.274294 
C 220.413249 406.221342 238.39024 409.797187 256.54375 409.797187 
C 274.69726 409.797187 292.674251 406.221342 309.445908 399.274294 
C 326.217564 392.327246 341.457721 382.144099 354.294191 369.307629 
C 367.130662 356.471159 377.313809 341.231002 384.260857 324.459345 
C 391.207904 307.687688 394.78375 289.710698 394.78375 271.557187 
" clip-path="url(#p7d72a07890)" style="fill: none; stroke: #b0b0b0; stroke-width: 0.8; stroke-linecap: square"/>
     </g>
     <g id="text_11">
      <!-- 112.2 -->
      <g transform="translate(309.445908 141.760393)scale(0.1 -0.1)">
       <defs>
        <path id="DejaVuSans-31" d="M 794 531 
L 1825 531 
L 1825 4091 
L 703 3866 
L 703 4441 
L 1819 4666 
L 2450 4666 
L 2450 531 
L 3481 531 
L 3481 0 
L 794 0 
L 794 531 
z
" transform="scale(0.015625)"/>
        <path id="DejaVuSans-32" d="M 1228 531 
L 3431 531 
L 3431 0 
L 469 0 
L 469 531 
Q 828 903 1448 1529 
Q 2069 2156 2228 2338 
Q 2531 2678 2651 2914 
Q 2772 3150 2772 3378 
Q 2772 3750 2511 3984 
Q 2250 4219 1831 4219 
Q 1534 4219 1204 4116 
Q 875 4013 500 3803 
L 500 4441 
Q 881 4594 1212 4672 
Q 1544 4750 1819 4750 
Q 2544 4750 2975 4387 
Q 3406 4025 3406 3419 
Q 3406 3131 3298 2873 
Q 3191 2616 2906 2266 
Q 2828 2175 2409 1742 
Q 1991 1309 1228 531 
z
" transform="scale(0.015625)"/>
       </defs>
       <use xlink:href="#DejaVuSans-31"/>
       <use xlink:href="#DejaVuSans-31" x="63.623047"/>
       <use xlink:href="#DejaVuSans-32" x="127.246094"/>
       <use xlink:href="#DejaVuSans-2e" x="190.869141"/>
       <use xlink:href="#DejaVuSans-32" x="222.65625"/>
      </g>
     </g>
    </g>
    <g id="ytick_4">
     <g id="line2d_12">
      <path d="M 440.86375 271.557187 
C 440.86375 247.352507 436.095956 223.383186 426.833225 201.020977 
C 417.570495 178.658768 403.992966 158.338559 386.877672 141.223266 
C 369.762378 124.107972 349.442169 110.530442 327.07996 101.267712 
C 304.717751 92.004982 280.748431 87.237187 256.54375 87.237187 
C 232.339069 87.237187 208.369749 92.004982 186.00754 101.267712 
C 163.645331 110.530442 143.325122 124.107972 126.209828 141.223266 
C 109.094534 158.338559 95.517005 178.658768 86.254275 201.020977 
C 76.991544 223.383186 72.22375 247.352507 72.22375 271.557187 
C 72.22375 295.761868 76.991544 319.731189 86.254275 342.093398 
C 95.517005 364.455607 109.094534 384.775816 126.209828 401.891109 
C 143.325122 419.006403 163.645331 432.583933 186.00754 441.846663 
C 208.369749 451.109393 232.339069 455.877187 256.54375 455.877187 
C 280.748431 455.877187 304.717751 451.109393 327.07996 441.846663 
C 349.442169 432.583933 369.762378 419.006403 386.877672 401.891109 
C 403.992966 384.775816 417.570495 364.455607 426.833225 342.093398 
C 436.095956 319.731189 440.86375 295.761868 440.86375 271.557187 
" clip-path="url(#p7d72a07890)" style="fill: none; stroke: #b0b0b0; stroke-width: 0.8; stroke-linecap: square"/>
     </g>
     <g id="text_12">
      <!-- 149.6 -->
      <g transform="translate(327.07996 99.188025)scale(0.1 -0.1)">
       <defs>
        <path id="DejaVuSans-39" d="M 703 97 
L 703 672 
Q 941 559 1184 500 
Q 1428 441 1663 441 
Q 2288 441 2617 861 
Q 2947 1281 2994 2138 
Q 2813 1869 2534 1725 
Q 2256 1581 1919 1581 
Q 1219 1581 811 2004 
Q 403 2428 403 3163 
Q 403 3881 828 4315 
Q 1253 4750 1959 4750 
Q 2769 4750 3195 4129 
Q 3622 3509 3622 2328 
Q 3622 1225 3098 567 
Q 2575 -91 1691 -91 
Q 1453 -91 1209 -44 
Q 966 3 703 97 
z
M 1959 2075 
Q 2384 2075 2632 2365 
Q 2881 2656 2881 3163 
Q 2881 3666 2632 3958 
Q 2384 4250 1959 4250 
Q 1534 4250 1286 3958 
Q 1038 3666 1038 3163 
Q 1038 2656 1286 2365 
Q 1534 2075 1959 2075 
z
" transform="scale(0.015625)"/>
        <path id="DejaVuSans-36" d="M 2113 2584 
Q 1688 2584 1439 2293 
Q 1191 2003 1191 1497 
Q 1191 994 1439 701 
Q 1688 409 2113 409 
Q 2538 409 2786 701 
Q 3034 994 3034 1497 
Q 3034 2003 2786 2293 
Q 2538 2584 2113 2584 
z
M 3366 4563 
L 3366 3988 
Q 3128 4100 2886 4159 
Q 2644 4219 2406 4219 
Q 1781 4219 1451 3797 
Q 1122 3375 1075 2522 
Q 1259 2794 1537 2939 
Q 1816 3084 2150 3084 
Q 2853 3084 3261 2657 
Q 3669 2231 3669 1497 
Q 3669 778 3244 343 
Q 2819 -91 2113 -91 
Q 1303 -91 875 529 
Q 447 1150 447 2328 
Q 447 3434 972 4092 
Q 1497 4750 2381 4750 
Q 2619 4750 2861 4703 
Q 3103 4656 3366 4563 
z
" transform="scale(0.015625)"/>
       </defs>
       <use xlink:href="#DejaVuSans-31"/>
       <use xlink:href="#DejaVuSans-34" x="63.623047"/>
       <use xlink:href="#DejaVuSans-39" x="127.246094"/>
       <use xlink:href="#DejaVuSans-2e" x="190.869141"/>
       <use xlink:href="#DejaVuSans-36" x="222.65625"/>
      </g>
     </g>
    </g>
    <g id="ytick_5">
     <g id="line2d_13">
      <path d="M 486.94375 271.557187 
C 486.94375 241.301337 480.984007 211.339686 469.405594 183.386925 
C 457.827181 155.434163 440.85527 130.033902 419.461152 108.639785 
C 398.067035 87.245668 372.666774 70.273756 344.714013 58.695343 
C 316.761252 47.11693 286.799601 41.157187 256.54375 41.157187 
C 226.287899 41.157187 196.326248 47.11693 168.373487 58.695343 
C 140.420726 70.273756 115.020465 87.245668 93.626348 108.639785 
C 72.23223 130.033902 55.260319 155.434163 43.681906 183.386925 
C 32.103493 211.339686 26.14375 241.301337 26.14375 271.557187 
C 26.14375 301.813038 32.103493 331.774689 43.681906 359.72745 
C 55.260319 387.680212 72.23223 413.080473 93.626348 434.47459 
C 115.020465 455.868707 140.420726 472.840619 168.373487 484.419032 
C 196.326248 495.997445 226.287899 501.957187 256.54375 501.957187 
C 286.799601 501.957187 316.761252 495.997445 344.714013 484.419032 
C 372.666774 472.840619 398.067035 455.868707 419.461152 434.47459 
C 440.85527 413.080473 457.827181 387.680212 469.405594 359.72745 
C 480.984007 331.774689 486.94375 301.813038 486.94375 271.557187 
" clip-path="url(#p7d72a07890)" style="fill: none; stroke: #b0b0b0; stroke-width: 0.8; stroke-linecap: square"/>
     </g>
     <g id="text_13">
      <!-- 187.0 -->
      <g transform="translate(344.714013 56.615656)scale(0.1 -0.1)">
       <defs>
        <path id="DejaVuSans-30" d="M 2034 4250 
Q 1547 4250 1301 3770 
Q 1056 3291 1056 2328 
Q 1056 1369 1301 889 
Q 1547 409 2034 409 
Q 2525 409 2770 889 
Q 3016 1369 3016 2328 
Q 3016 3291 2770 3770 
Q 2525 4250 2034 4250 
z
M 2034 4750 
Q 2819 4750 3233 4129 
Q 3647 3509 3647 2328 
Q 3647 1150 3233 529 
Q 2819 -91 2034 -91 
Q 1250 -91 836 529 
Q 422 1150 422 2328 
Q 422 3509 836 4129 
Q 1250 4750 2034 4750 
z
" transform="scale(0.015625)"/>
       </defs>
       <use xlink:href="#DejaVuSans-31"/>
       <use xlink:href="#DejaVuSans-38" x="63.623047"/>
       <use xlink:href="#DejaVuSans-37" x="127.246094"/>
       <use xlink:href="#DejaVuSans-2e" x="190.869141"/>
       <use xlink:href="#DejaVuSans-30" x="222.65625"/>
      </g>
     </g>
    </g>
   </g>
   <g id="patch_115">
    <path d="M 486.94375 271.557187 
C 486.94375 241.301337 480.984007 211.339686 469.405594 183.386925 
C 457.827181 155.434163 440.85527 130.033902 419.461152 108.639785 
C 398.067035 87.245668 372.666774 70.273756 344.714013 58.695343 
C 316.761252 47.11693 286.799601 41.157187 256.54375 41.157187 
C 226.287899 41.157187 196.326248 47.11693 168.373487 58.695343 
C 140.420726 70.273756 115.020465 87.245668 93.626348 108.639785 
C 72.23223 130.033902 55.260319 155.434163 43.681906 183.386925 
C 32.103493 211.339686 26.14375 241.301337 26.14375 271.557187 
C 26.14375 301.813038 32.103493 331.774689 43.681906 359.72745 
C 55.260319 387.680212 72.23223 413.080473 93.626348 434.47459 
C 115.020465 455.868707 140.420726 472.840619 168.373487 484.419032 
C 196.326248 495.997445 226.287899 501.957187 256.54375 501.957187 
C 286.799601 501.957187 316.761252 495.997445 344.714013 484.419032 
C 372.666774 472.840619 398.067035 455.868707 419.461152 434.47459 
C 440.85527 413.080473 457.827181 387.680212 469.405594 359.72745 
C 480.984007 331.774689 486.94375 301.813038 486.94375 271.557187 
" style="fill: none; stroke: #000000; stroke-width: 0.8; stroke-linejoin: miter; stroke-linecap: square"/>
   </g>
   <g id="text_14">
    <!-- 10m height FFP Area -->
    <g transform="translate(193.894375 16.318125)scale(0.12 -0.12)">
     <defs>
      <path id="DejaVuSans-6d" d="M 3328 2828 
Q 3544 3216 3844 3400 
Q 4144 3584 4550 3584 
Q 5097 3584 5394 3201 
Q 5691 2819 5691 2113 
L 5691 0 
L 5113 0 
L 5113 2094 
Q 5113 2597 4934 2840 
Q 4756 3084 4391 3084 
Q 3944 3084 3684 2787 
Q 3425 2491 3425 1978 
L 3425 0 
L 2847 0 
L 2847 2094 
Q 2847 2600 2669 2842 
Q 2491 3084 2119 3084 
Q 1678 3084 1418 2786 
Q 1159 2488 1159 1978 
L 1159 0 
L 581 0 
L 581 3500 
L 1159 3500 
L 1159 2956 
Q 1356 3278 1631 3431 
Q 1906 3584 2284 3584 
Q 2666 3584 2933 3390 
Q 3200 3197 3328 2828 
z
" transform="scale(0.015625)"/>
      <path id="DejaVuSans-20" transform="scale(0.015625)"/>
      <path id="DejaVuSans-68" d="M 3513 2113 
L 3513 0 
L 2938 0 
L 2938 2094 
Q 2938 2591 2744 2837 
Q 2550 3084 2163 3084 
Q 1697 3084 1428 2787 
Q 1159 2491 1159 1978 
L 1159 0 
L 581 0 
L 581 4863 
L 1159 4863 
L 1159 2956 
Q 1366 3272 1645 3428 
Q 1925 3584 2291 3584 
Q 2894 3584 3203 3211 
Q 3513 2838 3513 2113 
z
" transform="scale(0.015625)"/>
      <path id="DejaVuSans-65" d="M 3597 1894 
L 3597 1613 
L 953 1613 
Q 991 1019 1311 708 
Q 1631 397 2203 397 
Q 2534 397 2845 478 
Q 3156 559 3463 722 
L 3463 178 
Q 3153 47 2828 -22 
Q 2503 -91 2169 -91 
Q 1331 -91 842 396 
Q 353 884 353 1716 
Q 353 2575 817 3079 
Q 1281 3584 2069 3584 
Q 2775 3584 3186 3129 
Q 3597 2675 3597 1894 
z
M 3022 2063 
Q 3016 2534 2758 2815 
Q 2500 3097 2075 3097 
Q 1594 3097 1305 2825 
Q 1016 2553 972 2059 
L 3022 2063 
z
" transform="scale(0.015625)"/>
      <path id="DejaVuSans-69" d="M 603 3500 
L 1178 3500 
L 1178 0 
L 603 0 
L 603 3500 
z
M 603 4863 
L 1178 4863 
L 1178 4134 
L 603 4134 
L 603 4863 
z
" transform="scale(0.015625)"/>
      <path id="DejaVuSans-67" d="M 2906 1791 
Q 2906 2416 2648 2759 
Q 2391 3103 1925 3103 
Q 1463 3103 1205 2759 
Q 947 2416 947 1791 
Q 947 1169 1205 825 
Q 1463 481 1925 481 
Q 2391 481 2648 825 
Q 2906 1169 2906 1791 
z
M 3481 434 
Q 3481 -459 3084 -895 
Q 2688 -1331 1869 -1331 
Q 1566 -1331 1297 -1286 
Q 1028 -1241 775 -1147 
L 775 -588 
Q 1028 -725 1275 -790 
Q 1522 -856 1778 -856 
Q 2344 -856 2625 -561 
Q 2906 -266 2906 331 
L 2906 616 
Q 2728 306 2450 153 
Q 2172 0 1784 0 
Q 1141 0 747 490 
Q 353 981 353 1791 
Q 353 2603 747 3093 
Q 1141 3584 1784 3584 
Q 2172 3584 2450 3431 
Q 2728 3278 2906 2969 
L 2906 3500 
L 3481 3500 
L 3481 434 
z
" transform="scale(0.015625)"/>
      <path id="DejaVuSans-74" d="M 1172 4494 
L 1172 3500 
L 2356 3500 
L 2356 3053 
L 1172 3053 
L 1172 1153 
Q 1172 725 1289 603 
Q 1406 481 1766 481 
L 2356 481 
L 2356 0 
L 1766 0 
Q 1100 0 847 248 
Q 594 497 594 1153 
L 594 3053 
L 172 3053 
L 172 3500 
L 594 3500 
L 594 4494 
L 1172 4494 
z
" transform="scale(0.015625)"/>
      <path id="DejaVuSans-46" d="M 628 4666 
L 3309 4666 
L 3309 4134 
L 1259 4134 
L 1259 2759 
L 3109 2759 
L 3109 2228 
L 1259 2228 
L 1259 0 
L 628 0 
L 628 4666 
z
" transform="scale(0.015625)"/>
      <path id="DejaVuSans-50" d="M 1259 4147 
L 1259 2394 
L 2053 2394 
Q 2494 2394 2734 2622 
Q 2975 2850 2975 3272 
Q 2975 3691 2734 3919 
Q 2494 4147 2053 4147 
L 1259 4147 
z
M 628 4666 
L 2053 4666 
Q 2838 4666 3239 4311 
Q 3641 3956 3641 3272 
Q 3641 2581 3239 2228 
Q 2838 1875 2053 1875 
L 1259 1875 
L 1259 0 
L 628 0 
L 628 4666 
z
" transform="scale(0.015625)"/>
      <path id="DejaVuSans-41" d="M 2188 4044 
L 1331 1722 
L 3047 1722 
L 2188 4044 
z
M 1831 4666 
L 2547 4666 
L 4325 0 
L 3669 0 
L 3244 1197 
L 1141 1197 
L 716 0 
L 50 0 
L 1831 4666 
z
" transform="scale(0.015625)"/>
      <path id="DejaVuSans-72" d="M 2631 2963 
Q 2534 3019 2420 3045 
Q 2306 3072 2169 3072 
Q 1681 3072 1420 2755 
Q 1159 2438 1159 1844 
L 1159 0 
L 581 0 
L 581 3500 
L 1159 3500 
L 1159 2956 
Q 1341 3275 1631 3429 
Q 1922 3584 2338 3584 
Q 2397 3584 2469 3576 
Q 2541 3569 2628 3553 
L 2631 2963 
z
" transform="scale(0.015625)"/>
      <path id="DejaVuSans-61" d="M 2194 1759 
Q 1497 1759 1228 1600 
Q 959 1441 959 1056 
Q 959 750 1161 570 
Q 1363 391 1709 391 
Q 2188 391 2477 730 
Q 2766 1069 2766 1631 
L 2766 1759 
L 2194 1759 
z
M 3341 1997 
L 3341 0 
L 2766 0 
L 2766 531 
Q 2569 213 2275 61 
Q 1981 -91 1556 -91 
Q 1019 -91 701 211 
Q 384 513 384 1019 
Q 384 1609 779 1909 
Q 1175 2209 1959 2209 
L 2766 2209 
L 2766 2266 
Q 2766 2663 2505 2880 
Q 2244 3097 1772 3097 
Q 1472 3097 1187 3025 
Q 903 2953 641 2809 
L 641 3341 
Q 956 3463 1253 3523 
Q 1550 3584 1831 3584 
Q 2591 3584 2966 3190 
Q 3341 2797 3341 1997 
z
" transform="scale(0.015625)"/>
     </defs>
     <use xlink:href="#DejaVuSans-31"/>
     <use xlink:href="#DejaVuSans-30" x="63.623047"/>
     <use xlink:href="#DejaVuSans-6d" x="127.246094"/>
     <use xlink:href="#DejaVuSans-20" x="224.658203"/>
     <use xlink:href="#DejaVuSans-68" x="256.445312"/>
     <use xlink:href="#DejaVuSans-65" x="319.824219"/>
     <use xlink:href="#DejaVuSans-69" x="381.347656"/>
     <use xlink:href="#DejaVuSans-67" x="409.130859"/>
     <use xlink:href="#DejaVuSans-68" x="472.607422"/>
     <use xlink:href="#DejaVuSans-74" x="535.986328"/>
     <use xlink:href="#DejaVuSans-20" x="575.195312"/>
     <use xlink:href="#DejaVuSans-46" x="606.982422"/>
     <use xlink:href="#DejaVuSans-46" x="664.501953"/>
     <use xlink:href="#DejaVuSans-50" x="722.021484"/>
     <use xlink:href="#DejaVuSans-20" x="782.324219"/>
     <use xlink:href="#DejaVuSans-41" x="814.111328"/>
     <use xlink:href="#DejaVuSans-72" x="882.519531"/>
     <use xlink:href="#DejaVuSans-65" x="921.382812"/>
     <use xlink:href="#DejaVuSans-61" x="982.90625"/>
    </g>
   </g>
   <g id="legend_1">
    <g id="patch_116">
     <path d="M 381.47625 224.803437 
L 484.94375 224.803437 
Q 488.94375 224.803437 488.94375 220.803437 
L 488.94375 43.157187 
Q 488.94375 39.157187 484.94375 39.157187 
L 381.47625 39.157187 
Q 377.47625 39.157187 377.47625 43.157187 
L 377.47625 220.803437 
Q 377.47625 224.803437 381.47625 224.803437 
z
" style="fill: #ffffff; opacity: 0.8; stroke: #cccccc; stroke-linejoin: miter"/>
    </g>
    <g id="patch_117">
     <path d="M 385.47625 61.157187 
L 425.47625 61.157187 
L 425.47625 47.157187 
L 385.47625 47.157187 
z
" style="fill: #440154; stroke: #000000; stroke-linejoin: miter"/>
    </g>
    <g id="text_15">
     <!-- [0.0 : 0.1) -->
     <g transform="translate(441.47625 61.157187)scale(0.08 -0.08)">
      <defs>
       <path id="DejaVuSans-5b" d="M 550 4863 
L 1875 4863 
L 1875 4416 
L 1125 4416 
L 1125 -397 
L 1875 -397 
L 1875 -844 
L 550 -844 
L 550 4863 
z
" transform="scale(0.015625)"/>
       <path id="DejaVuSans-3a" d="M 750 794 
L 1409 794 
L 1409 0 
L 750 0 
L 750 794 
z
M 750 3309 
L 1409 3309 
L 1409 2516 
L 750 2516 
L 750 3309 
z
" transform="scale(0.015625)"/>
       <path id="DejaVuSans-29" d="M 513 4856 
L 1013 4856 
Q 1481 4119 1714 3412 
Q 1947 2706 1947 2009 
Q 1947 1309 1714 600 
Q 1481 -109 1013 -844 
L 513 -844 
Q 928 -128 1133 580 
Q 1338 1288 1338 2009 
Q 1338 2731 1133 3434 
Q 928 4138 513 4856 
z
" transform="scale(0.015625)"/>
      </defs>
      <use xlink:href="#DejaVuSans-5b"/>
      <use xlink:href="#DejaVuSans-30" x="39.013672"/>
      <use xlink:href="#DejaVuSans-2e" x="102.636719"/>
      <use xlink:href="#DejaVuSans-30" x="134.423828"/>
      <use xlink:href="#DejaVuSans-20" x="198.046875"/>
      <use xlink:href="#DejaVuSans-3a" x="229.833984"/>
      <use xlink:href="#DejaVuSans-20" x="263.525391"/>
      <use xlink:href="#DejaVuSans-30" x="295.3125"/>
      <use xlink:href="#DejaVuSans-2e" x="358.935547"/>
      <use xlink:href="#DejaVuSans-31" x="390.722656"/>
      <use xlink:href="#DejaVuSans-29" x="454.345703"/>
     </g>
    </g>
    <g id="patch_118">
     <path d="M 385.47625 86.820937 
L 425.47625 86.820937 
L 425.47625 72.820937 
L 385.47625 72.820937 
z
" style="fill: #443983; stroke: #000000; stroke-linejoin: miter"/>
    </g>
    <g id="text_16">
     <!-- [0.1 : 0.2) -->
     <g transform="translate(441.47625 86.820937)scale(0.08 -0.08)">
      <use xlink:href="#DejaVuSans-5b"/>
      <use xlink:href="#DejaVuSans-30" x="39.013672"/>
      <use xlink:href="#DejaVuSans-2e" x="102.636719"/>
      <use xlink:href="#DejaVuSans-31" x="134.423828"/>
      <use xlink:href="#DejaVuSans-20" x="198.046875"/>
      <use xlink:href="#DejaVuSans-3a" x="229.833984"/>
      <use xlink:href="#DejaVuSans-20" x="263.525391"/>
      <use xlink:href="#DejaVuSans-30" x="295.3125"/>
      <use xlink:href="#DejaVuSans-2e" x="358.935547"/>
      <use xlink:href="#DejaVuSans-32" x="390.722656"/>
      <use xlink:href="#DejaVuSans-29" x="454.345703"/>
     </g>
    </g>
    <g id="patch_119">
     <path d="M 385.47625 112.484687 
L 425.47625 112.484687 
L 425.47625 98.484687 
L 385.47625 98.484687 
z
" style="fill: #31688e; stroke: #000000; stroke-linejoin: miter"/>
    </g>
    <g id="text_17">
     <!-- [0.2 : 0.5) -->
     <g transform="translate(441.47625 112.484687)scale(0.08 -0.08)">
      <defs>
       <path id="DejaVuSans-35" d="M 691 4666 
L 3169 4666 
L 3169 4134 
L 1269 4134 
L 1269 2991 
Q 1406 3038 1543 3061 
Q 1681 3084 1819 3084 
Q 2600 3084 3056 2656 
Q 3513 2228 3513 1497 
Q 3513 744 3044 326 
Q 2575 -91 1722 -91 
Q 1428 -91 1123 -41 
Q 819 9 494 109 
L 494 744 
Q 775 591 1075 516 
Q 1375 441 1709 441 
Q 2250 441 2565 725 
Q 2881 1009 2881 1497 
Q 2881 1984 2565 2268 
Q 2250 2553 1709 2553 
Q 1456 2553 1204 2497 
Q 953 2441 691 2322 
L 691 4666 
z
" transform="scale(0.015625)"/>
      </defs>
      <use xlink:href="#DejaVuSans-5b"/>
      <use xlink:href="#DejaVuSans-30" x="39.013672"/>
      <use xlink:href="#DejaVuSans-2e" x="102.636719"/>
      <use xlink:href="#DejaVuSans-32" x="134.423828"/>
      <use xlink:href="#DejaVuSans-20" x="198.046875"/>
      <use xlink:href="#DejaVuSans-3a" x="229.833984"/>
      <use xlink:href="#DejaVuSans-20" x="263.525391"/>
      <use xlink:href="#DejaVuSans-30" x="295.3125"/>
      <use xlink:href="#DejaVuSans-2e" x="358.935547"/>
      <use xlink:href="#DejaVuSans-35" x="390.722656"/>
      <use xlink:href="#DejaVuSans-29" x="454.345703"/>
     </g>
    </g>
    <g id="patch_120">
     <path d="M 385.47625 138.148437 
L 425.47625 138.148437 
L 425.47625 124.148437 
L 385.47625 124.148437 
z
" style="fill: #21918c; stroke: #000000; stroke-linejoin: miter"/>
    </g>
    <g id="text_18">
     <!-- [0.5 : 1.0) -->
     <g transform="translate(441.47625 138.148437)scale(0.08 -0.08)">
      <use xlink:href="#DejaVuSans-5b"/>
      <use xlink:href="#DejaVuSans-30" x="39.013672"/>
      <use xlink:href="#DejaVuSans-2e" x="102.636719"/>
      <use xlink:href="#DejaVuSans-35" x="134.423828"/>
      <use xlink:href="#DejaVuSans-20" x="198.046875"/>
      <use xlink:href="#DejaVuSans-3a" x="229.833984"/>
      <use xlink:href="#DejaVuSans-20" x="263.525391"/>
      <use xlink:href="#DejaVuSans-31" x="295.3125"/>
      <use xlink:href="#DejaVuSans-2e" x="358.935547"/>
      <use xlink:href="#DejaVuSans-30" x="390.722656"/>
      <use xlink:href="#DejaVuSans-29" x="454.345703"/>
     </g>
    </g>
    <g id="patch_121">
     <path d="M 385.47625 163.812187 
L 425.47625 163.812187 
L 425.47625 149.812187 
L 385.47625 149.812187 
z
" style="fill: #35b779; stroke: #000000; stroke-linejoin: miter"/>
    </g>
    <g id="text_19">
     <!-- [1.0 : 2.0) -->
     <g transform="translate(441.47625 163.812187)scale(0.08 -0.08)">
      <use xlink:href="#DejaVuSans-5b"/>
      <use xlink:href="#DejaVuSans-31" x="39.013672"/>
      <use xlink:href="#DejaVuSans-2e" x="102.636719"/>
      <use xlink:href="#DejaVuSans-30" x="134.423828"/>
      <use xlink:href="#DejaVuSans-20" x="198.046875"/>
      <use xlink:href="#DejaVuSans-3a" x="229.833984"/>
      <use xlink:href="#DejaVuSans-20" x="263.525391"/>
      <use xlink:href="#DejaVuSans-32" x="295.3125"/>
      <use xlink:href="#DejaVuSans-2e" x="358.935547"/>
      <use xlink:href="#DejaVuSans-30" x="390.722656"/>
      <use xlink:href="#DejaVuSans-29" x="454.345703"/>
     </g>
    </g>
    <g id="patch_122">
     <path d="M 385.47625 189.475937 
L 425.47625 189.475937 
L 425.47625 175.475937 
L 385.47625 175.475937 
z
" style="fill: #90d743; stroke: #000000; stroke-linejoin: miter"/>
    </g>
    <g id="text_20">
     <!-- [2.0 : 3.0) -->
     <g transform="translate(441.47625 189.475937)scale(0.08 -0.08)">
      <use xlink:href="#DejaVuSans-5b"/>
      <use xlink:href="#DejaVuSans-32" x="39.013672"/>
      <use xlink:href="#DejaVuSans-2e" x="102.636719"/>
      <use xlink:href="#DejaVuSans-30" x="134.423828"/>
      <use xlink:href="#DejaVuSans-20" x="198.046875"/>
      <use xlink:href="#DejaVuSans-3a" x="229.833984"/>
      <use xlink:href="#DejaVuSans-20" x="263.525391"/>
      <use xlink:href="#DejaVuSans-33" x="295.3125"/>
      <use xlink:href="#DejaVuSans-2e" x="358.935547"/>
      <use xlink:href="#DejaVuSans-30" x="390.722656"/>
      <use xlink:href="#DejaVuSans-29" x="454.345703"/>
     </g>
    </g>
    <g id="patch_123">
     <path d="M 385.47625 215.139687 
L 425.47625 215.139687 
L 425.47625 201.139687 
L 385.47625 201.139687 
z
" style="fill: #fde725; stroke: #000000; stroke-linejoin: miter"/>
    </g>
    <g id="text_21">
     <!-- &gt;3.0 -->
     <g transform="translate(441.47625 215.139687)scale(0.08 -0.08)">
      <defs>
       <path id="DejaVuSans-3e" d="M 678 3150 
L 678 3719 
L 4684 2266 
L 4684 1747 
L 678 294 
L 678 863 
L 3897 2003 
L 678 3150 
z
" transform="scale(0.015625)"/>
      </defs>
      <use xlink:href="#DejaVuSans-3e"/>
      <use xlink:href="#DejaVuSans-33" x="83.789062"/>
      <use xlink:href="#DejaVuSans-2e" x="147.412109"/>
      <use xlink:href="#DejaVuSans-30" x="179.199219"/>
     </g>
    </g>
   </g>
  </g>
 </g>
 <defs>
  <clipPath id="p7d72a07890">
   <path d="M 486.94375 271.557187 
C 486.94375 241.301337 480.984007 211.339686 469.405594 183.386925 
C 457.827181 155.434163 440.85527 130.033902 419.461152 108.639785 
C 398.067035 87.245668 372.666774 70.273756 344.714013 58.695343 
C 316.761252 47.11693 286.799601 41.157187 256.54375 41.157187 
C 226.287899 41.157187 196.326248 47.11693 168.373487 58.695343 
C 140.420726 70.273756 115.020465 87.245668 93.626348 108.639785 
C 72.23223 130.033902 55.260319 155.434163 43.681906 183.386925 
C 32.103493 211.339686 26.14375 241.301337 26.14375 271.557187 
C 26.14375 301.813038 32.103493 331.774689 43.681906 359.72745 
C 55.260319 387.680212 72.23223 413.080473 93.626348 434.47459 
C 115.020465 455.868707 140.420726 472.840619 168.373487 484.419032 
C 196.326248 495.997445 226.287899 501.957187 256.54375 501.957187 
C 286.799601 501.957187 316.761252 495.997445 344.714013 484.419032 
C 372.666774 472.840619 398.067035 455.868707 419.461152 434.47459 
C 440.85527 413.080473 457.827181 387.680212 469.405594 359.72745 
C 480.984007 331.774689 486.94375 301.813038 486.94375 271.557187 
M 256.54375 271.557187 
C 256.54375 271.557187 256.54375 271.557187 256.54375 271.557187 
C 256.54375 271.557187 256.54375 271.557187 256.54375 271.557187 
C 256.54375 271.557187 256.54375 271.557187 256.54375 271.557187 
C 256.54375 271.557187 256.54375 271.557187 256.54375 271.557187 
C 256.54375 271.557187 256.54375 271.557187 256.54375 271.557187 
C 256.54375 271.557187 256.54375 271.557187 256.54375 271.557187 
C 256.54375 271.557187 256.54375 271.557187 256.54375 271.557187 
C 256.54375 271.557187 256.54375 271.557187 256.54375 271.557187 
C 256.54375 271.557187 256.54375 271.557187 256.54375 271.557187 
C 256.54375 271.557187 256.54375 271.557187 256.54375 271.557187 
C 256.54375 271.557187 256.54375 271.557187 256.54375 271.557187 
C 256.54375 271.557187 256.54375 271.557187 256.54375 271.557187 
C 256.54375 271.557187 256.54375 271.557187 256.54375 271.557187 
C 256.54375 271.557187 256.54375 271.557187 256.54375 271.557187 
C 256.54375 271.557187 256.54375 271.557187 256.54375 271.557187 
C 256.54375 271.557187 256.54375 271.557187 256.54375 271.557187 
M 486.94375 271.557187 
z
"/>
  </clipPath>
 </defs>
</svg>
