<?xml version="1.0" encoding="utf-8" standalone="no"?>
<!DOCTYPE svg PUBLIC "-//W3C//DTD SVG 1.1//EN"
  "http://www.w3.org/Graphics/SVG/1.1/DTD/svg11.dtd">
<svg xmlns:xlink="http://www.w3.org/1999/xlink" width="511.303125pt" height="527.99625pt" viewBox="0 0 511.303125 527.99625" xmlns="http://www.w3.org/2000/svg" version="1.1">
 <metadata>
  <rdf:RDF xmlns:dc="http://purl.org/dc/elements/1.1/" xmlns:cc="http://creativecommons.org/ns#" xmlns:rdf="http://www.w3.org/1999/02/22-rdf-syntax-ns#">
   <cc:Work>
    <dc:type rdf:resource="http://purl.org/dc/dcmitype/StillImage"/>
    <dc:date>2023-09-28T13:33:56.044722</dc:date>
    <dc:format>image/svg+xml</dc:format>
    <dc:creator>
     <cc:Agent>
      <dc:title>Matplotlib v3.5.2, https://matplotlib.org/</dc:title>
     </cc:Agent>
    </dc:creator>
   </cc:Work>
  </rdf:RDF>
 </metadata>
 <defs>
  <style type="text/css">*{stroke-linejoin: round; stroke-linecap: butt}</style>
 </defs>
 <g id="figure_1">
  <g id="patch_1">
   <path d="M 0 527.99625 
L 511.303125 527.99625 
L 511.303125 0 
L 0 0 
z
" style="fill: #ffffff"/>
  </g>
  <g id="axes_1">
   <g id="patch_2">
    <path d="M 486.94375 271.557187 
C 486.94375 241.301337 480.984007 211.339686 469.405594 183.386925 
C 457.827181 155.434163 440.85527 130.033902 419.461152 108.639785 
C 398.067035 87.245668 372.666774 70.273756 344.714013 58.695343 
C 316.761252 47.11693 286.799601 41.157187 256.54375 41.157187 
C 226.287899 41.157187 196.326248 47.11693 168.373487 58.695343 
C 140.420726 70.273756 115.020465 87.245668 93.626348 108.639785 
C 72.23223 130.033902 55.260319 155.434163 43.681906 183.386925 
C 32.103493 211.339686 26.14375 241.301337 26.14375 271.557187 
C 26.14375 301.813038 32.103493 331.774689 43.681906 359.72745 
C 55.260319 387.680212 72.23223 413.080473 93.626348 434.47459 
C 115.020465 455.868707 140.420726 472.840619 168.373487 484.419032 
C 196.326248 495.997445 226.287899 501.957187 256.54375 501.957187 
C 286.799601 501.957187 316.761252 495.997445 344.714013 484.419032 
C 372.666774 472.840619 398.067035 455.868707 419.461152 434.47459 
C 440.85527 413.080473 457.827181 387.680212 469.405594 359.72745 
C 480.984007 331.774689 486.94375 301.813038 486.94375 271.557187 
M 256.54375 271.557187 
C 256.54375 271.557187 256.54375 271.557187 256.54375 271.557187 
C 256.54375 271.557187 256.54375 271.557187 256.54375 271.557187 
C 256.54375 271.557187 256.54375 271.557187 256.54375 271.557187 
C 256.54375 271.557187 256.54375 271.557187 256.54375 271.557187 
C 256.54375 271.557187 256.54375 271.557187 256.54375 271.557187 
C 256.54375 271.557187 256.54375 271.557187 256.54375 271.557187 
C 256.54375 271.557187 256.54375 271.557187 256.54375 271.557187 
C 256.54375 271.557187 256.54375 271.557187 256.54375 271.557187 
C 256.54375 271.557187 256.54375 271.557187 256.54375 271.557187 
C 256.54375 271.557187 256.54375 271.557187 256.54375 271.557187 
C 256.54375 271.557187 256.54375 271.557187 256.54375 271.557187 
C 256.54375 271.557187 256.54375 271.557187 256.54375 271.557187 
C 256.54375 271.557187 256.54375 271.557187 256.54375 271.557187 
C 256.54375 271.557187 256.54375 271.557187 256.54375 271.557187 
C 256.54375 271.557187 256.54375 271.557187 256.54375 271.557187 
C 256.54375 271.557187 256.54375 271.557187 256.54375 271.557187 
M 486.94375 271.557187 
z
" style="fill: #ffffff"/>
   </g>
   <g id="patch_3">
    <path d="M 261.185203 248.223026 
C 259.65676 247.919 258.102137 247.765883 256.54375 247.765883 
C 254.985363 247.765883 253.43074 247.919 251.902297 248.223026 
L 251.902297 248.223026 
C 253.43074 247.919 254.985363 247.765883 256.54375 247.765883 
C 258.102137 247.765883 259.65676 247.919 261.185203 248.223026 
z
" clip-path="url(#pf46d70c56e)" style="fill: #fde725; stroke: #ffffff; stroke-linejoin: miter"/>
   </g>
   <g id="patch_4">
    <path d="M 302.458006 202.841647 
C 297.956976 199.834154 293.171317 197.276166 288.17004 195.204569 
C 283.168762 193.132972 277.976021 191.557771 272.666693 190.501681 
L 273.399554 186.817339 
C 278.950215 187.921434 284.37899 189.568235 289.607599 191.733996 
C 294.836207 193.899756 299.839395 196.574016 304.545018 199.718213 
z
" clip-path="url(#pf46d70c56e)" style="fill: #fde725; stroke: #ffffff; stroke-linejoin: miter"/>
   </g>
   <g id="patch_5">
    <path d="M 324.218146 226.338602 
C 321.256222 221.905768 317.865908 217.774659 314.096093 214.004844 
C 310.326278 210.235029 306.195169 206.844716 301.762336 203.882791 
L 304.545018 199.718213 
C 309.250641 202.86241 313.635972 206.461358 317.637776 210.463162 
C 321.639579 214.464965 325.238528 218.850296 328.382725 223.555919 
z
" clip-path="url(#pf46d70c56e)" style="fill: #fde725; stroke: #ffffff; stroke-linejoin: miter"/>
   </g>
   <g id="patch_6">
    <path d="M 315.49321 259.831411 
C 314.725143 255.970082 313.579543 252.193542 312.072927 248.556249 
C 310.566311 244.918957 308.705956 241.438478 306.518689 238.165001 
L 306.518689 238.165001 
C 308.705956 241.438478 310.566311 244.918957 312.072927 248.556249 
C 313.579543 252.193542 314.725143 255.970082 315.49321 259.831411 
z
" clip-path="url(#pf46d70c56e)" style="fill: #fde725; stroke: #ffffff; stroke-linejoin: miter"/>
   </g>
   <g id="patch_7">
    <path d="M 281.106025 276.442928 
C 281.426052 274.83404 281.587228 273.197595 281.587228 271.557187 
C 281.587228 269.91678 281.426052 268.280335 281.106025 266.671447 
L 281.106025 266.671447 
C 281.426052 268.280335 281.587228 269.91678 281.587228 271.557187 
C 281.587228 273.197595 281.426052 274.83404 281.106025 276.442928 
z
" clip-path="url(#pf46d70c56e)" style="fill: #fde725; stroke: #ffffff; stroke-linejoin: miter"/>
   </g>
   <g id="patch_8">
    <path d="M 302.354111 302.166692 
C 304.359106 299.166005 306.064431 295.975566 307.445495 292.641381 
C 308.82656 289.307196 309.876694 285.845368 310.580755 282.305816 
L 310.580755 282.305816 
C 309.876694 285.845368 308.82656 289.307196 307.445495 292.641381 
C 306.064431 295.975566 304.359106 299.166005 302.354111 302.166692 
z
" clip-path="url(#pf46d70c56e)" style="fill: #fde725; stroke: #ffffff; stroke-linejoin: miter"/>
   </g>
   <g id="patch_9">
    <path d="M 309.414712 350.684174 
C 314.597717 347.221001 319.427937 343.256942 323.835721 338.849158 
C 328.243504 334.441374 332.207563 329.611155 335.670736 324.42815 
L 339.835315 327.210832 
C 336.189869 332.666627 332.017175 337.751068 327.377403 342.390841 
C 322.737631 347.030613 317.653189 351.203306 312.197394 354.848752 
z
" clip-path="url(#pf46d70c56e)" style="fill: #fde725; stroke: #ffffff; stroke-linejoin: miter"/>
   </g>
   <g id="patch_10">
    <path d="M 272.666693 352.612694 
C 277.976021 351.556604 283.168762 349.981403 288.17004 347.909806 
C 293.171317 345.838209 297.956976 343.280221 302.458006 340.272728 
L 303.153677 341.313873 
C 298.584449 344.366934 293.726281 346.963679 288.649226 349.066663 
C 283.572172 351.169648 278.300752 352.768716 272.91098 353.840808 
z
" clip-path="url(#pf46d70c56e)" style="fill: #fde725; stroke: #ffffff; stroke-linejoin: miter"/>
   </g>
   <g id="patch_11">
    <path d="M 220.389272 453.318021 
C 232.295038 455.686225 244.404737 456.878927 256.54375 456.878927 
C 268.682763 456.878927 280.792462 455.686225 292.698228 453.318021 
L 293.431089 457.002363 
C 281.28399 459.418571 268.928824 460.635448 256.54375 460.635448 
C 244.158676 460.635448 231.80351 459.418571 219.656411 457.002363 
z
" clip-path="url(#pf46d70c56e)" style="fill: #fde725; stroke: #ffffff; stroke-linejoin: miter"/>
   </g>
   <g id="patch_12">
    <path d="M 129.236039 462.086642 
C 141.71617 470.425599 154.985495 477.5182 168.852673 483.262174 
C 182.719852 489.006147 197.117909 493.37375 211.839227 496.302002 
L 211.59494 497.530116 
C 196.793177 494.585862 182.316443 490.194393 168.373487 484.419032 
C 154.430532 478.643671 141.088697 471.512311 128.540368 463.127786 
z
" clip-path="url(#pf46d70c56e)" style="fill: #fde725; stroke: #ffffff; stroke-linejoin: miter"/>
   </g>
   <g id="patch_13">
    <path d="M 162.84074 334.167537 
C 166.941866 340.305307 171.636146 346.025304 176.85589 351.245047 
C 182.075634 356.464791 187.795631 361.159071 193.9334 365.260198 
L 192.542059 367.342487 
C 186.267895 363.150224 180.420787 358.351627 175.085049 353.015889 
C 169.749311 347.680151 164.950713 341.833043 160.758451 335.558878 
z
" clip-path="url(#pf46d70c56e)" style="fill: #fde725; stroke: #ffffff; stroke-linejoin: miter"/>
   </g>
   <g id="patch_14">
    <path d="M 173.032016 288.168704 
C 174.120109 293.638921 175.743044 298.989018 177.877416 304.14185 
C 180.011789 309.294681 182.647291 314.225359 185.74592 318.862785 
L 182.622486 320.949797 
C 179.387153 316.107779 176.635379 310.959571 174.406843 305.579408 
C 172.178307 300.199246 170.483772 294.613115 169.347674 288.901565 
z
" clip-path="url(#pf46d70c56e)" style="fill: #fde725; stroke: #ffffff; stroke-linejoin: miter"/>
   </g>
   <g id="patch_15">
    <path d="M 191.453722 258.609976 
C 190.605649 262.873527 190.178533 267.210108 190.178533 271.557187 
C 190.178533 275.904267 190.605649 280.240848 191.453722 284.504399 
L 191.453722 284.504399 
C 190.605649 280.240848 190.178533 275.904267 190.178533 271.557187 
C 190.178533 267.210108 190.605649 262.873527 191.453722 258.609976 
z
" clip-path="url(#pf46d70c56e)" style="fill: #fde725; stroke: #ffffff; stroke-linejoin: miter"/>
   </g>
   <g id="patch_16">
    <path d="M 181.581342 221.468908 
C 178.300441 226.379123 175.509909 231.599841 173.249985 237.05578 
C 170.990061 242.511719 169.27166 248.176529 168.119561 253.968523 
L 168.119561 253.968523 
C 169.27166 248.176529 170.990061 242.511719 173.249985 237.05578 
C 175.509909 231.599841 178.300441 226.379123 181.581342 221.468908 
z
" clip-path="url(#pf46d70c56e)" style="fill: #fde725; stroke: #ffffff; stroke-linejoin: miter"/>
   </g>
   <g id="patch_17">
    <path d="M 210.629494 202.841647 
C 206.128463 205.849139 201.933798 209.291612 198.105986 213.119424 
C 194.278174 216.947236 190.835702 221.1419 187.828209 225.642931 
L 186.787065 224.94726 
C 189.840125 220.378032 193.334756 216.119812 197.220565 212.234003 
C 201.106375 208.348194 205.364595 204.853563 209.933823 201.800502 
z
" clip-path="url(#pf46d70c56e)" style="fill: #fde725; stroke: #ffffff; stroke-linejoin: miter"/>
   </g>
   <g id="patch_18">
    <path d="M 241.397955 195.414135 
C 236.410405 196.406221 231.532375 197.885955 226.834205 199.832001 
C 222.136035 201.778046 217.640417 204.181005 213.412176 207.006225 
L 213.412176 207.006225 
C 217.640417 204.181005 222.136035 201.778046 226.834205 199.832001 
C 231.532375 197.885955 236.410405 196.406221 241.397955 195.414135 
z
" clip-path="url(#pf46d70c56e)" style="fill: #fde725; stroke: #ffffff; stroke-linejoin: miter"/>
   </g>
   <g id="patch_19">
    <path d="M 260.940916 249.45114 
C 259.492918 249.163115 258.020116 249.018057 256.54375 249.018057 
C 255.067384 249.018057 253.594582 249.163115 252.146584 249.45114 
L 251.902297 248.223026 
C 253.43074 247.919 254.985363 247.765883 256.54375 247.765883 
C 258.102137 247.765883 259.65676 247.919 261.185203 248.223026 
z
" clip-path="url(#pf46d70c56e)" style="fill: #90d743; stroke: #ffffff; stroke-linejoin: miter"/>
   </g>
   <g id="patch_20">
    <path d="M 298.979654 208.047369 
C 294.81961 205.267717 290.396502 202.903517 285.774109 200.988859 
C 281.151716 199.074201 276.352364 197.618333 271.445258 196.642249 
L 272.666693 190.501681 
C 277.976021 191.557771 283.168762 193.132972 288.17004 195.204569 
C 293.171317 197.276166 297.956976 199.834154 302.458006 202.841647 
z
" clip-path="url(#pf46d70c56e)" style="fill: #90d743; stroke: #ffffff; stroke-linejoin: miter"/>
   </g>
   <g id="patch_21">
    <path d="M 321.094713 228.425613 
C 318.269492 224.197372 315.035655 220.25693 311.439831 216.661106 
C 307.844008 213.065283 303.903565 209.831445 299.675324 207.006225 
L 301.762336 203.882791 
C 306.195169 206.844716 310.326278 210.235029 314.096093 214.004844 
C 317.865908 217.774659 321.256222 221.905768 324.218146 226.338602 
z
" clip-path="url(#pf46d70c56e)" style="fill: #90d743; stroke: #ffffff; stroke-linejoin: miter"/>
   </g>
   <g id="patch_22">
    <path d="M 311.808868 260.564272 
C 311.088806 256.944276 310.014806 253.40377 308.602353 249.993808 
C 307.189901 246.583846 305.445818 243.320897 303.395255 240.252013 
L 306.518689 238.165001 
C 308.705956 241.438478 310.566311 244.918957 312.072927 248.556249 
C 313.579543 252.193542 314.725143 255.970082 315.49321 259.831411 
z
" clip-path="url(#pf46d70c56e)" style="fill: #90d743; stroke: #ffffff; stroke-linejoin: miter"/>
   </g>
   <g id="patch_23">
    <path d="M 281.106025 276.442928 
C 281.426052 274.83404 281.587228 273.197595 281.587228 271.557187 
C 281.587228 269.91678 281.426052 268.280335 281.106025 266.671447 
L 281.106025 266.671447 
C 281.426052 268.280335 281.587228 269.91678 281.587228 271.557187 
C 281.587228 273.197595 281.426052 274.83404 281.106025 276.442928 
z
" clip-path="url(#pf46d70c56e)" style="fill: #90d743; stroke: #ffffff; stroke-linejoin: miter"/>
   </g>
   <g id="patch_24">
    <path d="M 298.189532 299.38401 
C 300.012255 296.656112 301.562551 293.755713 302.818064 290.724636 
C 304.073577 287.693559 305.028245 284.546442 305.6683 281.328668 
L 310.580755 282.305816 
C 309.876694 285.845368 308.82656 289.307196 307.445495 292.641381 
C 306.064431 295.975566 304.359106 299.166005 302.354111 302.166692 
z
" clip-path="url(#pf46d70c56e)" style="fill: #90d743; stroke: #ffffff; stroke-linejoin: miter"/>
   </g>
   <g id="patch_25">
    <path d="M 308.023371 348.601885 
C 313.069981 345.229848 317.77309 341.370106 322.064879 337.078317 
C 326.356669 332.786527 330.21641 328.083419 333.588447 323.036808 
L 335.670736 324.42815 
C 332.207563 329.611155 328.243504 334.441374 323.835721 338.849158 
C 319.427937 343.256942 314.597717 347.221001 309.414712 350.684174 
z
" clip-path="url(#pf46d70c56e)" style="fill: #90d743; stroke: #ffffff; stroke-linejoin: miter"/>
   </g>
   <g id="patch_26">
    <path d="M 270.956684 344.015898 
C 275.702901 343.071817 280.344897 341.663683 284.815736 339.811801 
C 289.286575 337.959918 293.564664 335.673233 297.588313 332.984716 
L 302.458006 340.272728 
C 297.956976 343.280221 293.171317 345.838209 288.17004 347.909806 
C 283.168762 349.981403 277.976021 351.556604 272.666693 352.612694 
z
" clip-path="url(#pf46d70c56e)" style="fill: #90d743; stroke: #ffffff; stroke-linejoin: miter"/>
   </g>
   <g id="patch_27">
    <path d="M 221.122133 449.63368 
C 232.786566 451.95388 244.650798 453.122405 256.54375 453.122405 
C 268.436702 453.122405 280.300934 451.95388 291.965367 449.63368 
L 292.698228 453.318021 
C 280.792462 455.686225 268.682763 456.878927 256.54375 456.878927 
C 244.404737 456.878927 232.295038 455.686225 220.389272 453.318021 
z
" clip-path="url(#pf46d70c56e)" style="fill: #90d743; stroke: #ffffff; stroke-linejoin: miter"/>
   </g>
   <g id="patch_28">
    <path d="M 136.192744 451.675196 
C 147.990901 459.558472 160.535126 466.2635 173.644536 471.693595 
C 186.753945 477.123691 200.365222 481.252626 214.282097 484.020865 
L 211.839227 496.302002 
C 197.117909 493.37375 182.719852 489.006147 168.852673 483.262174 
C 154.985495 477.5182 141.71617 470.425599 129.236039 462.086642 
z
" clip-path="url(#pf46d70c56e)" style="fill: #90d743; stroke: #ffffff; stroke-linejoin: miter"/>
   </g>
   <g id="patch_29">
    <path d="M 163.881884 333.471867 
C 167.937443 339.541439 172.579564 345.19788 177.741311 350.359627 
C 182.903057 355.521373 188.559499 360.163495 194.629071 364.219053 
L 193.9334 365.260198 
C 187.795631 361.159071 182.075634 356.464791 176.85589 351.245047 
C 171.636146 346.025304 166.941866 340.305307 162.84074 334.167537 
z
" clip-path="url(#pf46d70c56e)" style="fill: #90d743; stroke: #ffffff; stroke-linejoin: miter"/>
   </g>
   <g id="patch_30">
    <path d="M 175.488243 287.68013 
C 176.544334 292.989458 178.119535 298.1822 180.191132 303.183477 
C 182.262729 308.184755 184.820717 312.970413 187.828209 317.471444 
L 185.74592 318.862785 
C 182.647291 314.225359 180.011789 309.294681 177.877416 304.14185 
C 175.743044 298.989018 174.120109 293.638921 173.032016 288.168704 
z
" clip-path="url(#pf46d70c56e)" style="fill: #90d743; stroke: #ffffff; stroke-linejoin: miter"/>
   </g>
   <g id="patch_31">
    <path d="M 191.453722 258.609976 
C 190.605649 262.873527 190.178533 267.210108 190.178533 271.557187 
C 190.178533 275.904267 190.605649 280.240848 191.453722 284.504399 
L 191.453722 284.504399 
C 190.605649 280.240848 190.178533 275.904267 190.178533 271.557187 
C 190.178533 267.210108 190.605649 262.873527 191.453722 258.609976 
z
" clip-path="url(#pf46d70c56e)" style="fill: #90d743; stroke: #ffffff; stroke-linejoin: miter"/>
   </g>
   <g id="patch_32">
    <path d="M 181.581342 221.468908 
C 178.300441 226.379123 175.509909 231.599841 173.249985 237.05578 
C 170.990061 242.511719 169.27166 248.176529 168.119561 253.968523 
L 168.119561 253.968523 
C 169.27166 248.176529 170.990061 242.511719 173.249985 237.05578 
C 175.509909 231.599841 178.300441 226.379123 181.581342 221.468908 
z
" clip-path="url(#pf46d70c56e)" style="fill: #90d743; stroke: #ffffff; stroke-linejoin: miter"/>
   </g>
   <g id="patch_33">
    <path d="M 210.629494 202.841647 
C 206.128463 205.849139 201.933798 209.291612 198.105986 213.119424 
C 194.278174 216.947236 190.835702 221.1419 187.828209 225.642931 
L 187.828209 225.642931 
C 190.835702 221.1419 194.278174 216.947236 198.105986 213.119424 
C 201.933798 209.291612 206.128463 205.849139 210.629494 202.841647 
z
" clip-path="url(#pf46d70c56e)" style="fill: #90d743; stroke: #ffffff; stroke-linejoin: miter"/>
   </g>
   <g id="patch_34">
    <path d="M 241.642242 196.642249 
C 236.735136 197.618333 231.935784 199.074201 227.313391 200.988859 
C 222.690998 202.903517 218.26789 205.267717 214.107846 208.047369 
L 213.412176 207.006225 
C 217.640417 204.181005 222.136035 201.778046 226.834205 199.832001 
C 231.532375 197.885955 236.410405 196.406221 241.397955 195.414135 
z
" clip-path="url(#pf46d70c56e)" style="fill: #90d743; stroke: #ffffff; stroke-linejoin: miter"/>
   </g>
   <g id="patch_35">
    <path d="M 260.452342 251.907368 
C 259.165232 251.651346 257.856076 251.522405 256.54375 251.522405 
C 255.231424 251.522405 253.922268 251.651346 252.635158 251.907368 
L 252.146584 249.45114 
C 253.594582 249.163115 255.067384 249.018057 256.54375 249.018057 
C 258.020116 249.018057 259.492918 249.163115 260.940916 249.45114 
z
" clip-path="url(#pf46d70c56e)" style="fill: #35b779; stroke: #ffffff; stroke-linejoin: miter"/>
   </g>
   <g id="patch_36">
    <path d="M 285.761913 227.829116 
C 282.897621 225.915257 279.852202 224.287447 276.669571 222.969158 
C 273.48694 221.650869 270.182468 220.648468 266.803805 219.97641 
L 271.445258 196.642249 
C 276.352364 197.618333 281.151716 199.074201 285.774109 200.988859 
C 290.396502 202.903517 294.81961 205.267717 298.979654 208.047369 
z
" clip-path="url(#pf46d70c56e)" style="fill: #35b779; stroke: #ffffff; stroke-linejoin: miter"/>
   </g>
   <g id="patch_37">
    <path d="M 300.271821 242.339024 
C 298.357962 239.474732 296.167298 236.8054 293.731418 234.36952 
C 291.295538 231.933639 288.626206 229.742975 285.761913 227.829116 
L 299.675324 207.006225 
C 303.903565 209.831445 307.844008 213.065283 311.439831 216.661106 
C 315.035655 220.25693 318.269492 224.197372 321.094713 228.425613 
z
" clip-path="url(#pf46d70c56e)" style="fill: #35b779; stroke: #ffffff; stroke-linejoin: miter"/>
   </g>
   <g id="patch_38">
    <path d="M 297.071503 263.495716 
C 296.543458 260.841052 295.755858 258.244681 294.720059 255.744043 
C 293.684261 253.243404 292.405267 250.850575 290.90152 248.600059 
L 303.395255 240.252013 
C 305.445818 243.320897 307.189901 246.583846 308.602353 249.993808 
C 310.014806 253.40377 311.088806 256.944276 311.808868 260.564272 
z
" clip-path="url(#pf46d70c56e)" style="fill: #35b779; stroke: #ffffff; stroke-linejoin: miter"/>
   </g>
   <g id="patch_39">
    <path d="M 279.877911 276.198641 
C 280.181937 274.670198 280.335054 273.115574 280.335054 271.557187 
C 280.335054 269.998801 280.181937 268.444177 279.877911 266.915734 
L 281.106025 266.671447 
C 281.426052 268.280335 281.587228 269.91678 281.587228 271.557187 
C 281.587228 273.197595 281.426052 274.83404 281.106025 276.442928 
z
" clip-path="url(#pf46d70c56e)" style="fill: #35b779; stroke: #ffffff; stroke-linejoin: miter"/>
   </g>
   <g id="patch_40">
    <path d="M 295.066099 297.296998 
C 296.752117 294.773693 298.186141 292.090824 299.34749 289.287077 
C 300.50884 286.483331 301.391907 283.572248 301.983958 280.595807 
L 305.6683 281.328668 
C 305.028245 284.546442 304.073577 287.693559 302.818064 290.724636 
C 301.562551 293.755713 300.012255 296.656112 298.189532 299.38401 
z
" clip-path="url(#pf46d70c56e)" style="fill: #35b779; stroke: #ffffff; stroke-linejoin: miter"/>
   </g>
   <g id="patch_41">
    <path d="M 286.457584 316.326403 
C 289.390074 314.366976 292.122961 312.124154 294.616839 309.630276 
C 297.110716 307.136399 299.353539 304.403511 301.312966 301.471021 
L 333.588447 323.036808 
C 330.21641 328.083419 326.356669 332.786527 322.064879 337.078317 
C 317.77309 341.370106 313.069981 345.229848 308.023371 348.601885 
z
" clip-path="url(#pf46d70c56e)" style="fill: #35b779; stroke: #ffffff; stroke-linejoin: miter"/>
   </g>
   <g id="patch_42">
    <path d="M 265.093795 314.541168 
C 267.909348 313.98112 270.663075 313.145786 273.315267 312.047212 
C 275.96746 310.948638 278.505309 309.59213 280.892219 307.997247 
L 297.588313 332.984716 
C 293.564664 335.673233 289.286575 337.959918 284.815736 339.811801 
C 280.344897 341.663683 275.702901 343.071817 270.956684 344.015898 
z
" clip-path="url(#pf46d70c56e)" style="fill: #35b779; stroke: #ffffff; stroke-linejoin: miter"/>
   </g>
   <g id="patch_43">
    <path d="M 230.160753 404.193472 
C 238.848744 405.921621 247.685551 406.79197 256.54375 406.79197 
C 265.401949 406.79197 274.238756 405.921621 282.926747 404.193472 
L 291.965367 449.63368 
C 280.300934 451.95388 268.436702 453.122405 256.54375 453.122405 
C 244.650798 453.122405 232.786566 451.95388 221.122133 449.63368 
z
" clip-path="url(#pf46d70c56e)" style="fill: #35b779; stroke: #ffffff; stroke-linejoin: miter"/>
   </g>
   <g id="patch_44">
    <path d="M 183.498342 380.877366 
C 190.659073 385.662014 198.27262 389.731539 206.229198 393.027262 
C 214.185776 396.322984 222.446956 398.828986 230.893614 400.50913 
L 214.282097 484.020865 
C 200.365222 481.252626 186.753945 477.123691 173.644536 471.693595 
C 160.535126 466.2635 147.990901 459.558472 136.192744 451.675196 
z
" clip-path="url(#pf46d70c56e)" style="fill: #35b779; stroke: #ffffff; stroke-linejoin: miter"/>
   </g>
   <g id="patch_45">
    <path d="M 195.116221 312.60175 
C 197.804737 316.625399 200.882099 320.375175 204.303931 323.797007 
C 207.725763 327.218839 211.475539 330.2962 215.499187 332.984716 
L 194.629071 364.219053 
C 188.559499 360.163495 182.903057 355.521373 177.741311 350.359627 
C 172.579564 345.19788 167.937443 339.541439 163.881884 333.471867 
z
" clip-path="url(#pf46d70c56e)" style="fill: #35b779; stroke: #ffffff; stroke-linejoin: miter"/>
   </g>
   <g id="patch_46">
    <path d="M 209.875428 280.840094 
C 210.48348 283.89698 211.390414 286.88674 212.583152 289.766264 
C 213.775889 292.645787 215.24867 295.401166 216.980257 297.992669 
L 187.828209 317.471444 
C 184.820717 312.970413 182.262729 308.184755 180.191132 303.183477 
C 178.119535 298.1822 176.544334 292.989458 175.488243 287.68013 
z
" clip-path="url(#pf46d70c56e)" style="fill: #35b779; stroke: #ffffff; stroke-linejoin: miter"/>
   </g>
   <g id="patch_47">
    <path d="M 196.366177 259.587124 
C 195.582109 263.528898 195.187228 267.53819 195.187228 271.557187 
C 195.187228 275.576185 195.582109 279.585477 196.366177 283.527251 
L 191.453722 284.504399 
C 190.605649 280.240848 190.178533 275.904267 190.178533 271.557187 
C 190.178533 267.210108 190.605649 262.873527 191.453722 258.609976 
z
" clip-path="url(#pf46d70c56e)" style="fill: #35b779; stroke: #ffffff; stroke-linejoin: miter"/>
   </g>
   <g id="patch_48">
    <path d="M 182.622486 222.164578 
C 179.387153 227.006596 176.635379 232.154804 174.406843 237.534967 
C 172.178307 242.915129 170.483772 248.50126 169.347674 254.21281 
L 168.119561 253.968523 
C 169.27166 248.176529 170.990061 242.511719 173.249985 237.05578 
C 175.509909 231.599841 178.300441 226.379123 181.581342 221.468908 
z
" clip-path="url(#pf46d70c56e)" style="fill: #35b779; stroke: #ffffff; stroke-linejoin: miter"/>
   </g>
   <g id="patch_49">
    <path d="M 214.107846 208.047369 
C 209.947803 210.827022 206.070916 214.008701 202.533089 217.546527 
C 198.995263 221.084353 195.813584 224.96124 193.033932 229.121284 
L 187.828209 225.642931 
C 190.835702 221.1419 194.278174 216.947236 198.105986 213.119424 
C 201.933798 209.291612 206.128463 205.849139 210.629494 202.841647 
z
" clip-path="url(#pf46d70c56e)" style="fill: #35b779; stroke: #ffffff; stroke-linejoin: miter"/>
   </g>
   <g id="patch_50">
    <path d="M 243.840825 207.695273 
C 239.657719 208.527345 235.566468 209.768412 231.626067 211.400579 
C 227.685667 213.032747 223.915148 215.048131 220.368881 217.41767 
L 214.107846 208.047369 
C 218.26789 205.267717 222.690998 202.903517 227.313391 200.988859 
C 231.935784 199.074201 236.735136 197.618333 241.642242 196.642249 
z
" clip-path="url(#pf46d70c56e)" style="fill: #35b779; stroke: #ffffff; stroke-linejoin: miter"/>
   </g>
   <g id="patch_51">
    <path d="M 259.230907 258.047936 
C 258.346019 257.871921 257.445974 257.783274 256.54375 257.783274 
C 255.641526 257.783274 254.741481 257.871921 253.856593 258.047936 
L 252.635158 251.907368 
C 253.922268 251.651346 255.231424 251.522405 256.54375 251.522405 
C 257.856076 251.522405 259.165232 251.651346 260.452342 251.907368 
z
" clip-path="url(#pf46d70c56e)" style="fill: #21918c; stroke: #ffffff; stroke-linejoin: miter"/>
   </g>
   <g id="patch_52">
    <path d="M 264.891797 259.063453 
C 264.073427 258.516636 263.203308 258.051547 262.293985 257.674893 
C 261.384661 257.298239 260.440526 257.011839 259.475194 256.819823 
L 266.803805 219.97641 
C 270.182468 220.648468 273.48694 221.650869 276.669571 222.969158 
C 279.852202 224.287447 282.897621 225.915257 285.761913 227.829116 
z
" clip-path="url(#pf46d70c56e)" style="fill: #21918c; stroke: #ffffff; stroke-linejoin: miter"/>
   </g>
   <g id="patch_53">
    <path d="M 270.078629 262.51347 
C 269.486244 261.626904 268.808182 260.800682 268.054219 260.046719 
C 267.300256 259.292756 266.474034 258.614693 265.587467 258.022308 
L 285.761913 227.829116 
C 288.626206 229.742975 291.295538 231.933639 293.731418 234.36952 
C 296.167298 236.8054 298.357962 239.474732 300.271821 242.339024 
z
" clip-path="url(#pf46d70c56e)" style="fill: #21918c; stroke: #ffffff; stroke-linejoin: miter"/>
   </g>
   <g id="patch_54">
    <path d="M 273.737342 268.137169 
C 273.513323 267.010948 273.17919 265.909458 272.73976 264.848581 
C 272.30033 263.787703 271.757727 262.772564 271.119774 261.8178 
L 290.90152 248.600059 
C 292.405267 250.850575 293.684261 253.243404 294.720059 255.744043 
C 295.755858 258.244681 296.543458 260.841052 297.071503 263.495716 
z
" clip-path="url(#pf46d70c56e)" style="fill: #21918c; stroke: #ffffff; stroke-linejoin: miter"/>
   </g>
   <g id="patch_55">
    <path d="M 268.824887 274.000058 
C 268.984901 273.195614 269.065489 272.377391 269.065489 271.557187 
C 269.065489 270.736984 268.984901 269.918761 268.824887 269.114317 
L 279.877911 266.915734 
C 280.181937 268.444177 280.335054 269.998801 280.335054 271.557187 
C 280.335054 273.115574 280.181937 274.670198 279.877911 276.198641 
z
" clip-path="url(#pf46d70c56e)" style="fill: #21918c; stroke: #ffffff; stroke-linejoin: miter"/>
   </g>
   <g id="patch_56">
    <path d="M 273.202063 282.687916 
C 273.931152 281.596757 274.55127 280.436598 275.053476 279.224167 
C 275.555681 278.011736 275.937548 276.752889 276.19357 275.46578 
L 301.983958 280.595807 
C 301.391907 283.572248 300.50884 286.483331 299.34749 289.287077 
C 298.186141 292.090824 296.752117 294.773693 295.066099 297.296998 
z
" clip-path="url(#pf46d70c56e)" style="fill: #21918c; stroke: #ffffff; stroke-linejoin: miter"/>
   </g>
   <g id="patch_57">
    <path d="M 265.587467 285.092067 
C 266.474034 284.499682 267.300256 283.821619 268.054219 283.067656 
C 268.808182 282.313693 269.486244 281.487471 270.078629 280.600905 
L 301.312966 301.471021 
C 299.353539 304.403511 297.110716 307.136399 294.616839 309.630276 
C 292.122961 312.124154 289.390074 314.366976 286.457584 316.326403 
z
" clip-path="url(#pf46d70c56e)" style="fill: #21918c; stroke: #ffffff; stroke-linejoin: miter"/>
   </g>
   <g id="patch_58">
    <path d="M 257.520898 276.469642 
C 257.842675 276.405637 258.157387 276.31017 258.460495 276.184619 
C 258.763603 276.059068 259.053642 275.904038 259.326432 275.721766 
L 280.892219 307.997247 
C 278.505309 309.59213 275.96746 310.948638 273.315267 312.047212 
C 270.663075 313.145786 267.909348 313.98112 265.093795 314.541168 
z
" clip-path="url(#pf46d70c56e)" style="fill: #21918c; stroke: #ffffff; stroke-linejoin: miter"/>
   </g>
   <g id="patch_59">
    <path d="M 248.970853 309.628714 
C 251.464628 310.124756 254.001119 310.374579 256.54375 310.374579 
C 259.086381 310.374579 261.622872 310.124756 264.116647 309.628714 
L 282.926747 404.193472 
C 274.238756 405.921621 265.401949 406.79197 256.54375 406.79197 
C 247.685551 406.79197 238.848744 405.921621 230.160753 404.193472 
z
" clip-path="url(#pf46d70c56e)" style="fill: #21918c; stroke: #ffffff; stroke-linejoin: miter"/>
   </g>
   <g id="patch_60">
    <path d="M 252.369727 277.804055 
C 252.778911 278.077463 253.213971 278.310008 253.668633 278.498335 
C 254.123294 278.686662 254.595362 278.829862 255.078028 278.92587 
L 230.893614 400.50913 
C 222.446956 398.828986 214.185776 396.322984 206.229198 393.027262 
C 198.27262 389.731539 190.659073 385.662014 183.498342 380.877366 
z
" clip-path="url(#pf46d70c56e)" style="fill: #21918c; stroke: #ffffff; stroke-linejoin: miter"/>
   </g>
   <g id="patch_61">
    <path d="M 255.502605 272.252858 
C 255.548174 272.321055 255.600332 272.384611 255.658329 272.442608 
C 255.716326 272.500605 255.779882 272.552764 255.848079 272.598332 
L 215.499187 332.984716 
C 211.475539 330.2962 207.725763 327.218839 204.303931 323.797007 
C 200.882099 320.375175 197.804737 316.625399 195.116221 312.60175 
z
" clip-path="url(#pf46d70c56e)" style="fill: #21918c; stroke: #ffffff; stroke-linejoin: miter"/>
   </g>
   <g id="patch_62">
    <path d="M 249.175068 273.02291 
C 249.271076 273.505576 249.414276 273.977643 249.602603 274.432305 
C 249.79093 274.886966 250.023474 275.322026 250.296883 275.731211 
L 216.980257 297.992669 
C 215.24867 295.401166 213.775889 292.645787 212.583152 289.766264 
C 211.390414 286.88674 210.48348 283.89698 209.875428 280.840094 
z
" clip-path="url(#pf46d70c56e)" style="fill: #21918c; stroke: #ffffff; stroke-linejoin: miter"/>
   </g>
   <g id="patch_63">
    <path d="M 213.559769 263.007142 
C 212.999721 265.822695 212.717663 268.686475 212.717663 271.557187 
C 212.717663 274.4279 212.999721 277.29168 213.559769 280.107233 
L 196.366177 283.527251 
C 195.582109 279.585477 195.187228 275.576185 195.187228 271.557187 
C 195.187228 267.53819 195.582109 263.528898 196.366177 259.587124 
z
" clip-path="url(#pf46d70c56e)" style="fill: #21918c; stroke: #ffffff; stroke-linejoin: miter"/>
   </g>
   <g id="patch_64">
    <path d="M 184.704775 223.555919 
C 181.560579 228.261543 178.886319 233.264731 176.720558 238.493339 
C 174.554798 243.721947 172.907997 249.150723 171.803902 254.701384 
L 169.347674 254.21281 
C 170.483772 248.50126 172.178307 242.915129 174.406843 237.534967 
C 176.635379 232.154804 179.387153 227.006596 182.622486 222.164578 
z
" clip-path="url(#pf46d70c56e)" style="fill: #21918c; stroke: #ffffff; stroke-linejoin: miter"/>
   </g>
   <g id="patch_65">
    <path d="M 241.238998 248.652007 
C 239.738654 249.654505 238.340433 250.801996 237.064495 252.077933 
C 235.788558 253.35387 234.641067 254.752092 233.63857 256.252435 
L 193.033932 229.121284 
C 195.813584 224.96124 198.995263 221.084353 202.533089 217.546527 
C 206.070916 214.008701 209.947803 210.827022 214.107846 208.047369 
z
" clip-path="url(#pf46d70c56e)" style="fill: #21918c; stroke: #ffffff; stroke-linejoin: miter"/>
   </g>
   <g id="patch_66">
    <path d="M 253.856593 258.047936 
C 252.971705 258.223951 252.106248 258.486485 251.272702 258.831751 
C 250.439155 259.177017 249.641546 259.603349 248.891374 260.104597 
L 220.368881 217.41767 
C 223.915148 215.048131 227.685667 213.032747 231.626067 211.400579 
C 235.566468 209.768412 239.657719 208.527345 243.840825 207.695273 
z
" clip-path="url(#pf46d70c56e)" style="fill: #21918c; stroke: #ffffff; stroke-linejoin: miter"/>
   </g>
   <g id="patch_67">
    <path d="M 256.788037 270.329074 
C 256.707593 270.313072 256.62577 270.305014 256.54375 270.305014 
C 256.46173 270.305014 256.379907 270.313072 256.299463 270.329074 
L 253.856593 258.047936 
C 254.741481 257.871921 255.641526 257.783274 256.54375 257.783274 
C 257.445974 257.783274 258.346019 257.871921 259.230907 258.047936 
z
" clip-path="url(#pf46d70c56e)" style="fill: #31688e; stroke: #ffffff; stroke-linejoin: miter"/>
   </g>
   <g id="patch_68">
    <path d="M 258.630762 268.433754 
C 258.426169 268.29705 258.208639 268.180777 257.981309 268.086614 
C 257.753978 267.99245 257.517944 267.92085 257.276611 267.872846 
L 259.475194 256.819823 
C 260.440526 257.011839 261.384661 257.298239 262.293985 257.674893 
C 263.203308 258.051547 264.073427 258.516636 264.891797 259.063453 
z
" clip-path="url(#pf46d70c56e)" style="fill: #31688e; stroke: #ffffff; stroke-linejoin: miter"/>
   </g>
   <g id="patch_69">
    <path d="M 258.626039 270.165846 
C 258.534903 270.029452 258.430586 269.90234 258.314591 269.786346 
C 258.198597 269.670352 258.071486 269.566035 257.935091 269.474898 
L 265.587467 258.022308 
C 266.474034 258.614693 267.300256 259.292756 268.054219 260.046719 
C 268.808182 260.800682 269.486244 261.626904 270.078629 262.51347 
z
" clip-path="url(#pf46d70c56e)" style="fill: #31688e; stroke: #ffffff; stroke-linejoin: miter"/>
   </g>
   <g id="patch_70">
    <path d="M 258.999977 271.068613 
C 258.967975 270.907725 258.920241 270.750369 258.857466 270.598815 
C 258.79469 270.447261 258.717175 270.302241 258.626039 270.165846 
L 271.119774 261.8178 
C 271.757727 262.772564 272.30033 263.787703 272.73976 264.848581 
C 273.17919 265.909458 273.513323 267.010948 273.737342 268.137169 
z
" clip-path="url(#pf46d70c56e)" style="fill: #31688e; stroke: #ffffff; stroke-linejoin: miter"/>
   </g>
   <g id="patch_71">
    <path d="M 257.771864 271.801475 
C 257.787865 271.72103 257.795924 271.639208 257.795924 271.557187 
C 257.795924 271.475167 257.787865 271.393345 257.771864 271.3129 
L 268.824887 269.114317 
C 268.984901 269.918761 269.065489 270.736984 269.065489 271.557187 
C 269.065489 272.377391 268.984901 273.195614 268.824887 274.000058 
z
" clip-path="url(#pf46d70c56e)" style="fill: #31688e; stroke: #ffffff; stroke-linejoin: miter"/>
   </g>
   <g id="patch_72">
    <path d="M 258.626039 272.948529 
C 258.717175 272.812134 258.79469 272.667114 258.857466 272.51556 
C 258.920241 272.364006 258.967975 272.20665 258.999977 272.045762 
L 276.19357 275.46578 
C 275.937548 276.752889 275.555681 278.011736 275.053476 279.224167 
C 274.55127 280.436598 273.931152 281.596757 273.202063 282.687916 
z
" clip-path="url(#pf46d70c56e)" style="fill: #31688e; stroke: #ffffff; stroke-linejoin: miter"/>
   </g>
   <g id="patch_73">
    <path d="M 257.935091 273.639477 
C 258.071486 273.54834 258.198597 273.444023 258.314591 273.328029 
C 258.430586 273.212035 258.534903 273.084923 258.626039 272.948529 
L 270.078629 280.600905 
C 269.486244 281.487471 268.808182 282.313693 268.054219 283.067656 
C 267.300256 283.821619 266.474034 284.499682 265.587467 285.092067 
z
" clip-path="url(#pf46d70c56e)" style="fill: #31688e; stroke: #ffffff; stroke-linejoin: miter"/>
   </g>
   <g id="patch_74">
    <path d="M 256.788037 272.785301 
C 256.868481 272.7693 256.947159 272.745433 257.022936 272.714045 
C 257.098713 272.682658 257.171223 272.6439 257.239421 272.598332 
L 259.326432 275.721766 
C 259.053642 275.904038 258.763603 276.059068 258.460495 276.184619 
C 258.157387 276.31017 257.842675 276.405637 257.520898 276.469642 
z
" clip-path="url(#pf46d70c56e)" style="fill: #31688e; stroke: #ffffff; stroke-linejoin: miter"/>
   </g>
   <g id="patch_75">
    <path d="M 253.856593 285.066439 
C 254.741481 285.242454 255.641526 285.331101 256.54375 285.331101 
C 257.445974 285.331101 258.346019 285.242454 259.230907 285.066439 
L 264.116647 309.628714 
C 261.622872 310.124756 259.086381 310.374579 256.54375 310.374579 
C 254.001119 310.374579 251.464628 310.124756 248.970853 309.628714 
z
" clip-path="url(#pf46d70c56e)" style="fill: #31688e; stroke: #ffffff; stroke-linejoin: miter"/>
   </g>
   <g id="patch_76">
    <path d="M 254.456738 274.680621 
C 254.661331 274.817325 254.878861 274.933598 255.106191 275.027761 
C 255.333522 275.121925 255.569556 275.193525 255.810889 275.241529 
L 255.078028 278.92587 
C 254.595362 278.829862 254.123294 278.686662 253.668633 278.498335 
C 253.213971 278.310008 252.778911 278.077463 252.369727 277.804055 
z
" clip-path="url(#pf46d70c56e)" style="fill: #31688e; stroke: #ffffff; stroke-linejoin: miter"/>
   </g>
   <g id="patch_77">
    <path d="M 256.54375 271.557187 
C 256.54375 271.557187 256.54375 271.557187 256.54375 271.557187 
C 256.54375 271.557187 256.54375 271.557187 256.54375 271.557187 
L 255.848079 272.598332 
C 255.779882 272.552764 255.716326 272.500605 255.658329 272.442608 
C 255.600332 272.384611 255.548174 272.321055 255.502605 272.252858 
z
" clip-path="url(#pf46d70c56e)" style="fill: #31688e; stroke: #ffffff; stroke-linejoin: miter"/>
   </g>
   <g id="patch_78">
    <path d="M 255.315636 271.801475 
C 255.331638 271.881919 255.355504 271.960597 255.386892 272.036374 
C 255.41828 272.112151 255.457037 272.184661 255.502605 272.252858 
L 250.296883 275.731211 
C 250.023474 275.322026 249.79093 274.886966 249.602603 274.432305 
C 249.414276 273.977643 249.271076 273.505576 249.175068 273.02291 
z
" clip-path="url(#pf46d70c56e)" style="fill: #31688e; stroke: #ffffff; stroke-linejoin: miter"/>
   </g>
   <g id="patch_79">
    <path d="M 255.315636 271.3129 
C 255.299635 271.393345 255.291576 271.475167 255.291576 271.557187 
C 255.291576 271.639208 255.299635 271.72103 255.315636 271.801475 
L 213.559769 280.107233 
C 212.999721 277.29168 212.717663 274.4279 212.717663 271.557187 
C 212.717663 268.686475 212.999721 265.822695 213.559769 263.007142 
z
" clip-path="url(#pf46d70c56e)" style="fill: #31688e; stroke: #ffffff; stroke-linejoin: miter"/>
   </g>
   <g id="patch_80">
    <path d="M 255.502605 270.861517 
C 255.457037 270.929714 255.41828 271.002224 255.386892 271.078001 
C 255.355504 271.153778 255.331638 271.232456 255.315636 271.3129 
L 171.803902 254.701384 
C 172.907997 249.150723 174.554798 243.721947 176.720558 238.493339 
C 178.886319 233.264731 181.560579 228.261543 184.704775 223.555919 
z
" clip-path="url(#pf46d70c56e)" style="fill: #31688e; stroke: #ffffff; stroke-linejoin: miter"/>
   </g>
   <g id="patch_81">
    <path d="M 255.848079 270.516043 
C 255.779882 270.561611 255.716326 270.61377 255.658329 270.671767 
C 255.600332 270.729764 255.548174 270.79332 255.502605 270.861517 
L 233.63857 256.252435 
C 234.641067 254.752092 235.788558 253.35387 237.064495 252.077933 
C 238.340433 250.801996 239.738654 249.654505 241.238998 248.652007 
z
" clip-path="url(#pf46d70c56e)" style="fill: #31688e; stroke: #ffffff; stroke-linejoin: miter"/>
   </g>
   <g id="patch_82">
    <path d="M 256.055176 269.10096 
C 255.894287 269.132963 255.736931 269.180696 255.585378 269.243472 
C 255.433824 269.306247 255.288804 269.383762 255.152409 269.474898 
L 248.891374 260.104597 
C 249.641546 259.603349 250.439155 259.177017 251.272702 258.831751 
C 252.106248 258.486485 252.971705 258.223951 253.856593 258.047936 
z
" clip-path="url(#pf46d70c56e)" style="fill: #31688e; stroke: #ffffff; stroke-linejoin: miter"/>
   </g>
   <g id="patch_83">
    <path d="M 256.54375 271.557187 
C 256.54375 271.557187 256.54375 271.557187 256.54375 271.557187 
C 256.54375 271.557187 256.54375 271.557187 256.54375 271.557187 
L 256.299463 270.329074 
C 256.379907 270.313072 256.46173 270.305014 256.54375 270.305014 
C 256.62577 270.305014 256.707593 270.313072 256.788037 270.329074 
z
" clip-path="url(#pf46d70c56e)" style="fill: #443983; stroke: #ffffff; stroke-linejoin: miter"/>
   </g>
   <g id="patch_84">
    <path d="M 256.54375 271.557187 
C 256.54375 271.557187 256.54375 271.557187 256.54375 271.557187 
C 256.54375 271.557187 256.54375 271.557187 256.54375 271.557187 
L 257.276611 267.872846 
C 257.517944 267.92085 257.753978 267.99245 257.981309 268.086614 
C 258.208639 268.180777 258.426169 268.29705 258.630762 268.433754 
z
" clip-path="url(#pf46d70c56e)" style="fill: #443983; stroke: #ffffff; stroke-linejoin: miter"/>
   </g>
   <g id="patch_85">
    <path d="M 256.54375 271.557187 
C 256.54375 271.557187 256.54375 271.557187 256.54375 271.557187 
C 256.54375 271.557187 256.54375 271.557187 256.54375 271.557187 
L 257.935091 269.474898 
C 258.071486 269.566035 258.198597 269.670352 258.314591 269.786346 
C 258.430586 269.90234 258.534903 270.029452 258.626039 270.165846 
z
" clip-path="url(#pf46d70c56e)" style="fill: #443983; stroke: #ffffff; stroke-linejoin: miter"/>
   </g>
   <g id="patch_86">
    <path d="M 256.54375 271.557187 
C 256.54375 271.557187 256.54375 271.557187 256.54375 271.557187 
C 256.54375 271.557187 256.54375 271.557187 256.54375 271.557187 
L 258.626039 270.165846 
C 258.717175 270.302241 258.79469 270.447261 258.857466 270.598815 
C 258.920241 270.750369 258.967975 270.907725 258.999977 271.068613 
z
" clip-path="url(#pf46d70c56e)" style="fill: #443983; stroke: #ffffff; stroke-linejoin: miter"/>
   </g>
   <g id="patch_87">
    <path d="M 256.54375 271.557187 
C 256.54375 271.557187 256.54375 271.557187 256.54375 271.557187 
C 256.54375 271.557187 256.54375 271.557187 256.54375 271.557187 
L 257.771864 271.3129 
C 257.787865 271.393345 257.795924 271.475167 257.795924 271.557187 
C 257.795924 271.639208 257.787865 271.72103 257.771864 271.801475 
z
" clip-path="url(#pf46d70c56e)" style="fill: #443983; stroke: #ffffff; stroke-linejoin: miter"/>
   </g>
   <g id="patch_88">
    <path d="M 256.54375 271.557187 
C 256.54375 271.557187 256.54375 271.557187 256.54375 271.557187 
C 256.54375 271.557187 256.54375 271.557187 256.54375 271.557187 
L 258.999977 272.045762 
C 258.967975 272.20665 258.920241 272.364006 258.857466 272.51556 
C 258.79469 272.667114 258.717175 272.812134 258.626039 272.948529 
z
" clip-path="url(#pf46d70c56e)" style="fill: #443983; stroke: #ffffff; stroke-linejoin: miter"/>
   </g>
   <g id="patch_89">
    <path d="M 256.54375 271.557187 
C 256.54375 271.557187 256.54375 271.557187 256.54375 271.557187 
C 256.54375 271.557187 256.54375 271.557187 256.54375 271.557187 
L 258.626039 272.948529 
C 258.534903 273.084923 258.430586 273.212035 258.314591 273.328029 
C 258.198597 273.444023 258.071486 273.54834 257.935091 273.639477 
z
" clip-path="url(#pf46d70c56e)" style="fill: #443983; stroke: #ffffff; stroke-linejoin: miter"/>
   </g>
   <g id="patch_90">
    <path d="M 256.54375 271.557187 
C 256.54375 271.557187 256.54375 271.557187 256.54375 271.557187 
C 256.54375 271.557187 256.54375 271.557187 256.54375 271.557187 
L 257.239421 272.598332 
C 257.171223 272.6439 257.098713 272.682658 257.022936 272.714045 
C 256.947159 272.745433 256.868481 272.7693 256.788037 272.785301 
z
" clip-path="url(#pf46d70c56e)" style="fill: #443983; stroke: #ffffff; stroke-linejoin: miter"/>
   </g>
   <g id="patch_91">
    <path d="M 256.299463 272.785301 
C 256.379907 272.801303 256.46173 272.809361 256.54375 272.809361 
C 256.62577 272.809361 256.707593 272.801303 256.788037 272.785301 
L 259.230907 285.066439 
C 258.346019 285.242454 257.445974 285.331101 256.54375 285.331101 
C 255.641526 285.331101 254.741481 285.242454 253.856593 285.066439 
z
" clip-path="url(#pf46d70c56e)" style="fill: #443983; stroke: #ffffff; stroke-linejoin: miter"/>
   </g>
   <g id="patch_92">
    <path d="M 256.54375 271.557187 
C 256.54375 271.557187 256.54375 271.557187 256.54375 271.557187 
C 256.54375 271.557187 256.54375 271.557187 256.54375 271.557187 
L 255.810889 275.241529 
C 255.569556 275.193525 255.333522 275.121925 255.106191 275.027761 
C 254.878861 274.933598 254.661331 274.817325 254.456738 274.680621 
z
" clip-path="url(#pf46d70c56e)" style="fill: #443983; stroke: #ffffff; stroke-linejoin: miter"/>
   </g>
   <g id="patch_93">
    <path d="M 256.54375 271.557187 
C 256.54375 271.557187 256.54375 271.557187 256.54375 271.557187 
C 256.54375 271.557187 256.54375 271.557187 256.54375 271.557187 
L 256.54375 271.557187 
C 256.54375 271.557187 256.54375 271.557187 256.54375 271.557187 
C 256.54375 271.557187 256.54375 271.557187 256.54375 271.557187 
z
" clip-path="url(#pf46d70c56e)" style="fill: #443983; stroke: #ffffff; stroke-linejoin: miter"/>
   </g>
   <g id="patch_94">
    <path d="M 256.54375 271.557187 
C 256.54375 271.557187 256.54375 271.557187 256.54375 271.557187 
C 256.54375 271.557187 256.54375 271.557187 256.54375 271.557187 
L 255.502605 272.252858 
C 255.457037 272.184661 255.41828 272.112151 255.386892 272.036374 
C 255.355504 271.960597 255.331638 271.881919 255.315636 271.801475 
z
" clip-path="url(#pf46d70c56e)" style="fill: #443983; stroke: #ffffff; stroke-linejoin: miter"/>
   </g>
   <g id="patch_95">
    <path d="M 256.54375 271.557187 
C 256.54375 271.557187 256.54375 271.557187 256.54375 271.557187 
C 256.54375 271.557187 256.54375 271.557187 256.54375 271.557187 
L 255.315636 271.801475 
C 255.299635 271.72103 255.291576 271.639208 255.291576 271.557187 
C 255.291576 271.475167 255.299635 271.393345 255.315636 271.3129 
z
" clip-path="url(#pf46d70c56e)" style="fill: #443983; stroke: #ffffff; stroke-linejoin: miter"/>
   </g>
   <g id="patch_96">
    <path d="M 255.502605 270.861517 
C 255.457037 270.929714 255.41828 271.002224 255.386892 271.078001 
C 255.355504 271.153778 255.331638 271.232456 255.315636 271.3129 
L 255.315636 271.3129 
C 255.331638 271.232456 255.355504 271.153778 255.386892 271.078001 
C 255.41828 271.002224 255.457037 270.929714 255.502605 270.861517 
z
" clip-path="url(#pf46d70c56e)" style="fill: #443983; stroke: #ffffff; stroke-linejoin: miter"/>
   </g>
   <g id="patch_97">
    <path d="M 256.54375 271.557187 
C 256.54375 271.557187 256.54375 271.557187 256.54375 271.557187 
C 256.54375 271.557187 256.54375 271.557187 256.54375 271.557187 
L 255.502605 270.861517 
C 255.548174 270.79332 255.600332 270.729764 255.658329 270.671767 
C 255.716326 270.61377 255.779882 270.561611 255.848079 270.516043 
z
" clip-path="url(#pf46d70c56e)" style="fill: #443983; stroke: #ffffff; stroke-linejoin: miter"/>
   </g>
   <g id="patch_98">
    <path d="M 256.54375 271.557187 
C 256.54375 271.557187 256.54375 271.557187 256.54375 271.557187 
C 256.54375 271.557187 256.54375 271.557187 256.54375 271.557187 
L 255.152409 269.474898 
C 255.288804 269.383762 255.433824 269.306247 255.585378 269.243472 
C 255.736931 269.180696 255.894287 269.132963 256.055176 269.10096 
z
" clip-path="url(#pf46d70c56e)" style="fill: #443983; stroke: #ffffff; stroke-linejoin: miter"/>
   </g>
   <g id="patch_99">
    <path d="M 256.54375 271.557187 
C 256.54375 271.557187 256.54375 271.557187 256.54375 271.557187 
C 256.54375 271.557187 256.54375 271.557187 256.54375 271.557187 
L 256.54375 271.557187 
C 256.54375 271.557187 256.54375 271.557187 256.54375 271.557187 
C 256.54375 271.557187 256.54375 271.557187 256.54375 271.557187 
z
" clip-path="url(#pf46d70c56e)" style="fill: #440154; stroke: #ffffff; stroke-linejoin: miter"/>
   </g>
   <g id="patch_100">
    <path d="M 256.54375 271.557187 
C 256.54375 271.557187 256.54375 271.557187 256.54375 271.557187 
C 256.54375 271.557187 256.54375 271.557187 256.54375 271.557187 
L 256.54375 271.557187 
C 256.54375 271.557187 256.54375 271.557187 256.54375 271.557187 
C 256.54375 271.557187 256.54375 271.557187 256.54375 271.557187 
z
" clip-path="url(#pf46d70c56e)" style="fill: #440154; stroke: #ffffff; stroke-linejoin: miter"/>
   </g>
   <g id="patch_101">
    <path d="M 256.54375 271.557187 
C 256.54375 271.557187 256.54375 271.557187 256.54375 271.557187 
C 256.54375 271.557187 256.54375 271.557187 256.54375 271.557187 
L 256.54375 271.557187 
C 256.54375 271.557187 256.54375 271.557187 256.54375 271.557187 
C 256.54375 271.557187 256.54375 271.557187 256.54375 271.557187 
z
" clip-path="url(#pf46d70c56e)" style="fill: #440154; stroke: #ffffff; stroke-linejoin: miter"/>
   </g>
   <g id="patch_102">
    <path d="M 256.54375 271.557187 
C 256.54375 271.557187 256.54375 271.557187 256.54375 271.557187 
C 256.54375 271.557187 256.54375 271.557187 256.54375 271.557187 
L 256.54375 271.557187 
C 256.54375 271.557187 256.54375 271.557187 256.54375 271.557187 
C 256.54375 271.557187 256.54375 271.557187 256.54375 271.557187 
z
" clip-path="url(#pf46d70c56e)" style="fill: #440154; stroke: #ffffff; stroke-linejoin: miter"/>
   </g>
   <g id="patch_103">
    <path d="M 256.54375 271.557187 
C 256.54375 271.557187 256.54375 271.557187 256.54375 271.557187 
C 256.54375 271.557187 256.54375 271.557187 256.54375 271.557187 
L 256.54375 271.557187 
C 256.54375 271.557187 256.54375 271.557187 256.54375 271.557187 
C 256.54375 271.557187 256.54375 271.557187 256.54375 271.557187 
z
" clip-path="url(#pf46d70c56e)" style="fill: #440154; stroke: #ffffff; stroke-linejoin: miter"/>
   </g>
   <g id="patch_104">
    <path d="M 256.54375 271.557187 
C 256.54375 271.557187 256.54375 271.557187 256.54375 271.557187 
C 256.54375 271.557187 256.54375 271.557187 256.54375 271.557187 
L 256.54375 271.557187 
C 256.54375 271.557187 256.54375 271.557187 256.54375 271.557187 
C 256.54375 271.557187 256.54375 271.557187 256.54375 271.557187 
z
" clip-path="url(#pf46d70c56e)" style="fill: #440154; stroke: #ffffff; stroke-linejoin: miter"/>
   </g>
   <g id="patch_105">
    <path d="M 256.54375 271.557187 
C 256.54375 271.557187 256.54375 271.557187 256.54375 271.557187 
C 256.54375 271.557187 256.54375 271.557187 256.54375 271.557187 
L 256.54375 271.557187 
C 256.54375 271.557187 256.54375 271.557187 256.54375 271.557187 
C 256.54375 271.557187 256.54375 271.557187 256.54375 271.557187 
z
" clip-path="url(#pf46d70c56e)" style="fill: #440154; stroke: #ffffff; stroke-linejoin: miter"/>
   </g>
   <g id="patch_106">
    <path d="M 256.54375 271.557187 
C 256.54375 271.557187 256.54375 271.557187 256.54375 271.557187 
C 256.54375 271.557187 256.54375 271.557187 256.54375 271.557187 
L 256.54375 271.557187 
C 256.54375 271.557187 256.54375 271.557187 256.54375 271.557187 
C 256.54375 271.557187 256.54375 271.557187 256.54375 271.557187 
z
" clip-path="url(#pf46d70c56e)" style="fill: #440154; stroke: #ffffff; stroke-linejoin: miter"/>
   </g>
   <g id="patch_107">
    <path d="M 256.54375 271.557187 
C 256.54375 271.557187 256.54375 271.557187 256.54375 271.557187 
C 256.54375 271.557187 256.54375 271.557187 256.54375 271.557187 
L 256.788037 272.785301 
C 256.707593 272.801303 256.62577 272.809361 256.54375 272.809361 
C 256.46173 272.809361 256.379907 272.801303 256.299463 272.785301 
z
" clip-path="url(#pf46d70c56e)" style="fill: #440154; stroke: #ffffff; stroke-linejoin: miter"/>
   </g>
   <g id="patch_108">
    <path d="M 256.54375 271.557187 
C 256.54375 271.557187 256.54375 271.557187 256.54375 271.557187 
C 256.54375 271.557187 256.54375 271.557187 256.54375 271.557187 
L 256.54375 271.557187 
C 256.54375 271.557187 256.54375 271.557187 256.54375 271.557187 
C 256.54375 271.557187 256.54375 271.557187 256.54375 271.557187 
z
" clip-path="url(#pf46d70c56e)" style="fill: #440154; stroke: #ffffff; stroke-linejoin: miter"/>
   </g>
   <g id="patch_109">
    <path d="M 256.54375 271.557187 
C 256.54375 271.557187 256.54375 271.557187 256.54375 271.557187 
C 256.54375 271.557187 256.54375 271.557187 256.54375 271.557187 
L 256.54375 271.557187 
C 256.54375 271.557187 256.54375 271.557187 256.54375 271.557187 
C 256.54375 271.557187 256.54375 271.557187 256.54375 271.557187 
z
" clip-path="url(#pf46d70c56e)" style="fill: #440154; stroke: #ffffff; stroke-linejoin: miter"/>
   </g>
   <g id="patch_110">
    <path d="M 256.54375 271.557187 
C 256.54375 271.557187 256.54375 271.557187 256.54375 271.557187 
C 256.54375 271.557187 256.54375 271.557187 256.54375 271.557187 
L 256.54375 271.557187 
C 256.54375 271.557187 256.54375 271.557187 256.54375 271.557187 
C 256.54375 271.557187 256.54375 271.557187 256.54375 271.557187 
z
" clip-path="url(#pf46d70c56e)" style="fill: #440154; stroke: #ffffff; stroke-linejoin: miter"/>
   </g>
   <g id="patch_111">
    <path d="M 256.54375 271.557187 
C 256.54375 271.557187 256.54375 271.557187 256.54375 271.557187 
C 256.54375 271.557187 256.54375 271.557187 256.54375 271.557187 
L 256.54375 271.557187 
C 256.54375 271.557187 256.54375 271.557187 256.54375 271.557187 
C 256.54375 271.557187 256.54375 271.557187 256.54375 271.557187 
z
" clip-path="url(#pf46d70c56e)" style="fill: #440154; stroke: #ffffff; stroke-linejoin: miter"/>
   </g>
   <g id="patch_112">
    <path d="M 256.54375 271.557187 
C 256.54375 271.557187 256.54375 271.557187 256.54375 271.557187 
C 256.54375 271.557187 256.54375 271.557187 256.54375 271.557187 
L 255.315636 271.3129 
C 255.331638 271.232456 255.355504 271.153778 255.386892 271.078001 
C 255.41828 271.002224 255.457037 270.929714 255.502605 270.861517 
z
" clip-path="url(#pf46d70c56e)" style="fill: #440154; stroke: #ffffff; stroke-linejoin: miter"/>
   </g>
   <g id="patch_113">
    <path d="M 256.54375 271.557187 
C 256.54375 271.557187 256.54375 271.557187 256.54375 271.557187 
C 256.54375 271.557187 256.54375 271.557187 256.54375 271.557187 
L 256.54375 271.557187 
C 256.54375 271.557187 256.54375 271.557187 256.54375 271.557187 
C 256.54375 271.557187 256.54375 271.557187 256.54375 271.557187 
z
" clip-path="url(#pf46d70c56e)" style="fill: #440154; stroke: #ffffff; stroke-linejoin: miter"/>
   </g>
   <g id="patch_114">
    <path d="M 256.54375 271.557187 
C 256.54375 271.557187 256.54375 271.557187 256.54375 271.557187 
C 256.54375 271.557187 256.54375 271.557187 256.54375 271.557187 
L 256.54375 271.557187 
C 256.54375 271.557187 256.54375 271.557187 256.54375 271.557187 
C 256.54375 271.557187 256.54375 271.557187 256.54375 271.557187 
z
" clip-path="url(#pf46d70c56e)" style="fill: #440154; stroke: #ffffff; stroke-linejoin: miter"/>
   </g>
   <g id="matplotlib.axis_1">
    <g id="xtick_1">
     <g id="line2d_1">
      <path d="M 256.54375 271.557187 
L 486.94375 271.557187 
" clip-path="url(#pf46d70c56e)" style="fill: none; stroke: #b0b0b0; stroke-width: 0.8; stroke-linecap: square"/>
     </g>
     <g id="text_1">
      <!-- E -->
      <g transform="translate(497.784375 274.316562)scale(0.1 -0.1)">
       <defs>
        <path id="DejaVuSans-45" d="M 628 4666 
L 3578 4666 
L 3578 4134 
L 1259 4134 
L 1259 2753 
L 3481 2753 
L 3481 2222 
L 1259 2222 
L 1259 531 
L 3634 531 
L 3634 0 
L 628 0 
L 628 4666 
z
" transform="scale(0.015625)"/>
       </defs>
       <use xlink:href="#DejaVuSans-45"/>
      </g>
     </g>
    </g>
    <g id="xtick_2">
     <g id="line2d_2">
      <path d="M 256.54375 271.557187 
L 419.461152 108.639785 
" clip-path="url(#pf46d70c56e)" style="fill: none; stroke: #b0b0b0; stroke-width: 0.8; stroke-linecap: square"/>
     </g>
     <g id="text_2">
      <!-- N-E -->
      <g transform="translate(420.656741 101.499665)scale(0.1 -0.1)">
       <defs>
        <path id="DejaVuSans-4e" d="M 628 4666 
L 1478 4666 
L 3547 763 
L 3547 4666 
L 4159 4666 
L 4159 0 
L 3309 0 
L 1241 3903 
L 1241 0 
L 628 0 
L 628 4666 
z
" transform="scale(0.015625)"/>
        <path id="DejaVuSans-2d" d="M 313 2009 
L 1997 2009 
L 1997 1497 
L 313 1497 
L 313 2009 
z
" transform="scale(0.015625)"/>
       </defs>
       <use xlink:href="#DejaVuSans-4e"/>
       <use xlink:href="#DejaVuSans-2d" x="74.804688"/>
       <use xlink:href="#DejaVuSans-45" x="110.888672"/>
      </g>
     </g>
    </g>
    <g id="xtick_3">
     <g id="line2d_3">
      <path d="M 256.54375 271.557187 
L 256.54375 41.157187 
" clip-path="url(#pf46d70c56e)" style="fill: none; stroke: #b0b0b0; stroke-width: 0.8; stroke-linecap: square"/>
     </g>
     <g id="text_3">
      <!-- N -->
      <g transform="translate(252.803125 29.916562)scale(0.1 -0.1)">
       <use xlink:href="#DejaVuSans-4e"/>
      </g>
     </g>
    </g>
    <g id="xtick_4">
     <g id="line2d_4">
      <path d="M 256.54375 271.557187 
L 93.626348 108.639785 
" clip-path="url(#pf46d70c56e)" style="fill: none; stroke: #b0b0b0; stroke-width: 0.8; stroke-linecap: square"/>
     </g>
     <g id="text_4">
      <!-- N-W -->
      <g transform="translate(73.438571 101.499665)scale(0.1 -0.1)">
       <defs>
        <path id="DejaVuSans-57" d="M 213 4666 
L 850 4666 
L 1831 722 
L 2809 4666 
L 3519 4666 
L 4500 722 
L 5478 4666 
L 6119 4666 
L 4947 0 
L 4153 0 
L 3169 4050 
L 2175 0 
L 1381 0 
L 213 4666 
z
" transform="scale(0.015625)"/>
       </defs>
       <use xlink:href="#DejaVuSans-4e"/>
       <use xlink:href="#DejaVuSans-2d" x="74.804688"/>
       <use xlink:href="#DejaVuSans-57" x="106.888672"/>
      </g>
     </g>
    </g>
    <g id="xtick_5">
     <g id="line2d_5">
      <path d="M 256.54375 271.557187 
L 26.14375 271.557187 
" clip-path="url(#pf46d70c56e)" style="fill: none; stroke: #b0b0b0; stroke-width: 0.8; stroke-linecap: square"/>
     </g>
     <g id="text_5">
      <!-- W -->
      <g transform="translate(7.2 274.316562)scale(0.1 -0.1)">
       <use xlink:href="#DejaVuSans-57"/>
      </g>
     </g>
    </g>
    <g id="xtick_6">
     <g id="line2d_6">
      <path d="M 256.54375 271.557187 
L 93.626348 434.47459 
" clip-path="url(#pf46d70c56e)" style="fill: none; stroke: #b0b0b0; stroke-width: 0.8; stroke-linecap: square"/>
     </g>
     <g id="text_6">
      <!-- S-W -->
      <g transform="translate(74.004978 447.13346)scale(0.1 -0.1)">
       <defs>
        <path id="DejaVuSans-53" d="M 3425 4513 
L 3425 3897 
Q 3066 4069 2747 4153 
Q 2428 4238 2131 4238 
Q 1616 4238 1336 4038 
Q 1056 3838 1056 3469 
Q 1056 3159 1242 3001 
Q 1428 2844 1947 2747 
L 2328 2669 
Q 3034 2534 3370 2195 
Q 3706 1856 3706 1288 
Q 3706 609 3251 259 
Q 2797 -91 1919 -91 
Q 1588 -91 1214 -16 
Q 841 59 441 206 
L 441 856 
Q 825 641 1194 531 
Q 1563 422 1919 422 
Q 2459 422 2753 634 
Q 3047 847 3047 1241 
Q 3047 1584 2836 1778 
Q 2625 1972 2144 2069 
L 1759 2144 
Q 1053 2284 737 2584 
Q 422 2884 422 3419 
Q 422 4038 858 4394 
Q 1294 4750 2059 4750 
Q 2388 4750 2728 4690 
Q 3069 4631 3425 4513 
z
" transform="scale(0.015625)"/>
       </defs>
       <use xlink:href="#DejaVuSans-53"/>
       <use xlink:href="#DejaVuSans-2d" x="63.476562"/>
       <use xlink:href="#DejaVuSans-57" x="95.560547"/>
      </g>
     </g>
    </g>
    <g id="xtick_7">
     <g id="line2d_7">
      <path d="M 256.54375 271.557187 
L 256.54375 501.957187 
" clip-path="url(#pf46d70c56e)" style="fill: none; stroke: #b0b0b0; stroke-width: 0.8; stroke-linecap: square"/>
     </g>
     <g id="text_7">
      <!-- S -->
      <g transform="translate(253.369531 518.716562)scale(0.1 -0.1)">
       <use xlink:href="#DejaVuSans-53"/>
      </g>
     </g>
    </g>
    <g id="xtick_8">
     <g id="line2d_8">
      <path d="M 256.54375 271.557187 
L 419.461152 434.47459 
" clip-path="url(#pf46d70c56e)" style="fill: none; stroke: #b0b0b0; stroke-width: 0.8; stroke-linecap: square"/>
     </g>
     <g id="text_8">
      <!-- S-E -->
      <g transform="translate(421.223147 447.13346)scale(0.1 -0.1)">
       <use xlink:href="#DejaVuSans-53"/>
       <use xlink:href="#DejaVuSans-2d" x="63.476562"/>
       <use xlink:href="#DejaVuSans-45" x="99.560547"/>
      </g>
     </g>
    </g>
   </g>
   <g id="matplotlib.axis_2">
    <g id="ytick_1">
     <g id="line2d_9">
      <path d="M 302.62375 271.557187 
C 302.62375 265.506017 301.431801 259.513687 299.116119 253.923135 
C 296.800436 248.332583 293.406054 243.25253 289.12723 238.973707 
C 284.848407 234.694884 279.768355 231.300501 274.177803 228.984819 
C 268.58725 226.669136 262.59492 225.477187 256.54375 225.477187 
C 250.49258 225.477187 244.50025 226.669136 238.909697 228.984819 
C 233.319145 231.300501 228.239093 234.694884 223.96027 238.973707 
C 219.681446 243.25253 216.287064 248.332583 213.971381 253.923135 
C 211.655699 259.513687 210.46375 265.506017 210.46375 271.557187 
C 210.46375 277.608358 211.655699 283.600688 213.971381 289.19124 
C 216.287064 294.781792 219.681446 299.861845 223.96027 304.140668 
C 228.239093 308.419491 233.319145 311.813874 238.909697 314.129556 
C 244.50025 316.445239 250.49258 317.637187 256.54375 317.637187 
C 262.59492 317.637187 268.58725 316.445239 274.177803 314.129556 
C 279.768355 311.813874 284.848407 308.419491 289.12723 304.140668 
C 293.406054 299.861845 296.800436 294.781792 299.116119 289.19124 
C 301.431801 283.600688 302.62375 277.608358 302.62375 271.557187 
" clip-path="url(#pf46d70c56e)" style="fill: none; stroke: #b0b0b0; stroke-width: 0.8; stroke-linecap: square"/>
     </g>
     <g id="text_9">
      <!-- 36.8 -->
      <g transform="translate(274.177803 226.905131)scale(0.1 -0.1)">
       <defs>
        <path id="DejaVuSans-33" d="M 2597 2516 
Q 3050 2419 3304 2112 
Q 3559 1806 3559 1356 
Q 3559 666 3084 287 
Q 2609 -91 1734 -91 
Q 1441 -91 1130 -33 
Q 819 25 488 141 
L 488 750 
Q 750 597 1062 519 
Q 1375 441 1716 441 
Q 2309 441 2620 675 
Q 2931 909 2931 1356 
Q 2931 1769 2642 2001 
Q 2353 2234 1838 2234 
L 1294 2234 
L 1294 2753 
L 1863 2753 
Q 2328 2753 2575 2939 
Q 2822 3125 2822 3475 
Q 2822 3834 2567 4026 
Q 2313 4219 1838 4219 
Q 1578 4219 1281 4162 
Q 984 4106 628 3988 
L 628 4550 
Q 988 4650 1302 4700 
Q 1616 4750 1894 4750 
Q 2613 4750 3031 4423 
Q 3450 4097 3450 3541 
Q 3450 3153 3228 2886 
Q 3006 2619 2597 2516 
z
" transform="scale(0.015625)"/>
        <path id="DejaVuSans-36" d="M 2113 2584 
Q 1688 2584 1439 2293 
Q 1191 2003 1191 1497 
Q 1191 994 1439 701 
Q 1688 409 2113 409 
Q 2538 409 2786 701 
Q 3034 994 3034 1497 
Q 3034 2003 2786 2293 
Q 2538 2584 2113 2584 
z
M 3366 4563 
L 3366 3988 
Q 3128 4100 2886 4159 
Q 2644 4219 2406 4219 
Q 1781 4219 1451 3797 
Q 1122 3375 1075 2522 
Q 1259 2794 1537 2939 
Q 1816 3084 2150 3084 
Q 2853 3084 3261 2657 
Q 3669 2231 3669 1497 
Q 3669 778 3244 343 
Q 2819 -91 2113 -91 
Q 1303 -91 875 529 
Q 447 1150 447 2328 
Q 447 3434 972 4092 
Q 1497 4750 2381 4750 
Q 2619 4750 2861 4703 
Q 3103 4656 3366 4563 
z
" transform="scale(0.015625)"/>
        <path id="DejaVuSans-2e" d="M 684 794 
L 1344 794 
L 1344 0 
L 684 0 
L 684 794 
z
" transform="scale(0.015625)"/>
        <path id="DejaVuSans-38" d="M 2034 2216 
Q 1584 2216 1326 1975 
Q 1069 1734 1069 1313 
Q 1069 891 1326 650 
Q 1584 409 2034 409 
Q 2484 409 2743 651 
Q 3003 894 3003 1313 
Q 3003 1734 2745 1975 
Q 2488 2216 2034 2216 
z
M 1403 2484 
Q 997 2584 770 2862 
Q 544 3141 544 3541 
Q 544 4100 942 4425 
Q 1341 4750 2034 4750 
Q 2731 4750 3128 4425 
Q 3525 4100 3525 3541 
Q 3525 3141 3298 2862 
Q 3072 2584 2669 2484 
Q 3125 2378 3379 2068 
Q 3634 1759 3634 1313 
Q 3634 634 3220 271 
Q 2806 -91 2034 -91 
Q 1263 -91 848 271 
Q 434 634 434 1313 
Q 434 1759 690 2068 
Q 947 2378 1403 2484 
z
M 1172 3481 
Q 1172 3119 1398 2916 
Q 1625 2713 2034 2713 
Q 2441 2713 2670 2916 
Q 2900 3119 2900 3481 
Q 2900 3844 2670 4047 
Q 2441 4250 2034 4250 
Q 1625 4250 1398 4047 
Q 1172 3844 1172 3481 
z
" transform="scale(0.015625)"/>
       </defs>
       <use xlink:href="#DejaVuSans-33"/>
       <use xlink:href="#DejaVuSans-36" x="63.623047"/>
       <use xlink:href="#DejaVuSans-2e" x="127.246094"/>
       <use xlink:href="#DejaVuSans-38" x="159.033203"/>
      </g>
     </g>
    </g>
    <g id="ytick_2">
     <g id="line2d_10">
      <path d="M 348.70375 271.557187 
C 348.70375 259.454847 346.319853 247.470187 341.688488 236.289082 
C 337.057123 225.107978 330.268358 214.947873 321.710711 206.390227 
C 313.153064 197.83258 302.99296 191.043815 291.811855 186.41245 
C 280.630751 181.781085 268.64609 179.397187 256.54375 179.397187 
C 244.44141 179.397187 232.456749 181.781085 221.275645 186.41245 
C 210.09454 191.043815 199.934436 197.83258 191.376789 206.390227 
C 182.819142 214.947873 176.030377 225.107978 171.399012 236.289082 
C 166.767647 247.470187 164.38375 259.454847 164.38375 271.557187 
C 164.38375 283.659528 166.767647 295.644188 171.399012 306.825293 
C 176.030377 318.006397 182.819142 328.166502 191.376789 336.724148 
C 199.934436 345.281795 210.09454 352.07056 221.275645 356.701925 
C 232.456749 361.33329 244.44141 363.717187 256.54375 363.717187 
C 268.64609 363.717187 280.630751 361.33329 291.811855 356.701925 
C 302.99296 352.07056 313.153064 345.281795 321.710711 336.724148 
C 330.268358 328.166502 337.057123 318.006397 341.688488 306.825293 
C 346.319853 295.644188 348.70375 283.659528 348.70375 271.557187 
" clip-path="url(#pf46d70c56e)" style="fill: none; stroke: #b0b0b0; stroke-width: 0.8; stroke-linecap: square"/>
     </g>
     <g id="text_10">
      <!-- 73.6 -->
      <g transform="translate(291.811855 184.332762)scale(0.1 -0.1)">
       <defs>
        <path id="DejaVuSans-37" d="M 525 4666 
L 3525 4666 
L 3525 4397 
L 1831 0 
L 1172 0 
L 2766 4134 
L 525 4134 
L 525 4666 
z
" transform="scale(0.015625)"/>
       </defs>
       <use xlink:href="#DejaVuSans-37"/>
       <use xlink:href="#DejaVuSans-33" x="63.623047"/>
       <use xlink:href="#DejaVuSans-2e" x="127.246094"/>
       <use xlink:href="#DejaVuSans-36" x="159.033203"/>
      </g>
     </g>
    </g>
    <g id="ytick_3">
     <g id="line2d_11">
      <path d="M 394.78375 271.557187 
C 394.78375 253.403677 391.207904 235.426687 384.260857 218.65503 
C 377.313809 201.883373 367.130662 186.643216 354.294191 173.806746 
C 341.457721 160.970276 326.217564 150.787129 309.445908 143.840081 
C 292.674251 136.893033 274.69726 133.317187 256.54375 133.317187 
C 238.39024 133.317187 220.413249 136.893033 203.641592 143.840081 
C 186.869936 150.787129 171.629779 160.970276 158.793309 173.806746 
C 145.956838 186.643216 135.773691 201.883373 128.826643 218.65503 
C 121.879596 235.426687 118.30375 253.403677 118.30375 271.557187 
C 118.30375 289.710698 121.879596 307.687688 128.826643 324.459345 
C 135.773691 341.231002 145.956838 356.471159 158.793309 369.307629 
C 171.629779 382.144099 186.869936 392.327246 203.641592 399.274294 
C 220.413249 406.221342 238.39024 409.797187 256.54375 409.797187 
C 274.69726 409.797187 292.674251 406.221342 309.445908 399.274294 
C 326.217564 392.327246 341.457721 382.144099 354.294191 369.307629 
C 367.130662 356.471159 377.313809 341.231002 384.260857 324.459345 
C 391.207904 307.687688 394.78375 289.710698 394.78375 271.557187 
" clip-path="url(#pf46d70c56e)" style="fill: none; stroke: #b0b0b0; stroke-width: 0.8; stroke-linecap: square"/>
     </g>
     <g id="text_11">
      <!-- 110.4 -->
      <g transform="translate(309.445908 141.760393)scale(0.1 -0.1)">
       <defs>
        <path id="DejaVuSans-31" d="M 794 531 
L 1825 531 
L 1825 4091 
L 703 3866 
L 703 4441 
L 1819 4666 
L 2450 4666 
L 2450 531 
L 3481 531 
L 3481 0 
L 794 0 
L 794 531 
z
" transform="scale(0.015625)"/>
        <path id="DejaVuSans-30" d="M 2034 4250 
Q 1547 4250 1301 3770 
Q 1056 3291 1056 2328 
Q 1056 1369 1301 889 
Q 1547 409 2034 409 
Q 2525 409 2770 889 
Q 3016 1369 3016 2328 
Q 3016 3291 2770 3770 
Q 2525 4250 2034 4250 
z
M 2034 4750 
Q 2819 4750 3233 4129 
Q 3647 3509 3647 2328 
Q 3647 1150 3233 529 
Q 2819 -91 2034 -91 
Q 1250 -91 836 529 
Q 422 1150 422 2328 
Q 422 3509 836 4129 
Q 1250 4750 2034 4750 
z
" transform="scale(0.015625)"/>
        <path id="DejaVuSans-34" d="M 2419 4116 
L 825 1625 
L 2419 1625 
L 2419 4116 
z
M 2253 4666 
L 3047 4666 
L 3047 1625 
L 3713 1625 
L 3713 1100 
L 3047 1100 
L 3047 0 
L 2419 0 
L 2419 1100 
L 313 1100 
L 313 1709 
L 2253 4666 
z
" transform="scale(0.015625)"/>
       </defs>
       <use xlink:href="#DejaVuSans-31"/>
       <use xlink:href="#DejaVuSans-31" x="63.623047"/>
       <use xlink:href="#DejaVuSans-30" x="127.246094"/>
       <use xlink:href="#DejaVuSans-2e" x="190.869141"/>
       <use xlink:href="#DejaVuSans-34" x="222.65625"/>
      </g>
     </g>
    </g>
    <g id="ytick_4">
     <g id="line2d_12">
      <path d="M 440.86375 271.557187 
C 440.86375 247.352507 436.095956 223.383186 426.833225 201.020977 
C 417.570495 178.658768 403.992966 158.338559 386.877672 141.223266 
C 369.762378 124.107972 349.442169 110.530442 327.07996 101.267712 
C 304.717751 92.004982 280.748431 87.237187 256.54375 87.237187 
C 232.339069 87.237187 208.369749 92.004982 186.00754 101.267712 
C 163.645331 110.530442 143.325122 124.107972 126.209828 141.223266 
C 109.094534 158.338559 95.517005 178.658768 86.254275 201.020977 
C 76.991544 223.383186 72.22375 247.352507 72.22375 271.557187 
C 72.22375 295.761868 76.991544 319.731189 86.254275 342.093398 
C 95.517005 364.455607 109.094534 384.775816 126.209828 401.891109 
C 143.325122 419.006403 163.645331 432.583933 186.00754 441.846663 
C 208.369749 451.109393 232.339069 455.877187 256.54375 455.877187 
C 280.748431 455.877187 304.717751 451.109393 327.07996 441.846663 
C 349.442169 432.583933 369.762378 419.006403 386.877672 401.891109 
C 403.992966 384.775816 417.570495 364.455607 426.833225 342.093398 
C 436.095956 319.731189 440.86375 295.761868 440.86375 271.557187 
" clip-path="url(#pf46d70c56e)" style="fill: none; stroke: #b0b0b0; stroke-width: 0.8; stroke-linecap: square"/>
     </g>
     <g id="text_12">
      <!-- 147.2 -->
      <g transform="translate(327.07996 99.188025)scale(0.1 -0.1)">
       <defs>
        <path id="DejaVuSans-32" d="M 1228 531 
L 3431 531 
L 3431 0 
L 469 0 
L 469 531 
Q 828 903 1448 1529 
Q 2069 2156 2228 2338 
Q 2531 2678 2651 2914 
Q 2772 3150 2772 3378 
Q 2772 3750 2511 3984 
Q 2250 4219 1831 4219 
Q 1534 4219 1204 4116 
Q 875 4013 500 3803 
L 500 4441 
Q 881 4594 1212 4672 
Q 1544 4750 1819 4750 
Q 2544 4750 2975 4387 
Q 3406 4025 3406 3419 
Q 3406 3131 3298 2873 
Q 3191 2616 2906 2266 
Q 2828 2175 2409 1742 
Q 1991 1309 1228 531 
z
" transform="scale(0.015625)"/>
       </defs>
       <use xlink:href="#DejaVuSans-31"/>
       <use xlink:href="#DejaVuSans-34" x="63.623047"/>
       <use xlink:href="#DejaVuSans-37" x="127.246094"/>
       <use xlink:href="#DejaVuSans-2e" x="190.869141"/>
       <use xlink:href="#DejaVuSans-32" x="222.65625"/>
      </g>
     </g>
    </g>
    <g id="ytick_5">
     <g id="line2d_13">
      <path d="M 486.94375 271.557187 
C 486.94375 241.301337 480.984007 211.339686 469.405594 183.386925 
C 457.827181 155.434163 440.85527 130.033902 419.461152 108.639785 
C 398.067035 87.245668 372.666774 70.273756 344.714013 58.695343 
C 316.761252 47.11693 286.799601 41.157187 256.54375 41.157187 
C 226.287899 41.157187 196.326248 47.11693 168.373487 58.695343 
C 140.420726 70.273756 115.020465 87.245668 93.626348 108.639785 
C 72.23223 130.033902 55.260319 155.434163 43.681906 183.386925 
C 32.103493 211.339686 26.14375 241.301337 26.14375 271.557187 
C 26.14375 301.813038 32.103493 331.774689 43.681906 359.72745 
C 55.260319 387.680212 72.23223 413.080473 93.626348 434.47459 
C 115.020465 455.868707 140.420726 472.840619 168.373487 484.419032 
C 196.326248 495.997445 226.287899 501.957187 256.54375 501.957187 
C 286.799601 501.957187 316.761252 495.997445 344.714013 484.419032 
C 372.666774 472.840619 398.067035 455.868707 419.461152 434.47459 
C 440.85527 413.080473 457.827181 387.680212 469.405594 359.72745 
C 480.984007 331.774689 486.94375 301.813038 486.94375 271.557187 
" clip-path="url(#pf46d70c56e)" style="fill: none; stroke: #b0b0b0; stroke-width: 0.8; stroke-linecap: square"/>
     </g>
     <g id="text_13">
      <!-- 184.0 -->
      <g transform="translate(344.714013 56.615656)scale(0.1 -0.1)">
       <use xlink:href="#DejaVuSans-31"/>
       <use xlink:href="#DejaVuSans-38" x="63.623047"/>
       <use xlink:href="#DejaVuSans-34" x="127.246094"/>
       <use xlink:href="#DejaVuSans-2e" x="190.869141"/>
       <use xlink:href="#DejaVuSans-30" x="222.65625"/>
      </g>
     </g>
    </g>
   </g>
   <g id="patch_115">
    <path d="M 486.94375 271.557187 
C 486.94375 241.301337 480.984007 211.339686 469.405594 183.386925 
C 457.827181 155.434163 440.85527 130.033902 419.461152 108.639785 
C 398.067035 87.245668 372.666774 70.273756 344.714013 58.695343 
C 316.761252 47.11693 286.799601 41.157187 256.54375 41.157187 
C 226.287899 41.157187 196.326248 47.11693 168.373487 58.695343 
C 140.420726 70.273756 115.020465 87.245668 93.626348 108.639785 
C 72.23223 130.033902 55.260319 155.434163 43.681906 183.386925 
C 32.103493 211.339686 26.14375 241.301337 26.14375 271.557187 
C 26.14375 301.813038 32.103493 331.774689 43.681906 359.72745 
C 55.260319 387.680212 72.23223 413.080473 93.626348 434.47459 
C 115.020465 455.868707 140.420726 472.840619 168.373487 484.419032 
C 196.326248 495.997445 226.287899 501.957187 256.54375 501.957187 
C 286.799601 501.957187 316.761252 495.997445 344.714013 484.419032 
C 372.666774 472.840619 398.067035 455.868707 419.461152 434.47459 
C 440.85527 413.080473 457.827181 387.680212 469.405594 359.72745 
C 480.984007 331.774689 486.94375 301.813038 486.94375 271.557187 
" style="fill: none; stroke: #000000; stroke-width: 0.8; stroke-linejoin: miter; stroke-linecap: square"/>
   </g>
   <g id="text_14">
    <!-- 25m height FFP Area -->
    <g transform="translate(193.894375 16.318125)scale(0.12 -0.12)">
     <defs>
      <path id="DejaVuSans-35" d="M 691 4666 
L 3169 4666 
L 3169 4134 
L 1269 4134 
L 1269 2991 
Q 1406 3038 1543 3061 
Q 1681 3084 1819 3084 
Q 2600 3084 3056 2656 
Q 3513 2228 3513 1497 
Q 3513 744 3044 326 
Q 2575 -91 1722 -91 
Q 1428 -91 1123 -41 
Q 819 9 494 109 
L 494 744 
Q 775 591 1075 516 
Q 1375 441 1709 441 
Q 2250 441 2565 725 
Q 2881 1009 2881 1497 
Q 2881 1984 2565 2268 
Q 2250 2553 1709 2553 
Q 1456 2553 1204 2497 
Q 953 2441 691 2322 
L 691 4666 
z
" transform="scale(0.015625)"/>
      <path id="DejaVuSans-6d" d="M 3328 2828 
Q 3544 3216 3844 3400 
Q 4144 3584 4550 3584 
Q 5097 3584 5394 3201 
Q 5691 2819 5691 2113 
L 5691 0 
L 5113 0 
L 5113 2094 
Q 5113 2597 4934 2840 
Q 4756 3084 4391 3084 
Q 3944 3084 3684 2787 
Q 3425 2491 3425 1978 
L 3425 0 
L 2847 0 
L 2847 2094 
Q 2847 2600 2669 2842 
Q 2491 3084 2119 3084 
Q 1678 3084 1418 2786 
Q 1159 2488 1159 1978 
L 1159 0 
L 581 0 
L 581 3500 
L 1159 3500 
L 1159 2956 
Q 1356 3278 1631 3431 
Q 1906 3584 2284 3584 
Q 2666 3584 2933 3390 
Q 3200 3197 3328 2828 
z
" transform="scale(0.015625)"/>
      <path id="DejaVuSans-20" transform="scale(0.015625)"/>
      <path id="DejaVuSans-68" d="M 3513 2113 
L 3513 0 
L 2938 0 
L 2938 2094 
Q 2938 2591 2744 2837 
Q 2550 3084 2163 3084 
Q 1697 3084 1428 2787 
Q 1159 2491 1159 1978 
L 1159 0 
L 581 0 
L 581 4863 
L 1159 4863 
L 1159 2956 
Q 1366 3272 1645 3428 
Q 1925 3584 2291 3584 
Q 2894 3584 3203 3211 
Q 3513 2838 3513 2113 
z
" transform="scale(0.015625)"/>
      <path id="DejaVuSans-65" d="M 3597 1894 
L 3597 1613 
L 953 1613 
Q 991 1019 1311 708 
Q 1631 397 2203 397 
Q 2534 397 2845 478 
Q 3156 559 3463 722 
L 3463 178 
Q 3153 47 2828 -22 
Q 2503 -91 2169 -91 
Q 1331 -91 842 396 
Q 353 884 353 1716 
Q 353 2575 817 3079 
Q 1281 3584 2069 3584 
Q 2775 3584 3186 3129 
Q 3597 2675 3597 1894 
z
M 3022 2063 
Q 3016 2534 2758 2815 
Q 2500 3097 2075 3097 
Q 1594 3097 1305 2825 
Q 1016 2553 972 2059 
L 3022 2063 
z
" transform="scale(0.015625)"/>
      <path id="DejaVuSans-69" d="M 603 3500 
L 1178 3500 
L 1178 0 
L 603 0 
L 603 3500 
z
M 603 4863 
L 1178 4863 
L 1178 4134 
L 603 4134 
L 603 4863 
z
" transform="scale(0.015625)"/>
      <path id="DejaVuSans-67" d="M 2906 1791 
Q 2906 2416 2648 2759 
Q 2391 3103 1925 3103 
Q 1463 3103 1205 2759 
Q 947 2416 947 1791 
Q 947 1169 1205 825 
Q 1463 481 1925 481 
Q 2391 481 2648 825 
Q 2906 1169 2906 1791 
z
M 3481 434 
Q 3481 -459 3084 -895 
Q 2688 -1331 1869 -1331 
Q 1566 -1331 1297 -1286 
Q 1028 -1241 775 -1147 
L 775 -588 
Q 1028 -725 1275 -790 
Q 1522 -856 1778 -856 
Q 2344 -856 2625 -561 
Q 2906 -266 2906 331 
L 2906 616 
Q 2728 306 2450 153 
Q 2172 0 1784 0 
Q 1141 0 747 490 
Q 353 981 353 1791 
Q 353 2603 747 3093 
Q 1141 3584 1784 3584 
Q 2172 3584 2450 3431 
Q 2728 3278 2906 2969 
L 2906 3500 
L 3481 3500 
L 3481 434 
z
" transform="scale(0.015625)"/>
      <path id="DejaVuSans-74" d="M 1172 4494 
L 1172 3500 
L 2356 3500 
L 2356 3053 
L 1172 3053 
L 1172 1153 
Q 1172 725 1289 603 
Q 1406 481 1766 481 
L 2356 481 
L 2356 0 
L 1766 0 
Q 1100 0 847 248 
Q 594 497 594 1153 
L 594 3053 
L 172 3053 
L 172 3500 
L 594 3500 
L 594 4494 
L 1172 4494 
z
" transform="scale(0.015625)"/>
      <path id="DejaVuSans-46" d="M 628 4666 
L 3309 4666 
L 3309 4134 
L 1259 4134 
L 1259 2759 
L 3109 2759 
L 3109 2228 
L 1259 2228 
L 1259 0 
L 628 0 
L 628 4666 
z
" transform="scale(0.015625)"/>
      <path id="DejaVuSans-50" d="M 1259 4147 
L 1259 2394 
L 2053 2394 
Q 2494 2394 2734 2622 
Q 2975 2850 2975 3272 
Q 2975 3691 2734 3919 
Q 2494 4147 2053 4147 
L 1259 4147 
z
M 628 4666 
L 2053 4666 
Q 2838 4666 3239 4311 
Q 3641 3956 3641 3272 
Q 3641 2581 3239 2228 
Q 2838 1875 2053 1875 
L 1259 1875 
L 1259 0 
L 628 0 
L 628 4666 
z
" transform="scale(0.015625)"/>
      <path id="DejaVuSans-41" d="M 2188 4044 
L 1331 1722 
L 3047 1722 
L 2188 4044 
z
M 1831 4666 
L 2547 4666 
L 4325 0 
L 3669 0 
L 3244 1197 
L 1141 1197 
L 716 0 
L 50 0 
L 1831 4666 
z
" transform="scale(0.015625)"/>
      <path id="DejaVuSans-72" d="M 2631 2963 
Q 2534 3019 2420 3045 
Q 2306 3072 2169 3072 
Q 1681 3072 1420 2755 
Q 1159 2438 1159 1844 
L 1159 0 
L 581 0 
L 581 3500 
L 1159 3500 
L 1159 2956 
Q 1341 3275 1631 3429 
Q 1922 3584 2338 3584 
Q 2397 3584 2469 3576 
Q 2541 3569 2628 3553 
L 2631 2963 
z
" transform="scale(0.015625)"/>
      <path id="DejaVuSans-61" d="M 2194 1759 
Q 1497 1759 1228 1600 
Q 959 1441 959 1056 
Q 959 750 1161 570 
Q 1363 391 1709 391 
Q 2188 391 2477 730 
Q 2766 1069 2766 1631 
L 2766 1759 
L 2194 1759 
z
M 3341 1997 
L 3341 0 
L 2766 0 
L 2766 531 
Q 2569 213 2275 61 
Q 1981 -91 1556 -91 
Q 1019 -91 701 211 
Q 384 513 384 1019 
Q 384 1609 779 1909 
Q 1175 2209 1959 2209 
L 2766 2209 
L 2766 2266 
Q 2766 2663 2505 2880 
Q 2244 3097 1772 3097 
Q 1472 3097 1187 3025 
Q 903 2953 641 2809 
L 641 3341 
Q 956 3463 1253 3523 
Q 1550 3584 1831 3584 
Q 2591 3584 2966 3190 
Q 3341 2797 3341 1997 
z
" transform="scale(0.015625)"/>
     </defs>
     <use xlink:href="#DejaVuSans-32"/>
     <use xlink:href="#DejaVuSans-35" x="63.623047"/>
     <use xlink:href="#DejaVuSans-6d" x="127.246094"/>
     <use xlink:href="#DejaVuSans-20" x="224.658203"/>
     <use xlink:href="#DejaVuSans-68" x="256.445312"/>
     <use xlink:href="#DejaVuSans-65" x="319.824219"/>
     <use xlink:href="#DejaVuSans-69" x="381.347656"/>
     <use xlink:href="#DejaVuSans-67" x="409.130859"/>
     <use xlink:href="#DejaVuSans-68" x="472.607422"/>
     <use xlink:href="#DejaVuSans-74" x="535.986328"/>
     <use xlink:href="#DejaVuSans-20" x="575.195312"/>
     <use xlink:href="#DejaVuSans-46" x="606.982422"/>
     <use xlink:href="#DejaVuSans-46" x="664.501953"/>
     <use xlink:href="#DejaVuSans-50" x="722.021484"/>
     <use xlink:href="#DejaVuSans-20" x="782.324219"/>
     <use xlink:href="#DejaVuSans-41" x="814.111328"/>
     <use xlink:href="#DejaVuSans-72" x="882.519531"/>
     <use xlink:href="#DejaVuSans-65" x="921.382812"/>
     <use xlink:href="#DejaVuSans-61" x="982.90625"/>
    </g>
   </g>
   <g id="legend_1">
    <g id="patch_116">
     <path d="M 381.47625 224.803437 
L 484.94375 224.803437 
Q 488.94375 224.803437 488.94375 220.803437 
L 488.94375 43.157187 
Q 488.94375 39.157187 484.94375 39.157187 
L 381.47625 39.157187 
Q 377.47625 39.157187 377.47625 43.157187 
L 377.47625 220.803437 
Q 377.47625 224.803437 381.47625 224.803437 
z
" style="fill: #ffffff; opacity: 0.8; stroke: #cccccc; stroke-linejoin: miter"/>
    </g>
    <g id="patch_117">
     <path d="M 385.47625 61.157187 
L 425.47625 61.157187 
L 425.47625 47.157187 
L 385.47625 47.157187 
z
" style="fill: #440154; stroke: #000000; stroke-linejoin: miter"/>
    </g>
    <g id="text_15">
     <!-- [0.0 : 0.1) -->
     <g transform="translate(441.47625 61.157187)scale(0.08 -0.08)">
      <defs>
       <path id="DejaVuSans-5b" d="M 550 4863 
L 1875 4863 
L 1875 4416 
L 1125 4416 
L 1125 -397 
L 1875 -397 
L 1875 -844 
L 550 -844 
L 550 4863 
z
" transform="scale(0.015625)"/>
       <path id="DejaVuSans-3a" d="M 750 794 
L 1409 794 
L 1409 0 
L 750 0 
L 750 794 
z
M 750 3309 
L 1409 3309 
L 1409 2516 
L 750 2516 
L 750 3309 
z
" transform="scale(0.015625)"/>
       <path id="DejaVuSans-29" d="M 513 4856 
L 1013 4856 
Q 1481 4119 1714 3412 
Q 1947 2706 1947 2009 
Q 1947 1309 1714 600 
Q 1481 -109 1013 -844 
L 513 -844 
Q 928 -128 1133 580 
Q 1338 1288 1338 2009 
Q 1338 2731 1133 3434 
Q 928 4138 513 4856 
z
" transform="scale(0.015625)"/>
      </defs>
      <use xlink:href="#DejaVuSans-5b"/>
      <use xlink:href="#DejaVuSans-30" x="39.013672"/>
      <use xlink:href="#DejaVuSans-2e" x="102.636719"/>
      <use xlink:href="#DejaVuSans-30" x="134.423828"/>
      <use xlink:href="#DejaVuSans-20" x="198.046875"/>
      <use xlink:href="#DejaVuSans-3a" x="229.833984"/>
      <use xlink:href="#DejaVuSans-20" x="263.525391"/>
      <use xlink:href="#DejaVuSans-30" x="295.3125"/>
      <use xlink:href="#DejaVuSans-2e" x="358.935547"/>
      <use xlink:href="#DejaVuSans-31" x="390.722656"/>
      <use xlink:href="#DejaVuSans-29" x="454.345703"/>
     </g>
    </g>
    <g id="patch_118">
     <path d="M 385.47625 86.820937 
L 425.47625 86.820937 
L 425.47625 72.820937 
L 385.47625 72.820937 
z
" style="fill: #443983; stroke: #000000; stroke-linejoin: miter"/>
    </g>
    <g id="text_16">
     <!-- [0.1 : 0.2) -->
     <g transform="translate(441.47625 86.820937)scale(0.08 -0.08)">
      <use xlink:href="#DejaVuSans-5b"/>
      <use xlink:href="#DejaVuSans-30" x="39.013672"/>
      <use xlink:href="#DejaVuSans-2e" x="102.636719"/>
      <use xlink:href="#DejaVuSans-31" x="134.423828"/>
      <use xlink:href="#DejaVuSans-20" x="198.046875"/>
      <use xlink:href="#DejaVuSans-3a" x="229.833984"/>
      <use xlink:href="#DejaVuSans-20" x="263.525391"/>
      <use xlink:href="#DejaVuSans-30" x="295.3125"/>
      <use xlink:href="#DejaVuSans-2e" x="358.935547"/>
      <use xlink:href="#DejaVuSans-32" x="390.722656"/>
      <use xlink:href="#DejaVuSans-29" x="454.345703"/>
     </g>
    </g>
    <g id="patch_119">
     <path d="M 385.47625 112.484687 
L 425.47625 112.484687 
L 425.47625 98.484687 
L 385.47625 98.484687 
z
" style="fill: #31688e; stroke: #000000; stroke-linejoin: miter"/>
    </g>
    <g id="text_17">
     <!-- [0.2 : 0.5) -->
     <g transform="translate(441.47625 112.484687)scale(0.08 -0.08)">
      <use xlink:href="#DejaVuSans-5b"/>
      <use xlink:href="#DejaVuSans-30" x="39.013672"/>
      <use xlink:href="#DejaVuSans-2e" x="102.636719"/>
      <use xlink:href="#DejaVuSans-32" x="134.423828"/>
      <use xlink:href="#DejaVuSans-20" x="198.046875"/>
      <use xlink:href="#DejaVuSans-3a" x="229.833984"/>
      <use xlink:href="#DejaVuSans-20" x="263.525391"/>
      <use xlink:href="#DejaVuSans-30" x="295.3125"/>
      <use xlink:href="#DejaVuSans-2e" x="358.935547"/>
      <use xlink:href="#DejaVuSans-35" x="390.722656"/>
      <use xlink:href="#DejaVuSans-29" x="454.345703"/>
     </g>
    </g>
    <g id="patch_120">
     <path d="M 385.47625 138.148437 
L 425.47625 138.148437 
L 425.47625 124.148437 
L 385.47625 124.148437 
z
" style="fill: #21918c; stroke: #000000; stroke-linejoin: miter"/>
    </g>
    <g id="text_18">
     <!-- [0.5 : 1.0) -->
     <g transform="translate(441.47625 138.148437)scale(0.08 -0.08)">
      <use xlink:href="#DejaVuSans-5b"/>
      <use xlink:href="#DejaVuSans-30" x="39.013672"/>
      <use xlink:href="#DejaVuSans-2e" x="102.636719"/>
      <use xlink:href="#DejaVuSans-35" x="134.423828"/>
      <use xlink:href="#DejaVuSans-20" x="198.046875"/>
      <use xlink:href="#DejaVuSans-3a" x="229.833984"/>
      <use xlink:href="#DejaVuSans-20" x="263.525391"/>
      <use xlink:href="#DejaVuSans-31" x="295.3125"/>
      <use xlink:href="#DejaVuSans-2e" x="358.935547"/>
      <use xlink:href="#DejaVuSans-30" x="390.722656"/>
      <use xlink:href="#DejaVuSans-29" x="454.345703"/>
     </g>
    </g>
    <g id="patch_121">
     <path d="M 385.47625 163.812187 
L 425.47625 163.812187 
L 425.47625 149.812187 
L 385.47625 149.812187 
z
" style="fill: #35b779; stroke: #000000; stroke-linejoin: miter"/>
    </g>
    <g id="text_19">
     <!-- [1.0 : 2.0) -->
     <g transform="translate(441.47625 163.812187)scale(0.08 -0.08)">
      <use xlink:href="#DejaVuSans-5b"/>
      <use xlink:href="#DejaVuSans-31" x="39.013672"/>
      <use xlink:href="#DejaVuSans-2e" x="102.636719"/>
      <use xlink:href="#DejaVuSans-30" x="134.423828"/>
      <use xlink:href="#DejaVuSans-20" x="198.046875"/>
      <use xlink:href="#DejaVuSans-3a" x="229.833984"/>
      <use xlink:href="#DejaVuSans-20" x="263.525391"/>
      <use xlink:href="#DejaVuSans-32" x="295.3125"/>
      <use xlink:href="#DejaVuSans-2e" x="358.935547"/>
      <use xlink:href="#DejaVuSans-30" x="390.722656"/>
      <use xlink:href="#DejaVuSans-29" x="454.345703"/>
     </g>
    </g>
    <g id="patch_122">
     <path d="M 385.47625 189.475937 
L 425.47625 189.475937 
L 425.47625 175.475937 
L 385.47625 175.475937 
z
" style="fill: #90d743; stroke: #000000; stroke-linejoin: miter"/>
    </g>
    <g id="text_20">
     <!-- [2.0 : 3.0) -->
     <g transform="translate(441.47625 189.475937)scale(0.08 -0.08)">
      <use xlink:href="#DejaVuSans-5b"/>
      <use xlink:href="#DejaVuSans-32" x="39.013672"/>
      <use xlink:href="#DejaVuSans-2e" x="102.636719"/>
      <use xlink:href="#DejaVuSans-30" x="134.423828"/>
      <use xlink:href="#DejaVuSans-20" x="198.046875"/>
      <use xlink:href="#DejaVuSans-3a" x="229.833984"/>
      <use xlink:href="#DejaVuSans-20" x="263.525391"/>
      <use xlink:href="#DejaVuSans-33" x="295.3125"/>
      <use xlink:href="#DejaVuSans-2e" x="358.935547"/>
      <use xlink:href="#DejaVuSans-30" x="390.722656"/>
      <use xlink:href="#DejaVuSans-29" x="454.345703"/>
     </g>
    </g>
    <g id="patch_123">
     <path d="M 385.47625 215.139687 
L 425.47625 215.139687 
L 425.47625 201.139687 
L 385.47625 201.139687 
z
" style="fill: #fde725; stroke: #000000; stroke-linejoin: miter"/>
    </g>
    <g id="text_21">
     <!-- &gt;3.0 -->
     <g transform="translate(441.47625 215.139687)scale(0.08 -0.08)">
      <defs>
       <path id="DejaVuSans-3e" d="M 678 3150 
L 678 3719 
L 4684 2266 
L 4684 1747 
L 678 294 
L 678 863 
L 3897 2003 
L 678 3150 
z
" transform="scale(0.015625)"/>
      </defs>
      <use xlink:href="#DejaVuSans-3e"/>
      <use xlink:href="#DejaVuSans-33" x="83.789062"/>
      <use xlink:href="#DejaVuSans-2e" x="147.412109"/>
      <use xlink:href="#DejaVuSans-30" x="179.199219"/>
     </g>
    </g>
   </g>
  </g>
 </g>
 <defs>
  <clipPath id="pf46d70c56e">
   <path d="M 486.94375 271.557187 
C 486.94375 241.301337 480.984007 211.339686 469.405594 183.386925 
C 457.827181 155.434163 440.85527 130.033902 419.461152 108.639785 
C 398.067035 87.245668 372.666774 70.273756 344.714013 58.695343 
C 316.761252 47.11693 286.799601 41.157187 256.54375 41.157187 
C 226.287899 41.157187 196.326248 47.11693 168.373487 58.695343 
C 140.420726 70.273756 115.020465 87.245668 93.626348 108.639785 
C 72.23223 130.033902 55.260319 155.434163 43.681906 183.386925 
C 32.103493 211.339686 26.14375 241.301337 26.14375 271.557187 
C 26.14375 301.813038 32.103493 331.774689 43.681906 359.72745 
C 55.260319 387.680212 72.23223 413.080473 93.626348 434.47459 
C 115.020465 455.868707 140.420726 472.840619 168.373487 484.419032 
C 196.326248 495.997445 226.287899 501.957187 256.54375 501.957187 
C 286.799601 501.957187 316.761252 495.997445 344.714013 484.419032 
C 372.666774 472.840619 398.067035 455.868707 419.461152 434.47459 
C 440.85527 413.080473 457.827181 387.680212 469.405594 359.72745 
C 480.984007 331.774689 486.94375 301.813038 486.94375 271.557187 
M 256.54375 271.557187 
C 256.54375 271.557187 256.54375 271.557187 256.54375 271.557187 
C 256.54375 271.557187 256.54375 271.557187 256.54375 271.557187 
C 256.54375 271.557187 256.54375 271.557187 256.54375 271.557187 
C 256.54375 271.557187 256.54375 271.557187 256.54375 271.557187 
C 256.54375 271.557187 256.54375 271.557187 256.54375 271.557187 
C 256.54375 271.557187 256.54375 271.557187 256.54375 271.557187 
C 256.54375 271.557187 256.54375 271.557187 256.54375 271.557187 
C 256.54375 271.557187 256.54375 271.557187 256.54375 271.557187 
C 256.54375 271.557187 256.54375 271.557187 256.54375 271.557187 
C 256.54375 271.557187 256.54375 271.557187 256.54375 271.557187 
C 256.54375 271.557187 256.54375 271.557187 256.54375 271.557187 
C 256.54375 271.557187 256.54375 271.557187 256.54375 271.557187 
C 256.54375 271.557187 256.54375 271.557187 256.54375 271.557187 
C 256.54375 271.557187 256.54375 271.557187 256.54375 271.557187 
C 256.54375 271.557187 256.54375 271.557187 256.54375 271.557187 
C 256.54375 271.557187 256.54375 271.557187 256.54375 271.557187 
M 486.94375 271.557187 
z
"/>
  </clipPath>
 </defs>
</svg>
