<?xml version="1.0" encoding="utf-8" standalone="no"?>
<!DOCTYPE svg PUBLIC "-//W3C//DTD SVG 1.1//EN"
  "http://www.w3.org/Graphics/SVG/1.1/DTD/svg11.dtd">
<svg xmlns:xlink="http://www.w3.org/1999/xlink" width="511.303125pt" height="527.99625pt" viewBox="0 0 511.303125 527.99625" xmlns="http://www.w3.org/2000/svg" version="1.1">
 <metadata>
  <rdf:RDF xmlns:dc="http://purl.org/dc/elements/1.1/" xmlns:cc="http://creativecommons.org/ns#" xmlns:rdf="http://www.w3.org/1999/02/22-rdf-syntax-ns#">
   <cc:Work>
    <dc:type rdf:resource="http://purl.org/dc/dcmitype/StillImage"/>
    <dc:date>2023-09-28T13:34:00.914103</dc:date>
    <dc:format>image/svg+xml</dc:format>
    <dc:creator>
     <cc:Agent>
      <dc:title>Matplotlib v3.5.2, https://matplotlib.org/</dc:title>
     </cc:Agent>
    </dc:creator>
   </cc:Work>
  </rdf:RDF>
 </metadata>
 <defs>
  <style type="text/css">*{stroke-linejoin: round; stroke-linecap: butt}</style>
 </defs>
 <g id="figure_1">
  <g id="patch_1">
   <path d="M 0 527.99625 
L 511.303125 527.99625 
L 511.303125 0 
L 0 0 
z
" style="fill: #ffffff"/>
  </g>
  <g id="axes_1">
   <g id="patch_2">
    <path d="M 486.94375 271.557187 
C 486.94375 241.301337 480.984007 211.339686 469.405594 183.386925 
C 457.827181 155.434163 440.85527 130.033902 419.461152 108.639785 
C 398.067035 87.245668 372.666774 70.273756 344.714013 58.695343 
C 316.761252 47.11693 286.799601 41.157187 256.54375 41.157187 
C 226.287899 41.157187 196.326248 47.11693 168.373487 58.695343 
C 140.420726 70.273756 115.020465 87.245668 93.626348 108.639785 
C 72.23223 130.033902 55.260319 155.434163 43.681906 183.386925 
C 32.103493 211.339686 26.14375 241.301337 26.14375 271.557187 
C 26.14375 301.813038 32.103493 331.774689 43.681906 359.72745 
C 55.260319 387.680212 72.23223 413.080473 93.626348 434.47459 
C 115.020465 455.868707 140.420726 472.840619 168.373487 484.419032 
C 196.326248 495.997445 226.287899 501.957187 256.54375 501.957187 
C 286.799601 501.957187 316.761252 495.997445 344.714013 484.419032 
C 372.666774 472.840619 398.067035 455.868707 419.461152 434.47459 
C 440.85527 413.080473 457.827181 387.680212 469.405594 359.72745 
C 480.984007 331.774689 486.94375 301.813038 486.94375 271.557187 
M 256.54375 271.557187 
C 256.54375 271.557187 256.54375 271.557187 256.54375 271.557187 
C 256.54375 271.557187 256.54375 271.557187 256.54375 271.557187 
C 256.54375 271.557187 256.54375 271.557187 256.54375 271.557187 
C 256.54375 271.557187 256.54375 271.557187 256.54375 271.557187 
C 256.54375 271.557187 256.54375 271.557187 256.54375 271.557187 
C 256.54375 271.557187 256.54375 271.557187 256.54375 271.557187 
C 256.54375 271.557187 256.54375 271.557187 256.54375 271.557187 
C 256.54375 271.557187 256.54375 271.557187 256.54375 271.557187 
C 256.54375 271.557187 256.54375 271.557187 256.54375 271.557187 
C 256.54375 271.557187 256.54375 271.557187 256.54375 271.557187 
C 256.54375 271.557187 256.54375 271.557187 256.54375 271.557187 
C 256.54375 271.557187 256.54375 271.557187 256.54375 271.557187 
C 256.54375 271.557187 256.54375 271.557187 256.54375 271.557187 
C 256.54375 271.557187 256.54375 271.557187 256.54375 271.557187 
C 256.54375 271.557187 256.54375 271.557187 256.54375 271.557187 
C 256.54375 271.557187 256.54375 271.557187 256.54375 271.557187 
M 486.94375 271.557187 
z
" style="fill: #ffffff"/>
   </g>
   <g id="patch_3">
    <path d="M 260.940916 249.45114 
C 259.492918 249.163115 258.020116 249.018057 256.54375 249.018057 
C 255.067384 249.018057 253.594582 249.163115 252.146584 249.45114 
L 251.902297 248.223026 
C 253.43074 247.919 254.985363 247.765883 256.54375 247.765883 
C 258.102137 247.765883 259.65676 247.919 261.185203 248.223026 
z
" clip-path="url(#peb56de00ca)" style="fill: #fde725; stroke: #ffffff; stroke-linejoin: miter"/>
   </g>
   <g id="patch_4">
    <path d="M 276.022525 242.40514 
C 274.112997 241.129234 272.082718 240.044027 269.960964 239.165168 
C 267.83921 238.286308 265.636228 237.618041 263.383786 237.170003 
L 273.399554 186.817339 
C 278.950215 187.921434 284.37899 189.568235 289.607599 191.733996 
C 294.836207 193.899756 299.839395 196.574016 304.545018 199.718213 
z
" clip-path="url(#peb56de00ca)" style="fill: #fde725; stroke: #ffffff; stroke-linejoin: miter"/>
   </g>
   <g id="patch_5">
    <path d="M 306.518689 238.165001 
C 304.331421 234.891524 301.827805 231.840859 299.043942 229.056996 
C 296.260079 226.273132 293.209414 223.769516 289.935937 221.582249 
L 304.545018 199.718213 
C 309.250641 202.86241 313.635972 206.461358 317.637776 210.463162 
C 321.639579 214.464965 325.238528 218.850296 328.382725 223.555919 
z
" clip-path="url(#peb56de00ca)" style="fill: #fde725; stroke: #ffffff; stroke-linejoin: miter"/>
   </g>
   <g id="patch_6">
    <path d="M 313.036982 260.319985 
C 312.300919 256.619544 311.203051 253.000361 309.759211 249.514622 
C 308.315371 246.028883 306.532531 242.693424 304.4364 239.556342 
L 306.518689 238.165001 
C 308.705956 241.438478 310.566311 244.918957 312.072927 248.556249 
C 313.579543 252.193542 314.725143 255.970082 315.49321 259.831411 
z
" clip-path="url(#peb56de00ca)" style="fill: #fde725; stroke: #ffffff; stroke-linejoin: miter"/>
   </g>
   <g id="patch_7">
    <path d="M 274.965456 275.221493 
C 275.205477 274.014827 275.326359 272.787493 275.326359 271.557187 
C 275.326359 270.326882 275.205477 269.099548 274.965456 267.892882 
L 281.106025 266.671447 
C 281.426052 268.280335 281.587228 269.91678 281.587228 271.557187 
C 281.587228 273.197595 281.426052 274.83404 281.106025 276.442928 
z
" clip-path="url(#peb56de00ca)" style="fill: #fde725; stroke: #ffffff; stroke-linejoin: miter"/>
   </g>
   <g id="patch_8">
    <path d="M 281.531219 288.253281 
C 282.624853 286.616542 283.55503 284.876303 284.308338 283.057657 
C 285.061646 281.23901 285.634447 279.35074 286.01848 277.420076 
L 310.580755 282.305816 
C 309.876694 285.845368 308.82656 289.307196 307.445495 292.641381 
C 306.064431 295.975566 304.359106 299.166005 302.354111 302.166692 
z
" clip-path="url(#peb56de00ca)" style="fill: #fde725; stroke: #ffffff; stroke-linejoin: miter"/>
   </g>
   <g id="patch_9">
    <path d="M 266.978808 287.174356 
C 268.00177 286.490835 268.955103 285.708455 269.82506 284.838497 
C 270.695017 283.96854 271.477397 283.015207 272.160918 281.992246 
L 339.835315 327.210832 
C 336.189869 332.666627 332.017175 337.751068 327.377403 342.390841 
C 322.737631 347.030613 317.653189 351.203306 312.197394 354.848752 
z
" clip-path="url(#peb56de00ca)" style="fill: #fde725; stroke: #ffffff; stroke-linejoin: miter"/>
   </g>
   <g id="patch_10">
    <path d="M 263.628073 307.172486 
C 265.96096 306.708446 268.242619 306.016312 270.44015 305.106065 
C 272.637681 304.195818 274.74047 303.071854 276.718196 301.75038 
L 303.153677 341.313873 
C 298.584449 344.366934 293.726281 346.963679 288.649226 349.066663 
C 283.572172 351.169648 278.300752 352.768716 272.91098 353.840808 
z
" clip-path="url(#peb56de00ca)" style="fill: #fde725; stroke: #ffffff; stroke-linejoin: miter"/>
   </g>
   <g id="patch_11">
    <path d="M 226.740735 421.387064 
C 236.554947 423.339232 246.537266 424.322405 256.54375 424.322405 
C 266.550234 424.322405 276.532553 423.339232 286.346765 421.387064 
L 293.431089 457.002363 
C 281.28399 459.418571 268.928824 460.635448 256.54375 460.635448 
C 244.158676 460.635448 231.80351 459.418571 219.656411 457.002363 
z
" clip-path="url(#peb56de00ca)" style="fill: #fde725; stroke: #ffffff; stroke-linejoin: miter"/>
   </g>
   <g id="patch_12">
    <path d="M 145.932132 437.099172 
C 156.775525 444.344495 168.30461 450.50692 180.353142 455.497586 
C 192.401675 460.488251 204.911462 464.283053 217.702115 466.827273 
L 211.59494 497.530116 
C 196.793177 494.585862 182.316443 490.194393 168.373487 484.419032 
C 154.430532 478.643671 141.088697 471.512311 128.540368 463.127786 
z
" clip-path="url(#peb56de00ca)" style="fill: #fde725; stroke: #ffffff; stroke-linejoin: miter"/>
   </g>
   <g id="patch_13">
    <path d="M 237.803148 284.079257 
C 238.623373 285.306811 239.562229 286.450811 240.606178 287.494759 
C 241.650127 288.538708 242.794126 289.477564 244.02168 290.29779 
L 192.542059 367.342487 
C 186.267895 363.150224 180.420787 358.351627 175.085049 353.015889 
C 169.749311 347.680151 164.950713 341.833043 160.758451 335.558878 
z
" clip-path="url(#peb56de00ca)" style="fill: #fde725; stroke: #ffffff; stroke-linejoin: miter"/>
   </g>
   <g id="patch_14">
    <path d="M 240.578271 274.732919 
C 240.786289 275.778695 241.096556 276.801508 241.504598 277.786608 
C 241.91264 278.771708 242.416486 279.714338 243.008871 280.600905 
L 182.622486 320.949797 
C 179.387153 316.107779 176.635379 310.959571 174.406843 305.579408 
C 172.178307 300.199246 170.483772 294.613115 169.347674 288.901565 
z
" clip-path="url(#peb56de00ca)" style="fill: #fde725; stroke: #ffffff; stroke-linejoin: miter"/>
   </g>
   <g id="patch_15">
    <path d="M 200.050518 260.319985 
C 199.314454 264.020426 198.94375 267.784251 198.94375 271.557187 
C 198.94375 275.330124 199.314454 279.093949 200.050518 282.79439 
L 191.453722 284.504399 
C 190.605649 280.240848 190.178533 275.904267 190.178533 271.557187 
C 190.178533 267.210108 190.605649 262.873527 191.453722 258.609976 
z
" clip-path="url(#peb56de00ca)" style="fill: #fde725; stroke: #ffffff; stroke-linejoin: miter"/>
   </g>
   <g id="patch_16">
    <path d="M 182.622486 222.164578 
C 179.387153 227.006596 176.635379 232.154804 174.406843 237.534967 
C 172.178307 242.915129 170.483772 248.50126 169.347674 254.21281 
L 168.119561 253.968523 
C 169.27166 248.176529 170.990061 242.511719 173.249985 237.05578 
C 175.509909 231.599841 178.300441 226.379123 181.581342 221.468908 
z
" clip-path="url(#peb56de00ca)" style="fill: #fde725; stroke: #ffffff; stroke-linejoin: miter"/>
   </g>
   <g id="patch_17">
    <path d="M 209.933823 201.800502 
C 205.364595 204.853563 201.106375 208.348194 197.220565 212.234003 
C 193.334756 216.119812 189.840125 220.378032 186.787065 224.94726 
L 186.787065 224.94726 
C 189.840125 220.378032 193.334756 216.119812 197.220565 212.234003 
C 201.106375 208.348194 205.364595 204.853563 209.933823 201.800502 
z
" clip-path="url(#peb56de00ca)" style="fill: #fde725; stroke: #ffffff; stroke-linejoin: miter"/>
   </g>
   <g id="patch_18">
    <path d="M 241.397955 195.414135 
C 236.410405 196.406221 231.532375 197.885955 226.834205 199.832001 
C 222.136035 201.778046 217.640417 204.181005 213.412176 207.006225 
L 213.412176 207.006225 
C 217.640417 204.181005 222.136035 201.778046 226.834205 199.832001 
C 231.532375 197.885955 236.410405 196.406221 241.397955 195.414135 
z
" clip-path="url(#peb56de00ca)" style="fill: #fde725; stroke: #ffffff; stroke-linejoin: miter"/>
   </g>
   <g id="patch_19">
    <path d="M 260.940916 249.45114 
C 259.492918 249.163115 258.020116 249.018057 256.54375 249.018057 
C 255.067384 249.018057 253.594582 249.163115 252.146584 249.45114 
L 252.146584 249.45114 
C 253.594582 249.163115 255.067384 249.018057 256.54375 249.018057 
C 258.020116 249.018057 259.492918 249.163115 260.940916 249.45114 
z
" clip-path="url(#peb56de00ca)" style="fill: #21918c; stroke: #ffffff; stroke-linejoin: miter"/>
   </g>
   <g id="patch_20">
    <path d="M 270.457161 250.734296 
C 269.093212 249.822935 267.643013 249.047787 266.127474 248.420031 
C 264.611936 247.792274 263.038377 247.31494 261.42949 246.994913 
L 263.383786 237.170003 
C 265.636228 237.618041 267.83921 238.286308 269.960964 239.165168 
C 272.082718 240.044027 274.112997 241.129234 276.022525 242.40514 
z
" clip-path="url(#peb56de00ca)" style="fill: #21918c; stroke: #ffffff; stroke-linejoin: miter"/>
   </g>
   <g id="patch_21">
    <path d="M 290.90152 248.600059 
C 289.397774 246.349544 287.676538 244.252212 285.762632 242.338306 
C 283.848726 240.4244 281.751394 238.703163 279.500878 237.199417 
L 289.935937 221.582249 
C 293.209414 223.769516 296.260079 226.273132 299.043942 229.056996 
C 301.827805 231.840859 304.331421 234.891524 306.518689 238.165001 
z
" clip-path="url(#peb56de00ca)" style="fill: #21918c; stroke: #ffffff; stroke-linejoin: miter"/>
   </g>
   <g id="patch_22">
    <path d="M 311.808868 260.564272 
C 311.088806 256.944276 310.014806 253.40377 308.602353 249.993808 
C 307.189901 246.583846 305.445818 243.320897 303.395255 240.252013 
L 304.4364 239.556342 
C 306.532531 242.693424 308.315371 246.028883 309.759211 249.514622 
C 311.203051 253.000361 312.300919 256.619544 313.036982 260.319985 
z
" clip-path="url(#peb56de00ca)" style="fill: #21918c; stroke: #ffffff; stroke-linejoin: miter"/>
   </g>
   <g id="patch_23">
    <path d="M 274.965456 275.221493 
C 275.205477 274.014827 275.326359 272.787493 275.326359 271.557187 
C 275.326359 270.326882 275.205477 269.099548 274.965456 267.892882 
L 274.965456 267.892882 
C 275.205477 269.099548 275.326359 270.326882 275.326359 271.557187 
C 275.326359 272.787493 275.205477 274.014827 274.965456 275.221493 
z
" clip-path="url(#peb56de00ca)" style="fill: #21918c; stroke: #ffffff; stroke-linejoin: miter"/>
   </g>
   <g id="patch_24">
    <path d="M 279.44893 286.86194 
C 280.451428 285.361596 281.30409 283.766377 281.994623 282.099284 
C 282.685155 280.432192 283.210222 278.701278 283.562252 276.931502 
L 286.01848 277.420076 
C 285.634447 279.35074 285.061646 281.23901 284.308338 283.057657 
C 283.55503 284.876303 282.624853 286.616542 281.531219 288.253281 
z
" clip-path="url(#peb56de00ca)" style="fill: #21918c; stroke: #ffffff; stroke-linejoin: miter"/>
   </g>
   <g id="patch_25">
    <path d="M 266.283138 286.133211 
C 267.237902 285.495258 268.127679 284.765037 268.939639 283.953077 
C 269.751599 283.141117 270.481821 282.251339 271.119774 281.296575 
L 272.160918 281.992246 
C 271.477397 283.015207 270.695017 283.96854 269.82506 284.838497 
C 268.955103 285.708455 268.00177 286.490835 266.978808 287.174356 
z
" clip-path="url(#peb56de00ca)" style="fill: #21918c; stroke: #ffffff; stroke-linejoin: miter"/>
   </g>
   <g id="patch_26">
    <path d="M 263.383786 305.944372 
C 265.636228 305.496334 267.83921 304.828067 269.960964 303.949207 
C 272.082718 303.070348 274.112997 301.985141 276.022525 300.709235 
L 276.718196 301.75038 
C 274.74047 303.071854 272.637681 304.195818 270.44015 305.106065 
C 268.242619 306.016312 265.96096 306.708446 263.628073 307.172486 
z
" clip-path="url(#peb56de00ca)" style="fill: #21918c; stroke: #ffffff; stroke-linejoin: miter"/>
   </g>
   <g id="patch_27">
    <path d="M 226.740735 421.387064 
C 236.554947 423.339232 246.537266 424.322405 256.54375 424.322405 
C 266.550234 424.322405 276.532553 423.339232 286.346765 421.387064 
L 286.346765 421.387064 
C 276.532553 423.339232 266.550234 424.322405 256.54375 424.322405 
C 246.537266 424.322405 236.554947 423.339232 226.740735 421.387064 
z
" clip-path="url(#peb56de00ca)" style="fill: #21918c; stroke: #ffffff; stroke-linejoin: miter"/>
   </g>
   <g id="patch_28">
    <path d="M 152.888838 426.687727 
C 163.050256 433.477369 173.854242 439.25222 185.145005 443.929007 
C 196.435767 448.605794 208.158775 452.16193 220.144985 454.546135 
L 217.702115 466.827273 
C 204.911462 464.283053 192.401675 460.488251 180.353142 455.497586 
C 168.30461 450.50692 156.775525 444.344495 145.932132 437.099172 
z
" clip-path="url(#peb56de00ca)" style="fill: #21918c; stroke: #ffffff; stroke-linejoin: miter"/>
   </g>
   <g id="patch_29">
    <path d="M 241.967726 281.296575 
C 242.605679 282.251339 243.335901 283.141117 244.147861 283.953077 
C 244.959821 284.765037 245.849598 285.495258 246.804362 286.133211 
L 244.02168 290.29779 
C 242.794126 289.477564 241.650127 288.538708 240.606178 287.494759 
C 239.562229 286.450811 238.623373 285.306811 237.803148 284.079257 
z
" clip-path="url(#peb56de00ca)" style="fill: #21918c; stroke: #ffffff; stroke-linejoin: miter"/>
   </g>
   <g id="patch_30">
    <path d="M 241.806385 274.488632 
C 241.998402 275.453964 242.284802 276.398099 242.661456 277.307422 
C 243.03811 278.216745 243.503198 279.086865 244.050015 279.905234 
L 243.008871 280.600905 
C 242.416486 279.714338 241.91264 278.771708 241.504598 277.786608 
C 241.096556 276.801508 240.786289 275.778695 240.578271 274.732919 
z
" clip-path="url(#peb56de00ca)" style="fill: #21918c; stroke: #ffffff; stroke-linejoin: miter"/>
   </g>
   <g id="patch_31">
    <path d="M 203.734859 261.052846 
C 203.0468 264.511954 202.700272 268.030312 202.700272 271.557187 
C 202.700272 275.084063 203.0468 278.602421 203.734859 282.061529 
L 200.050518 282.79439 
C 199.314454 279.093949 198.94375 275.330124 198.94375 271.557187 
C 198.94375 267.784251 199.314454 264.020426 200.050518 260.319985 
z
" clip-path="url(#peb56de00ca)" style="fill: #21918c; stroke: #ffffff; stroke-linejoin: miter"/>
   </g>
   <g id="patch_32">
    <path d="M 182.622486 222.164578 
C 179.387153 227.006596 176.635379 232.154804 174.406843 237.534967 
C 172.178307 242.915129 170.483772 248.50126 169.347674 254.21281 
L 169.347674 254.21281 
C 170.483772 248.50126 172.178307 242.915129 174.406843 237.534967 
C 176.635379 232.154804 179.387153 227.006596 182.622486 222.164578 
z
" clip-path="url(#peb56de00ca)" style="fill: #21918c; stroke: #ffffff; stroke-linejoin: miter"/>
   </g>
   <g id="patch_33">
    <path d="M 209.933823 201.800502 
C 205.364595 204.853563 201.106375 208.348194 197.220565 212.234003 
C 193.334756 216.119812 189.840125 220.378032 186.787065 224.94726 
L 186.787065 224.94726 
C 189.840125 220.378032 193.334756 216.119812 197.220565 212.234003 
C 201.106375 208.348194 205.364595 204.853563 209.933823 201.800502 
z
" clip-path="url(#peb56de00ca)" style="fill: #21918c; stroke: #ffffff; stroke-linejoin: miter"/>
   </g>
   <g id="patch_34">
    <path d="M 241.397955 195.414135 
C 236.410405 196.406221 231.532375 197.885955 226.834205 199.832001 
C 222.136035 201.778046 217.640417 204.181005 213.412176 207.006225 
L 213.412176 207.006225 
C 217.640417 204.181005 222.136035 201.778046 226.834205 199.832001 
C 231.532375 197.885955 236.410405 196.406221 241.397955 195.414135 
z
" clip-path="url(#peb56de00ca)" style="fill: #21918c; stroke: #ffffff; stroke-linejoin: miter"/>
   </g>
   <g id="patch_35">
    <path d="M 256.54375 271.557187 
C 256.54375 271.557187 256.54375 271.557187 256.54375 271.557187 
C 256.54375 271.557187 256.54375 271.557187 256.54375 271.557187 
L 252.146584 249.45114 
C 253.594582 249.163115 255.067384 249.018057 256.54375 249.018057 
C 258.020116 249.018057 259.492918 249.163115 260.940916 249.45114 
z
" clip-path="url(#peb56de00ca)" style="fill: #440154; stroke: #ffffff; stroke-linejoin: miter"/>
   </g>
   <g id="patch_36">
    <path d="M 256.54375 271.557187 
C 256.54375 271.557187 256.54375 271.557187 256.54375 271.557187 
C 256.54375 271.557187 256.54375 271.557187 256.54375 271.557187 
L 261.42949 246.994913 
C 263.038377 247.31494 264.611936 247.792274 266.127474 248.420031 
C 267.643013 249.047787 269.093212 249.822935 270.457161 250.734296 
z
" clip-path="url(#peb56de00ca)" style="fill: #440154; stroke: #ffffff; stroke-linejoin: miter"/>
   </g>
   <g id="patch_37">
    <path d="M 256.54375 271.557187 
C 256.54375 271.557187 256.54375 271.557187 256.54375 271.557187 
C 256.54375 271.557187 256.54375 271.557187 256.54375 271.557187 
L 279.500878 237.199417 
C 281.751394 238.703163 283.848726 240.4244 285.762632 242.338306 
C 287.676538 244.252212 289.397774 246.349544 290.90152 248.600059 
z
" clip-path="url(#peb56de00ca)" style="fill: #440154; stroke: #ffffff; stroke-linejoin: miter"/>
   </g>
   <g id="patch_38">
    <path d="M 256.54375 271.557187 
C 256.54375 271.557187 256.54375 271.557187 256.54375 271.557187 
C 256.54375 271.557187 256.54375 271.557187 256.54375 271.557187 
L 303.395255 240.252013 
C 305.445818 243.320897 307.189901 246.583846 308.602353 249.993808 
C 310.014806 253.40377 311.088806 256.944276 311.808868 260.564272 
z
" clip-path="url(#peb56de00ca)" style="fill: #440154; stroke: #ffffff; stroke-linejoin: miter"/>
   </g>
   <g id="patch_39">
    <path d="M 256.54375 271.557187 
C 256.54375 271.557187 256.54375 271.557187 256.54375 271.557187 
C 256.54375 271.557187 256.54375 271.557187 256.54375 271.557187 
L 274.965456 267.892882 
C 275.205477 269.099548 275.326359 270.326882 275.326359 271.557187 
C 275.326359 272.787493 275.205477 274.014827 274.965456 275.221493 
z
" clip-path="url(#peb56de00ca)" style="fill: #440154; stroke: #ffffff; stroke-linejoin: miter"/>
   </g>
   <g id="patch_40">
    <path d="M 256.54375 271.557187 
C 256.54375 271.557187 256.54375 271.557187 256.54375 271.557187 
C 256.54375 271.557187 256.54375 271.557187 256.54375 271.557187 
L 283.562252 276.931502 
C 283.210222 278.701278 282.685155 280.432192 281.994623 282.099284 
C 281.30409 283.766377 280.451428 285.361596 279.44893 286.86194 
z
" clip-path="url(#peb56de00ca)" style="fill: #440154; stroke: #ffffff; stroke-linejoin: miter"/>
   </g>
   <g id="patch_41">
    <path d="M 256.54375 271.557187 
C 256.54375 271.557187 256.54375 271.557187 256.54375 271.557187 
C 256.54375 271.557187 256.54375 271.557187 256.54375 271.557187 
L 271.119774 281.296575 
C 270.481821 282.251339 269.751599 283.141117 268.939639 283.953077 
C 268.127679 284.765037 267.237902 285.495258 266.283138 286.133211 
z
" clip-path="url(#peb56de00ca)" style="fill: #440154; stroke: #ffffff; stroke-linejoin: miter"/>
   </g>
   <g id="patch_42">
    <path d="M 256.54375 271.557187 
C 256.54375 271.557187 256.54375 271.557187 256.54375 271.557187 
C 256.54375 271.557187 256.54375 271.557187 256.54375 271.557187 
L 276.022525 300.709235 
C 274.112997 301.985141 272.082718 303.070348 269.960964 303.949207 
C 267.83921 304.828067 265.636228 305.496334 263.383786 305.944372 
z
" clip-path="url(#peb56de00ca)" style="fill: #440154; stroke: #ffffff; stroke-linejoin: miter"/>
   </g>
   <g id="patch_43">
    <path d="M 256.54375 271.557187 
C 256.54375 271.557187 256.54375 271.557187 256.54375 271.557187 
C 256.54375 271.557187 256.54375 271.557187 256.54375 271.557187 
L 286.346765 421.387064 
C 276.532553 423.339232 266.550234 424.322405 256.54375 424.322405 
C 246.537266 424.322405 236.554947 423.339232 226.740735 421.387064 
z
" clip-path="url(#peb56de00ca)" style="fill: #440154; stroke: #ffffff; stroke-linejoin: miter"/>
   </g>
   <g id="patch_44">
    <path d="M 256.54375 271.557187 
C 256.54375 271.557187 256.54375 271.557187 256.54375 271.557187 
C 256.54375 271.557187 256.54375 271.557187 256.54375 271.557187 
L 220.144985 454.546135 
C 208.158775 452.16193 196.435767 448.605794 185.145005 443.929007 
C 173.854242 439.25222 163.050256 433.477369 152.888838 426.687727 
z
" clip-path="url(#peb56de00ca)" style="fill: #440154; stroke: #ffffff; stroke-linejoin: miter"/>
   </g>
   <g id="patch_45">
    <path d="M 256.54375 271.557187 
C 256.54375 271.557187 256.54375 271.557187 256.54375 271.557187 
C 256.54375 271.557187 256.54375 271.557187 256.54375 271.557187 
L 246.804362 286.133211 
C 245.849598 285.495258 244.959821 284.765037 244.147861 283.953077 
C 243.335901 283.141117 242.605679 282.251339 241.967726 281.296575 
z
" clip-path="url(#peb56de00ca)" style="fill: #440154; stroke: #ffffff; stroke-linejoin: miter"/>
   </g>
   <g id="patch_46">
    <path d="M 256.54375 271.557187 
C 256.54375 271.557187 256.54375 271.557187 256.54375 271.557187 
C 256.54375 271.557187 256.54375 271.557187 256.54375 271.557187 
L 244.050015 279.905234 
C 243.503198 279.086865 243.03811 278.216745 242.661456 277.307422 
C 242.284802 276.398099 241.998402 275.453964 241.806385 274.488632 
z
" clip-path="url(#peb56de00ca)" style="fill: #440154; stroke: #ffffff; stroke-linejoin: miter"/>
   </g>
   <g id="patch_47">
    <path d="M 256.54375 271.557187 
C 256.54375 271.557187 256.54375 271.557187 256.54375 271.557187 
C 256.54375 271.557187 256.54375 271.557187 256.54375 271.557187 
L 203.734859 282.061529 
C 203.0468 278.602421 202.700272 275.084063 202.700272 271.557187 
C 202.700272 268.030312 203.0468 264.511954 203.734859 261.052846 
z
" clip-path="url(#peb56de00ca)" style="fill: #440154; stroke: #ffffff; stroke-linejoin: miter"/>
   </g>
   <g id="patch_48">
    <path d="M 256.54375 271.557187 
C 256.54375 271.557187 256.54375 271.557187 256.54375 271.557187 
C 256.54375 271.557187 256.54375 271.557187 256.54375 271.557187 
L 169.347674 254.21281 
C 170.483772 248.50126 172.178307 242.915129 174.406843 237.534967 
C 176.635379 232.154804 179.387153 227.006596 182.622486 222.164578 
z
" clip-path="url(#peb56de00ca)" style="fill: #440154; stroke: #ffffff; stroke-linejoin: miter"/>
   </g>
   <g id="patch_49">
    <path d="M 256.54375 271.557187 
C 256.54375 271.557187 256.54375 271.557187 256.54375 271.557187 
C 256.54375 271.557187 256.54375 271.557187 256.54375 271.557187 
L 186.787065 224.94726 
C 189.840125 220.378032 193.334756 216.119812 197.220565 212.234003 
C 201.106375 208.348194 205.364595 204.853563 209.933823 201.800502 
z
" clip-path="url(#peb56de00ca)" style="fill: #440154; stroke: #ffffff; stroke-linejoin: miter"/>
   </g>
   <g id="patch_50">
    <path d="M 256.54375 271.557187 
C 256.54375 271.557187 256.54375 271.557187 256.54375 271.557187 
C 256.54375 271.557187 256.54375 271.557187 256.54375 271.557187 
L 213.412176 207.006225 
C 217.640417 204.181005 222.136035 201.778046 226.834205 199.832001 
C 231.532375 197.885955 236.410405 196.406221 241.397955 195.414135 
z
" clip-path="url(#peb56de00ca)" style="fill: #440154; stroke: #ffffff; stroke-linejoin: miter"/>
   </g>
   <g id="matplotlib.axis_1">
    <g id="xtick_1">
     <g id="line2d_1">
      <path d="M 256.54375 271.557187 
L 486.94375 271.557187 
" clip-path="url(#peb56de00ca)" style="fill: none; stroke: #b0b0b0; stroke-width: 0.8; stroke-linecap: square"/>
     </g>
     <g id="text_1">
      <!-- E -->
      <g transform="translate(497.784375 274.316562)scale(0.1 -0.1)">
       <defs>
        <path id="DejaVuSans-45" d="M 628 4666 
L 3578 4666 
L 3578 4134 
L 1259 4134 
L 1259 2753 
L 3481 2753 
L 3481 2222 
L 1259 2222 
L 1259 531 
L 3634 531 
L 3634 0 
L 628 0 
L 628 4666 
z
" transform="scale(0.015625)"/>
       </defs>
       <use xlink:href="#DejaVuSans-45"/>
      </g>
     </g>
    </g>
    <g id="xtick_2">
     <g id="line2d_2">
      <path d="M 256.54375 271.557187 
L 419.461152 108.639785 
" clip-path="url(#peb56de00ca)" style="fill: none; stroke: #b0b0b0; stroke-width: 0.8; stroke-linecap: square"/>
     </g>
     <g id="text_2">
      <!-- N-E -->
      <g transform="translate(420.656741 101.499665)scale(0.1 -0.1)">
       <defs>
        <path id="DejaVuSans-4e" d="M 628 4666 
L 1478 4666 
L 3547 763 
L 3547 4666 
L 4159 4666 
L 4159 0 
L 3309 0 
L 1241 3903 
L 1241 0 
L 628 0 
L 628 4666 
z
" transform="scale(0.015625)"/>
        <path id="DejaVuSans-2d" d="M 313 2009 
L 1997 2009 
L 1997 1497 
L 313 1497 
L 313 2009 
z
" transform="scale(0.015625)"/>
       </defs>
       <use xlink:href="#DejaVuSans-4e"/>
       <use xlink:href="#DejaVuSans-2d" x="74.804688"/>
       <use xlink:href="#DejaVuSans-45" x="110.888672"/>
      </g>
     </g>
    </g>
    <g id="xtick_3">
     <g id="line2d_3">
      <path d="M 256.54375 271.557187 
L 256.54375 41.157187 
" clip-path="url(#peb56de00ca)" style="fill: none; stroke: #b0b0b0; stroke-width: 0.8; stroke-linecap: square"/>
     </g>
     <g id="text_3">
      <!-- N -->
      <g transform="translate(252.803125 29.916562)scale(0.1 -0.1)">
       <use xlink:href="#DejaVuSans-4e"/>
      </g>
     </g>
    </g>
    <g id="xtick_4">
     <g id="line2d_4">
      <path d="M 256.54375 271.557187 
L 93.626348 108.639785 
" clip-path="url(#peb56de00ca)" style="fill: none; stroke: #b0b0b0; stroke-width: 0.8; stroke-linecap: square"/>
     </g>
     <g id="text_4">
      <!-- N-W -->
      <g transform="translate(73.438571 101.499665)scale(0.1 -0.1)">
       <defs>
        <path id="DejaVuSans-57" d="M 213 4666 
L 850 4666 
L 1831 722 
L 2809 4666 
L 3519 4666 
L 4500 722 
L 5478 4666 
L 6119 4666 
L 4947 0 
L 4153 0 
L 3169 4050 
L 2175 0 
L 1381 0 
L 213 4666 
z
" transform="scale(0.015625)"/>
       </defs>
       <use xlink:href="#DejaVuSans-4e"/>
       <use xlink:href="#DejaVuSans-2d" x="74.804688"/>
       <use xlink:href="#DejaVuSans-57" x="106.888672"/>
      </g>
     </g>
    </g>
    <g id="xtick_5">
     <g id="line2d_5">
      <path d="M 256.54375 271.557187 
L 26.14375 271.557187 
" clip-path="url(#peb56de00ca)" style="fill: none; stroke: #b0b0b0; stroke-width: 0.8; stroke-linecap: square"/>
     </g>
     <g id="text_5">
      <!-- W -->
      <g transform="translate(7.2 274.316562)scale(0.1 -0.1)">
       <use xlink:href="#DejaVuSans-57"/>
      </g>
     </g>
    </g>
    <g id="xtick_6">
     <g id="line2d_6">
      <path d="M 256.54375 271.557187 
L 93.626348 434.47459 
" clip-path="url(#peb56de00ca)" style="fill: none; stroke: #b0b0b0; stroke-width: 0.8; stroke-linecap: square"/>
     </g>
     <g id="text_6">
      <!-- S-W -->
      <g transform="translate(74.004978 447.13346)scale(0.1 -0.1)">
       <defs>
        <path id="DejaVuSans-53" d="M 3425 4513 
L 3425 3897 
Q 3066 4069 2747 4153 
Q 2428 4238 2131 4238 
Q 1616 4238 1336 4038 
Q 1056 3838 1056 3469 
Q 1056 3159 1242 3001 
Q 1428 2844 1947 2747 
L 2328 2669 
Q 3034 2534 3370 2195 
Q 3706 1856 3706 1288 
Q 3706 609 3251 259 
Q 2797 -91 1919 -91 
Q 1588 -91 1214 -16 
Q 841 59 441 206 
L 441 856 
Q 825 641 1194 531 
Q 1563 422 1919 422 
Q 2459 422 2753 634 
Q 3047 847 3047 1241 
Q 3047 1584 2836 1778 
Q 2625 1972 2144 2069 
L 1759 2144 
Q 1053 2284 737 2584 
Q 422 2884 422 3419 
Q 422 4038 858 4394 
Q 1294 4750 2059 4750 
Q 2388 4750 2728 4690 
Q 3069 4631 3425 4513 
z
" transform="scale(0.015625)"/>
       </defs>
       <use xlink:href="#DejaVuSans-53"/>
       <use xlink:href="#DejaVuSans-2d" x="63.476562"/>
       <use xlink:href="#DejaVuSans-57" x="95.560547"/>
      </g>
     </g>
    </g>
    <g id="xtick_7">
     <g id="line2d_7">
      <path d="M 256.54375 271.557187 
L 256.54375 501.957187 
" clip-path="url(#peb56de00ca)" style="fill: none; stroke: #b0b0b0; stroke-width: 0.8; stroke-linecap: square"/>
     </g>
     <g id="text_7">
      <!-- S -->
      <g transform="translate(253.369531 518.716562)scale(0.1 -0.1)">
       <use xlink:href="#DejaVuSans-53"/>
      </g>
     </g>
    </g>
    <g id="xtick_8">
     <g id="line2d_8">
      <path d="M 256.54375 271.557187 
L 419.461152 434.47459 
" clip-path="url(#peb56de00ca)" style="fill: none; stroke: #b0b0b0; stroke-width: 0.8; stroke-linecap: square"/>
     </g>
     <g id="text_8">
      <!-- S-E -->
      <g transform="translate(421.223147 447.13346)scale(0.1 -0.1)">
       <use xlink:href="#DejaVuSans-53"/>
       <use xlink:href="#DejaVuSans-2d" x="63.476562"/>
       <use xlink:href="#DejaVuSans-45" x="99.560547"/>
      </g>
     </g>
    </g>
   </g>
   <g id="matplotlib.axis_2">
    <g id="ytick_1">
     <g id="line2d_9">
      <path d="M 302.62375 271.557187 
C 302.62375 265.506017 301.431801 259.513687 299.116119 253.923135 
C 296.800436 248.332583 293.406054 243.25253 289.12723 238.973707 
C 284.848407 234.694884 279.768355 231.300501 274.177803 228.984819 
C 268.58725 226.669136 262.59492 225.477187 256.54375 225.477187 
C 250.49258 225.477187 244.50025 226.669136 238.909697 228.984819 
C 233.319145 231.300501 228.239093 234.694884 223.96027 238.973707 
C 219.681446 243.25253 216.287064 248.332583 213.971381 253.923135 
C 211.655699 259.513687 210.46375 265.506017 210.46375 271.557187 
C 210.46375 277.608358 211.655699 283.600688 213.971381 289.19124 
C 216.287064 294.781792 219.681446 299.861845 223.96027 304.140668 
C 228.239093 308.419491 233.319145 311.813874 238.909697 314.129556 
C 244.50025 316.445239 250.49258 317.637187 256.54375 317.637187 
C 262.59492 317.637187 268.58725 316.445239 274.177803 314.129556 
C 279.768355 311.813874 284.848407 308.419491 289.12723 304.140668 
C 293.406054 299.861845 296.800436 294.781792 299.116119 289.19124 
C 301.431801 283.600688 302.62375 277.608358 302.62375 271.557187 
" clip-path="url(#peb56de00ca)" style="fill: none; stroke: #b0b0b0; stroke-width: 0.8; stroke-linecap: square"/>
     </g>
     <g id="text_9">
      <!-- 36.8 -->
      <g transform="translate(274.177803 226.905131)scale(0.1 -0.1)">
       <defs>
        <path id="DejaVuSans-33" d="M 2597 2516 
Q 3050 2419 3304 2112 
Q 3559 1806 3559 1356 
Q 3559 666 3084 287 
Q 2609 -91 1734 -91 
Q 1441 -91 1130 -33 
Q 819 25 488 141 
L 488 750 
Q 750 597 1062 519 
Q 1375 441 1716 441 
Q 2309 441 2620 675 
Q 2931 909 2931 1356 
Q 2931 1769 2642 2001 
Q 2353 2234 1838 2234 
L 1294 2234 
L 1294 2753 
L 1863 2753 
Q 2328 2753 2575 2939 
Q 2822 3125 2822 3475 
Q 2822 3834 2567 4026 
Q 2313 4219 1838 4219 
Q 1578 4219 1281 4162 
Q 984 4106 628 3988 
L 628 4550 
Q 988 4650 1302 4700 
Q 1616 4750 1894 4750 
Q 2613 4750 3031 4423 
Q 3450 4097 3450 3541 
Q 3450 3153 3228 2886 
Q 3006 2619 2597 2516 
z
" transform="scale(0.015625)"/>
        <path id="DejaVuSans-36" d="M 2113 2584 
Q 1688 2584 1439 2293 
Q 1191 2003 1191 1497 
Q 1191 994 1439 701 
Q 1688 409 2113 409 
Q 2538 409 2786 701 
Q 3034 994 3034 1497 
Q 3034 2003 2786 2293 
Q 2538 2584 2113 2584 
z
M 3366 4563 
L 3366 3988 
Q 3128 4100 2886 4159 
Q 2644 4219 2406 4219 
Q 1781 4219 1451 3797 
Q 1122 3375 1075 2522 
Q 1259 2794 1537 2939 
Q 1816 3084 2150 3084 
Q 2853 3084 3261 2657 
Q 3669 2231 3669 1497 
Q 3669 778 3244 343 
Q 2819 -91 2113 -91 
Q 1303 -91 875 529 
Q 447 1150 447 2328 
Q 447 3434 972 4092 
Q 1497 4750 2381 4750 
Q 2619 4750 2861 4703 
Q 3103 4656 3366 4563 
z
" transform="scale(0.015625)"/>
        <path id="DejaVuSans-2e" d="M 684 794 
L 1344 794 
L 1344 0 
L 684 0 
L 684 794 
z
" transform="scale(0.015625)"/>
        <path id="DejaVuSans-38" d="M 2034 2216 
Q 1584 2216 1326 1975 
Q 1069 1734 1069 1313 
Q 1069 891 1326 650 
Q 1584 409 2034 409 
Q 2484 409 2743 651 
Q 3003 894 3003 1313 
Q 3003 1734 2745 1975 
Q 2488 2216 2034 2216 
z
M 1403 2484 
Q 997 2584 770 2862 
Q 544 3141 544 3541 
Q 544 4100 942 4425 
Q 1341 4750 2034 4750 
Q 2731 4750 3128 4425 
Q 3525 4100 3525 3541 
Q 3525 3141 3298 2862 
Q 3072 2584 2669 2484 
Q 3125 2378 3379 2068 
Q 3634 1759 3634 1313 
Q 3634 634 3220 271 
Q 2806 -91 2034 -91 
Q 1263 -91 848 271 
Q 434 634 434 1313 
Q 434 1759 690 2068 
Q 947 2378 1403 2484 
z
M 1172 3481 
Q 1172 3119 1398 2916 
Q 1625 2713 2034 2713 
Q 2441 2713 2670 2916 
Q 2900 3119 2900 3481 
Q 2900 3844 2670 4047 
Q 2441 4250 2034 4250 
Q 1625 4250 1398 4047 
Q 1172 3844 1172 3481 
z
" transform="scale(0.015625)"/>
       </defs>
       <use xlink:href="#DejaVuSans-33"/>
       <use xlink:href="#DejaVuSans-36" x="63.623047"/>
       <use xlink:href="#DejaVuSans-2e" x="127.246094"/>
       <use xlink:href="#DejaVuSans-38" x="159.033203"/>
      </g>
     </g>
    </g>
    <g id="ytick_2">
     <g id="line2d_10">
      <path d="M 348.70375 271.557187 
C 348.70375 259.454847 346.319853 247.470187 341.688488 236.289082 
C 337.057123 225.107978 330.268358 214.947873 321.710711 206.390227 
C 313.153064 197.83258 302.99296 191.043815 291.811855 186.41245 
C 280.630751 181.781085 268.64609 179.397187 256.54375 179.397187 
C 244.44141 179.397187 232.456749 181.781085 221.275645 186.41245 
C 210.09454 191.043815 199.934436 197.83258 191.376789 206.390227 
C 182.819142 214.947873 176.030377 225.107978 171.399012 236.289082 
C 166.767647 247.470187 164.38375 259.454847 164.38375 271.557187 
C 164.38375 283.659528 166.767647 295.644188 171.399012 306.825293 
C 176.030377 318.006397 182.819142 328.166502 191.376789 336.724148 
C 199.934436 345.281795 210.09454 352.07056 221.275645 356.701925 
C 232.456749 361.33329 244.44141 363.717187 256.54375 363.717187 
C 268.64609 363.717187 280.630751 361.33329 291.811855 356.701925 
C 302.99296 352.07056 313.153064 345.281795 321.710711 336.724148 
C 330.268358 328.166502 337.057123 318.006397 341.688488 306.825293 
C 346.319853 295.644188 348.70375 283.659528 348.70375 271.557187 
" clip-path="url(#peb56de00ca)" style="fill: none; stroke: #b0b0b0; stroke-width: 0.8; stroke-linecap: square"/>
     </g>
     <g id="text_10">
      <!-- 73.6 -->
      <g transform="translate(291.811855 184.332762)scale(0.1 -0.1)">
       <defs>
        <path id="DejaVuSans-37" d="M 525 4666 
L 3525 4666 
L 3525 4397 
L 1831 0 
L 1172 0 
L 2766 4134 
L 525 4134 
L 525 4666 
z
" transform="scale(0.015625)"/>
       </defs>
       <use xlink:href="#DejaVuSans-37"/>
       <use xlink:href="#DejaVuSans-33" x="63.623047"/>
       <use xlink:href="#DejaVuSans-2e" x="127.246094"/>
       <use xlink:href="#DejaVuSans-36" x="159.033203"/>
      </g>
     </g>
    </g>
    <g id="ytick_3">
     <g id="line2d_11">
      <path d="M 394.78375 271.557187 
C 394.78375 253.403677 391.207904 235.426687 384.260857 218.65503 
C 377.313809 201.883373 367.130662 186.643216 354.294191 173.806746 
C 341.457721 160.970276 326.217564 150.787129 309.445908 143.840081 
C 292.674251 136.893033 274.69726 133.317187 256.54375 133.317187 
C 238.39024 133.317187 220.413249 136.893033 203.641592 143.840081 
C 186.869936 150.787129 171.629779 160.970276 158.793309 173.806746 
C 145.956838 186.643216 135.773691 201.883373 128.826643 218.65503 
C 121.879596 235.426687 118.30375 253.403677 118.30375 271.557187 
C 118.30375 289.710698 121.879596 307.687688 128.826643 324.459345 
C 135.773691 341.231002 145.956838 356.471159 158.793309 369.307629 
C 171.629779 382.144099 186.869936 392.327246 203.641592 399.274294 
C 220.413249 406.221342 238.39024 409.797187 256.54375 409.797187 
C 274.69726 409.797187 292.674251 406.221342 309.445908 399.274294 
C 326.217564 392.327246 341.457721 382.144099 354.294191 369.307629 
C 367.130662 356.471159 377.313809 341.231002 384.260857 324.459345 
C 391.207904 307.687688 394.78375 289.710698 394.78375 271.557187 
" clip-path="url(#peb56de00ca)" style="fill: none; stroke: #b0b0b0; stroke-width: 0.8; stroke-linecap: square"/>
     </g>
     <g id="text_11">
      <!-- 110.4 -->
      <g transform="translate(309.445908 141.760393)scale(0.1 -0.1)">
       <defs>
        <path id="DejaVuSans-31" d="M 794 531 
L 1825 531 
L 1825 4091 
L 703 3866 
L 703 4441 
L 1819 4666 
L 2450 4666 
L 2450 531 
L 3481 531 
L 3481 0 
L 794 0 
L 794 531 
z
" transform="scale(0.015625)"/>
        <path id="DejaVuSans-30" d="M 2034 4250 
Q 1547 4250 1301 3770 
Q 1056 3291 1056 2328 
Q 1056 1369 1301 889 
Q 1547 409 2034 409 
Q 2525 409 2770 889 
Q 3016 1369 3016 2328 
Q 3016 3291 2770 3770 
Q 2525 4250 2034 4250 
z
M 2034 4750 
Q 2819 4750 3233 4129 
Q 3647 3509 3647 2328 
Q 3647 1150 3233 529 
Q 2819 -91 2034 -91 
Q 1250 -91 836 529 
Q 422 1150 422 2328 
Q 422 3509 836 4129 
Q 1250 4750 2034 4750 
z
" transform="scale(0.015625)"/>
        <path id="DejaVuSans-34" d="M 2419 4116 
L 825 1625 
L 2419 1625 
L 2419 4116 
z
M 2253 4666 
L 3047 4666 
L 3047 1625 
L 3713 1625 
L 3713 1100 
L 3047 1100 
L 3047 0 
L 2419 0 
L 2419 1100 
L 313 1100 
L 313 1709 
L 2253 4666 
z
" transform="scale(0.015625)"/>
       </defs>
       <use xlink:href="#DejaVuSans-31"/>
       <use xlink:href="#DejaVuSans-31" x="63.623047"/>
       <use xlink:href="#DejaVuSans-30" x="127.246094"/>
       <use xlink:href="#DejaVuSans-2e" x="190.869141"/>
       <use xlink:href="#DejaVuSans-34" x="222.65625"/>
      </g>
     </g>
    </g>
    <g id="ytick_4">
     <g id="line2d_12">
      <path d="M 440.86375 271.557187 
C 440.86375 247.352507 436.095956 223.383186 426.833225 201.020977 
C 417.570495 178.658768 403.992966 158.338559 386.877672 141.223266 
C 369.762378 124.107972 349.442169 110.530442 327.07996 101.267712 
C 304.717751 92.004982 280.748431 87.237187 256.54375 87.237187 
C 232.339069 87.237187 208.369749 92.004982 186.00754 101.267712 
C 163.645331 110.530442 143.325122 124.107972 126.209828 141.223266 
C 109.094534 158.338559 95.517005 178.658768 86.254275 201.020977 
C 76.991544 223.383186 72.22375 247.352507 72.22375 271.557187 
C 72.22375 295.761868 76.991544 319.731189 86.254275 342.093398 
C 95.517005 364.455607 109.094534 384.775816 126.209828 401.891109 
C 143.325122 419.006403 163.645331 432.583933 186.00754 441.846663 
C 208.369749 451.109393 232.339069 455.877187 256.54375 455.877187 
C 280.748431 455.877187 304.717751 451.109393 327.07996 441.846663 
C 349.442169 432.583933 369.762378 419.006403 386.877672 401.891109 
C 403.992966 384.775816 417.570495 364.455607 426.833225 342.093398 
C 436.095956 319.731189 440.86375 295.761868 440.86375 271.557187 
" clip-path="url(#peb56de00ca)" style="fill: none; stroke: #b0b0b0; stroke-width: 0.8; stroke-linecap: square"/>
     </g>
     <g id="text_12">
      <!-- 147.2 -->
      <g transform="translate(327.07996 99.188025)scale(0.1 -0.1)">
       <defs>
        <path id="DejaVuSans-32" d="M 1228 531 
L 3431 531 
L 3431 0 
L 469 0 
L 469 531 
Q 828 903 1448 1529 
Q 2069 2156 2228 2338 
Q 2531 2678 2651 2914 
Q 2772 3150 2772 3378 
Q 2772 3750 2511 3984 
Q 2250 4219 1831 4219 
Q 1534 4219 1204 4116 
Q 875 4013 500 3803 
L 500 4441 
Q 881 4594 1212 4672 
Q 1544 4750 1819 4750 
Q 2544 4750 2975 4387 
Q 3406 4025 3406 3419 
Q 3406 3131 3298 2873 
Q 3191 2616 2906 2266 
Q 2828 2175 2409 1742 
Q 1991 1309 1228 531 
z
" transform="scale(0.015625)"/>
       </defs>
       <use xlink:href="#DejaVuSans-31"/>
       <use xlink:href="#DejaVuSans-34" x="63.623047"/>
       <use xlink:href="#DejaVuSans-37" x="127.246094"/>
       <use xlink:href="#DejaVuSans-2e" x="190.869141"/>
       <use xlink:href="#DejaVuSans-32" x="222.65625"/>
      </g>
     </g>
    </g>
    <g id="ytick_5">
     <g id="line2d_13">
      <path d="M 486.94375 271.557187 
C 486.94375 241.301337 480.984007 211.339686 469.405594 183.386925 
C 457.827181 155.434163 440.85527 130.033902 419.461152 108.639785 
C 398.067035 87.245668 372.666774 70.273756 344.714013 58.695343 
C 316.761252 47.11693 286.799601 41.157187 256.54375 41.157187 
C 226.287899 41.157187 196.326248 47.11693 168.373487 58.695343 
C 140.420726 70.273756 115.020465 87.245668 93.626348 108.639785 
C 72.23223 130.033902 55.260319 155.434163 43.681906 183.386925 
C 32.103493 211.339686 26.14375 241.301337 26.14375 271.557187 
C 26.14375 301.813038 32.103493 331.774689 43.681906 359.72745 
C 55.260319 387.680212 72.23223 413.080473 93.626348 434.47459 
C 115.020465 455.868707 140.420726 472.840619 168.373487 484.419032 
C 196.326248 495.997445 226.287899 501.957187 256.54375 501.957187 
C 286.799601 501.957187 316.761252 495.997445 344.714013 484.419032 
C 372.666774 472.840619 398.067035 455.868707 419.461152 434.47459 
C 440.85527 413.080473 457.827181 387.680212 469.405594 359.72745 
C 480.984007 331.774689 486.94375 301.813038 486.94375 271.557187 
" clip-path="url(#peb56de00ca)" style="fill: none; stroke: #b0b0b0; stroke-width: 0.8; stroke-linecap: square"/>
     </g>
     <g id="text_13">
      <!-- 184.0 -->
      <g transform="translate(344.714013 56.615656)scale(0.1 -0.1)">
       <use xlink:href="#DejaVuSans-31"/>
       <use xlink:href="#DejaVuSans-38" x="63.623047"/>
       <use xlink:href="#DejaVuSans-34" x="127.246094"/>
       <use xlink:href="#DejaVuSans-2e" x="190.869141"/>
       <use xlink:href="#DejaVuSans-30" x="222.65625"/>
      </g>
     </g>
    </g>
   </g>
   <g id="patch_51">
    <path d="M 486.94375 271.557187 
C 486.94375 241.301337 480.984007 211.339686 469.405594 183.386925 
C 457.827181 155.434163 440.85527 130.033902 419.461152 108.639785 
C 398.067035 87.245668 372.666774 70.273756 344.714013 58.695343 
C 316.761252 47.11693 286.799601 41.157187 256.54375 41.157187 
C 226.287899 41.157187 196.326248 47.11693 168.373487 58.695343 
C 140.420726 70.273756 115.020465 87.245668 93.626348 108.639785 
C 72.23223 130.033902 55.260319 155.434163 43.681906 183.386925 
C 32.103493 211.339686 26.14375 241.301337 26.14375 271.557187 
C 26.14375 301.813038 32.103493 331.774689 43.681906 359.72745 
C 55.260319 387.680212 72.23223 413.080473 93.626348 434.47459 
C 115.020465 455.868707 140.420726 472.840619 168.373487 484.419032 
C 196.326248 495.997445 226.287899 501.957187 256.54375 501.957187 
C 286.799601 501.957187 316.761252 495.997445 344.714013 484.419032 
C 372.666774 472.840619 398.067035 455.868707 419.461152 434.47459 
C 440.85527 413.080473 457.827181 387.680212 469.405594 359.72745 
C 480.984007 331.774689 486.94375 301.813038 486.94375 271.557187 
" style="fill: none; stroke: #000000; stroke-width: 0.8; stroke-linejoin: miter; stroke-linecap: square"/>
   </g>
   <g id="text_14">
    <!-- f10/f25 -->
    <g transform="translate(235.028125 16.318125)scale(0.12 -0.12)">
     <defs>
      <path id="DejaVuSans-66" d="M 2375 4863 
L 2375 4384 
L 1825 4384 
Q 1516 4384 1395 4259 
Q 1275 4134 1275 3809 
L 1275 3500 
L 2222 3500 
L 2222 3053 
L 1275 3053 
L 1275 0 
L 697 0 
L 697 3053 
L 147 3053 
L 147 3500 
L 697 3500 
L 697 3744 
Q 697 4328 969 4595 
Q 1241 4863 1831 4863 
L 2375 4863 
z
" transform="scale(0.015625)"/>
      <path id="DejaVuSans-2f" d="M 1625 4666 
L 2156 4666 
L 531 -594 
L 0 -594 
L 1625 4666 
z
" transform="scale(0.015625)"/>
      <path id="DejaVuSans-35" d="M 691 4666 
L 3169 4666 
L 3169 4134 
L 1269 4134 
L 1269 2991 
Q 1406 3038 1543 3061 
Q 1681 3084 1819 3084 
Q 2600 3084 3056 2656 
Q 3513 2228 3513 1497 
Q 3513 744 3044 326 
Q 2575 -91 1722 -91 
Q 1428 -91 1123 -41 
Q 819 9 494 109 
L 494 744 
Q 775 591 1075 516 
Q 1375 441 1709 441 
Q 2250 441 2565 725 
Q 2881 1009 2881 1497 
Q 2881 1984 2565 2268 
Q 2250 2553 1709 2553 
Q 1456 2553 1204 2497 
Q 953 2441 691 2322 
L 691 4666 
z
" transform="scale(0.015625)"/>
     </defs>
     <use xlink:href="#DejaVuSans-66"/>
     <use xlink:href="#DejaVuSans-31" x="35.205078"/>
     <use xlink:href="#DejaVuSans-30" x="98.828125"/>
     <use xlink:href="#DejaVuSans-2f" x="162.451172"/>
     <use xlink:href="#DejaVuSans-66" x="196.142578"/>
     <use xlink:href="#DejaVuSans-32" x="231.347656"/>
     <use xlink:href="#DejaVuSans-35" x="294.970703"/>
    </g>
   </g>
   <g id="legend_1">
    <g id="patch_52">
     <path d="M 381.47625 122.148437 
L 484.94375 122.148437 
Q 488.94375 122.148437 488.94375 118.148437 
L 488.94375 43.157187 
Q 488.94375 39.157187 484.94375 39.157187 
L 381.47625 39.157187 
Q 377.47625 39.157187 377.47625 43.157187 
L 377.47625 118.148437 
Q 377.47625 122.148437 381.47625 122.148437 
z
" style="fill: #ffffff; opacity: 0.8; stroke: #cccccc; stroke-linejoin: miter"/>
    </g>
    <g id="patch_53">
     <path d="M 385.47625 61.157187 
L 425.47625 61.157187 
L 425.47625 47.157187 
L 385.47625 47.157187 
z
" style="fill: #440154; stroke: #000000; stroke-linejoin: miter"/>
    </g>
    <g id="text_15">
     <!-- [0.0 : 0.9) -->
     <g transform="translate(441.47625 61.157187)scale(0.08 -0.08)">
      <defs>
       <path id="DejaVuSans-5b" d="M 550 4863 
L 1875 4863 
L 1875 4416 
L 1125 4416 
L 1125 -397 
L 1875 -397 
L 1875 -844 
L 550 -844 
L 550 4863 
z
" transform="scale(0.015625)"/>
       <path id="DejaVuSans-20" transform="scale(0.015625)"/>
       <path id="DejaVuSans-3a" d="M 750 794 
L 1409 794 
L 1409 0 
L 750 0 
L 750 794 
z
M 750 3309 
L 1409 3309 
L 1409 2516 
L 750 2516 
L 750 3309 
z
" transform="scale(0.015625)"/>
       <path id="DejaVuSans-39" d="M 703 97 
L 703 672 
Q 941 559 1184 500 
Q 1428 441 1663 441 
Q 2288 441 2617 861 
Q 2947 1281 2994 2138 
Q 2813 1869 2534 1725 
Q 2256 1581 1919 1581 
Q 1219 1581 811 2004 
Q 403 2428 403 3163 
Q 403 3881 828 4315 
Q 1253 4750 1959 4750 
Q 2769 4750 3195 4129 
Q 3622 3509 3622 2328 
Q 3622 1225 3098 567 
Q 2575 -91 1691 -91 
Q 1453 -91 1209 -44 
Q 966 3 703 97 
z
M 1959 2075 
Q 2384 2075 2632 2365 
Q 2881 2656 2881 3163 
Q 2881 3666 2632 3958 
Q 2384 4250 1959 4250 
Q 1534 4250 1286 3958 
Q 1038 3666 1038 3163 
Q 1038 2656 1286 2365 
Q 1534 2075 1959 2075 
z
" transform="scale(0.015625)"/>
       <path id="DejaVuSans-29" d="M 513 4856 
L 1013 4856 
Q 1481 4119 1714 3412 
Q 1947 2706 1947 2009 
Q 1947 1309 1714 600 
Q 1481 -109 1013 -844 
L 513 -844 
Q 928 -128 1133 580 
Q 1338 1288 1338 2009 
Q 1338 2731 1133 3434 
Q 928 4138 513 4856 
z
" transform="scale(0.015625)"/>
      </defs>
      <use xlink:href="#DejaVuSans-5b"/>
      <use xlink:href="#DejaVuSans-30" x="39.013672"/>
      <use xlink:href="#DejaVuSans-2e" x="102.636719"/>
      <use xlink:href="#DejaVuSans-30" x="134.423828"/>
      <use xlink:href="#DejaVuSans-20" x="198.046875"/>
      <use xlink:href="#DejaVuSans-3a" x="229.833984"/>
      <use xlink:href="#DejaVuSans-20" x="263.525391"/>
      <use xlink:href="#DejaVuSans-30" x="295.3125"/>
      <use xlink:href="#DejaVuSans-2e" x="358.935547"/>
      <use xlink:href="#DejaVuSans-39" x="390.722656"/>
      <use xlink:href="#DejaVuSans-29" x="454.345703"/>
     </g>
    </g>
    <g id="patch_54">
     <path d="M 385.47625 86.820937 
L 425.47625 86.820937 
L 425.47625 72.820937 
L 385.47625 72.820937 
z
" style="fill: #21918c; stroke: #000000; stroke-linejoin: miter"/>
    </g>
    <g id="text_16">
     <!-- [0.9 : 1.1) -->
     <g transform="translate(441.47625 86.820937)scale(0.08 -0.08)">
      <use xlink:href="#DejaVuSans-5b"/>
      <use xlink:href="#DejaVuSans-30" x="39.013672"/>
      <use xlink:href="#DejaVuSans-2e" x="102.636719"/>
      <use xlink:href="#DejaVuSans-39" x="134.423828"/>
      <use xlink:href="#DejaVuSans-20" x="198.046875"/>
      <use xlink:href="#DejaVuSans-3a" x="229.833984"/>
      <use xlink:href="#DejaVuSans-20" x="263.525391"/>
      <use xlink:href="#DejaVuSans-31" x="295.3125"/>
      <use xlink:href="#DejaVuSans-2e" x="358.935547"/>
      <use xlink:href="#DejaVuSans-31" x="390.722656"/>
      <use xlink:href="#DejaVuSans-29" x="454.345703"/>
     </g>
    </g>
    <g id="patch_55">
     <path d="M 385.47625 112.484687 
L 425.47625 112.484687 
L 425.47625 98.484687 
L 385.47625 98.484687 
z
" style="fill: #fde725; stroke: #000000; stroke-linejoin: miter"/>
    </g>
    <g id="text_17">
     <!-- &gt;1.1 -->
     <g transform="translate(441.47625 112.484687)scale(0.08 -0.08)">
      <defs>
       <path id="DejaVuSans-3e" d="M 678 3150 
L 678 3719 
L 4684 2266 
L 4684 1747 
L 678 294 
L 678 863 
L 3897 2003 
L 678 3150 
z
" transform="scale(0.015625)"/>
      </defs>
      <use xlink:href="#DejaVuSans-3e"/>
      <use xlink:href="#DejaVuSans-31" x="83.789062"/>
      <use xlink:href="#DejaVuSans-2e" x="147.412109"/>
      <use xlink:href="#DejaVuSans-31" x="179.199219"/>
     </g>
    </g>
   </g>
  </g>
 </g>
 <defs>
  <clipPath id="peb56de00ca">
   <path d="M 486.94375 271.557187 
C 486.94375 241.301337 480.984007 211.339686 469.405594 183.386925 
C 457.827181 155.434163 440.85527 130.033902 419.461152 108.639785 
C 398.067035 87.245668 372.666774 70.273756 344.714013 58.695343 
C 316.761252 47.11693 286.799601 41.157187 256.54375 41.157187 
C 226.287899 41.157187 196.326248 47.11693 168.373487 58.695343 
C 140.420726 70.273756 115.020465 87.245668 93.626348 108.639785 
C 72.23223 130.033902 55.260319 155.434163 43.681906 183.386925 
C 32.103493 211.339686 26.14375 241.301337 26.14375 271.557187 
C 26.14375 301.813038 32.103493 331.774689 43.681906 359.72745 
C 55.260319 387.680212 72.23223 413.080473 93.626348 434.47459 
C 115.020465 455.868707 140.420726 472.840619 168.373487 484.419032 
C 196.326248 495.997445 226.287899 501.957187 256.54375 501.957187 
C 286.799601 501.957187 316.761252 495.997445 344.714013 484.419032 
C 372.666774 472.840619 398.067035 455.868707 419.461152 434.47459 
C 440.85527 413.080473 457.827181 387.680212 469.405594 359.72745 
C 480.984007 331.774689 486.94375 301.813038 486.94375 271.557187 
M 256.54375 271.557187 
C 256.54375 271.557187 256.54375 271.557187 256.54375 271.557187 
C 256.54375 271.557187 256.54375 271.557187 256.54375 271.557187 
C 256.54375 271.557187 256.54375 271.557187 256.54375 271.557187 
C 256.54375 271.557187 256.54375 271.557187 256.54375 271.557187 
C 256.54375 271.557187 256.54375 271.557187 256.54375 271.557187 
C 256.54375 271.557187 256.54375 271.557187 256.54375 271.557187 
C 256.54375 271.557187 256.54375 271.557187 256.54375 271.557187 
C 256.54375 271.557187 256.54375 271.557187 256.54375 271.557187 
C 256.54375 271.557187 256.54375 271.557187 256.54375 271.557187 
C 256.54375 271.557187 256.54375 271.557187 256.54375 271.557187 
C 256.54375 271.557187 256.54375 271.557187 256.54375 271.557187 
C 256.54375 271.557187 256.54375 271.557187 256.54375 271.557187 
C 256.54375 271.557187 256.54375 271.557187 256.54375 271.557187 
C 256.54375 271.557187 256.54375 271.557187 256.54375 271.557187 
C 256.54375 271.557187 256.54375 271.557187 256.54375 271.557187 
C 256.54375 271.557187 256.54375 271.557187 256.54375 271.557187 
M 486.94375 271.557187 
z
"/>
  </clipPath>
 </defs>
</svg>
